G04 #@! TF.GenerationSoftware,KiCad,Pcbnew,(5.1.2)-2*
G04 #@! TF.CreationDate,2019-07-18T11:18:45-04:00*
G04 #@! TF.ProjectId,Burt,42757274-2e6b-4696-9361-645f70636258,rev?*
G04 #@! TF.SameCoordinates,Original*
G04 #@! TF.FileFunction,Soldermask,Bot*
G04 #@! TF.FilePolarity,Negative*
%FSLAX46Y46*%
G04 Gerber Fmt 4.6, Leading zero omitted, Abs format (unit mm)*
G04 Created by KiCad (PCBNEW (5.1.2)-2) date 2019-07-18 11:18:45*
%MOMM*%
%LPD*%
G04 APERTURE LIST*
%ADD10C,0.100000*%
G04 APERTURE END LIST*
D10*
G36*
X14226000Y-40976000D02*
G01*
X14200025Y-40976000D01*
X14175639Y-40978402D01*
X14152190Y-40985515D01*
X14130579Y-40997066D01*
X14111637Y-41012611D01*
X14096092Y-41031553D01*
X14084541Y-41053164D01*
X14077428Y-41076613D01*
X14075026Y-41100999D01*
X14077428Y-41125385D01*
X14084541Y-41148834D01*
X14103396Y-41180292D01*
X14147694Y-41234269D01*
X14191894Y-41316961D01*
X14219113Y-41406688D01*
X14228303Y-41500000D01*
X14219113Y-41593312D01*
X14191894Y-41683039D01*
X14147694Y-41765731D01*
X14088211Y-41838211D01*
X14015731Y-41897694D01*
X13933039Y-41941894D01*
X13843312Y-41969113D01*
X13773384Y-41976000D01*
X13726616Y-41976000D01*
X13656688Y-41969113D01*
X13566961Y-41941894D01*
X13484269Y-41897694D01*
X13411789Y-41838211D01*
X13352306Y-41765731D01*
X13308106Y-41683039D01*
X13280887Y-41593312D01*
X13271697Y-41500000D01*
X13280887Y-41406688D01*
X13308106Y-41316961D01*
X13352306Y-41234269D01*
X13396606Y-41180289D01*
X13410214Y-41159923D01*
X13419592Y-41137284D01*
X13424372Y-41113251D01*
X13424372Y-41088747D01*
X13419592Y-41064714D01*
X13410214Y-41042075D01*
X13396600Y-41021700D01*
X13379273Y-41004373D01*
X13358899Y-40990760D01*
X13336260Y-40981382D01*
X13299975Y-40976000D01*
X13274000Y-40976000D01*
X13274000Y-40024000D01*
X14226000Y-40024000D01*
X14226000Y-40976000D01*
X14226000Y-40976000D01*
G37*
G36*
X-4906688Y-39030887D02*
G01*
X-4816961Y-39058106D01*
X-4734269Y-39102306D01*
X-4680289Y-39146606D01*
X-4659923Y-39160214D01*
X-4637284Y-39169592D01*
X-4613251Y-39174372D01*
X-4588747Y-39174372D01*
X-4564714Y-39169592D01*
X-4542075Y-39160214D01*
X-4521700Y-39146600D01*
X-4504373Y-39129273D01*
X-4490760Y-39108899D01*
X-4481382Y-39086260D01*
X-4476000Y-39049975D01*
X-4476000Y-39024000D01*
X-3524000Y-39024000D01*
X-3524000Y-39976000D01*
X-4476000Y-39976000D01*
X-4476000Y-39950025D01*
X-4478402Y-39925639D01*
X-4485515Y-39902190D01*
X-4497066Y-39880579D01*
X-4512611Y-39861637D01*
X-4531553Y-39846092D01*
X-4553164Y-39834541D01*
X-4576613Y-39827428D01*
X-4600999Y-39825026D01*
X-4625385Y-39827428D01*
X-4648834Y-39834541D01*
X-4680292Y-39853396D01*
X-4734269Y-39897694D01*
X-4816961Y-39941894D01*
X-4906688Y-39969113D01*
X-4976616Y-39976000D01*
X-5023384Y-39976000D01*
X-5093312Y-39969113D01*
X-5183039Y-39941894D01*
X-5265731Y-39897694D01*
X-5338211Y-39838211D01*
X-5397694Y-39765731D01*
X-5441894Y-39683039D01*
X-5469113Y-39593312D01*
X-5478303Y-39500000D01*
X-5469113Y-39406688D01*
X-5441894Y-39316961D01*
X-5397694Y-39234269D01*
X-5338211Y-39161789D01*
X-5265731Y-39102306D01*
X-5183039Y-39058106D01*
X-5093312Y-39030887D01*
X-5023384Y-39024000D01*
X-4976616Y-39024000D01*
X-4906688Y-39030887D01*
X-4906688Y-39030887D01*
G37*
G36*
X60593312Y-33530887D02*
G01*
X60683039Y-33558106D01*
X60765731Y-33602306D01*
X60838211Y-33661789D01*
X60897694Y-33734269D01*
X60941894Y-33816961D01*
X60969113Y-33906688D01*
X60978303Y-34000000D01*
X60969113Y-34093312D01*
X60941894Y-34183039D01*
X60897694Y-34265731D01*
X60853394Y-34319711D01*
X60839786Y-34340077D01*
X60830408Y-34362716D01*
X60825628Y-34386749D01*
X60825628Y-34411253D01*
X60830408Y-34435286D01*
X60839786Y-34457925D01*
X60853400Y-34478300D01*
X60870727Y-34495627D01*
X60891101Y-34509240D01*
X60913740Y-34518618D01*
X60950025Y-34524000D01*
X60976000Y-34524000D01*
X60976000Y-35476000D01*
X60024000Y-35476000D01*
X60024000Y-34524000D01*
X60049975Y-34524000D01*
X60074361Y-34521598D01*
X60097810Y-34514485D01*
X60119421Y-34502934D01*
X60138363Y-34487389D01*
X60153908Y-34468447D01*
X60165459Y-34446836D01*
X60172572Y-34423387D01*
X60174974Y-34399001D01*
X60172572Y-34374615D01*
X60165459Y-34351166D01*
X60146604Y-34319708D01*
X60102306Y-34265731D01*
X60058106Y-34183039D01*
X60030887Y-34093312D01*
X60021697Y-34000000D01*
X60030887Y-33906688D01*
X60058106Y-33816961D01*
X60102306Y-33734269D01*
X60161789Y-33661789D01*
X60234269Y-33602306D01*
X60316961Y-33558106D01*
X60406688Y-33530887D01*
X60476616Y-33524000D01*
X60523384Y-33524000D01*
X60593312Y-33530887D01*
X60593312Y-33530887D01*
G37*
G36*
X-4524000Y-34049975D02*
G01*
X-4521598Y-34074361D01*
X-4514485Y-34097810D01*
X-4502934Y-34119421D01*
X-4487389Y-34138363D01*
X-4468447Y-34153908D01*
X-4446836Y-34165459D01*
X-4423387Y-34172572D01*
X-4399001Y-34174974D01*
X-4374615Y-34172572D01*
X-4351166Y-34165459D01*
X-4319708Y-34146604D01*
X-4265731Y-34102306D01*
X-4183039Y-34058106D01*
X-4093312Y-34030887D01*
X-4023384Y-34024000D01*
X-3976616Y-34024000D01*
X-3906688Y-34030887D01*
X-3816961Y-34058106D01*
X-3734269Y-34102306D01*
X-3661789Y-34161789D01*
X-3602306Y-34234269D01*
X-3558106Y-34316961D01*
X-3530887Y-34406688D01*
X-3521697Y-34500000D01*
X-3530887Y-34593312D01*
X-3558106Y-34683039D01*
X-3602306Y-34765731D01*
X-3661789Y-34838211D01*
X-3734269Y-34897694D01*
X-3816961Y-34941894D01*
X-3906688Y-34969113D01*
X-3976616Y-34976000D01*
X-4023384Y-34976000D01*
X-4093312Y-34969113D01*
X-4183039Y-34941894D01*
X-4265731Y-34897694D01*
X-4319711Y-34853394D01*
X-4340077Y-34839786D01*
X-4362716Y-34830408D01*
X-4386749Y-34825628D01*
X-4411253Y-34825628D01*
X-4435286Y-34830408D01*
X-4457925Y-34839786D01*
X-4478300Y-34853400D01*
X-4495627Y-34870727D01*
X-4509240Y-34891101D01*
X-4518618Y-34913740D01*
X-4524000Y-34950025D01*
X-4524000Y-34976000D01*
X-5476000Y-34976000D01*
X-5476000Y-34024000D01*
X-4524000Y-34024000D01*
X-4524000Y-34049975D01*
X-4524000Y-34049975D01*
G37*
G36*
X60976000Y-14476000D02*
G01*
X60950025Y-14476000D01*
X60925639Y-14478402D01*
X60902190Y-14485515D01*
X60880579Y-14497066D01*
X60861637Y-14512611D01*
X60846092Y-14531553D01*
X60834541Y-14553164D01*
X60827428Y-14576613D01*
X60825026Y-14600999D01*
X60827428Y-14625385D01*
X60834541Y-14648834D01*
X60853396Y-14680292D01*
X60897694Y-14734269D01*
X60941894Y-14816961D01*
X60969113Y-14906688D01*
X60978303Y-15000000D01*
X60969113Y-15093312D01*
X60941894Y-15183039D01*
X60897694Y-15265731D01*
X60838211Y-15338211D01*
X60765731Y-15397694D01*
X60683039Y-15441894D01*
X60593312Y-15469113D01*
X60523384Y-15476000D01*
X60476616Y-15476000D01*
X60406688Y-15469113D01*
X60316961Y-15441894D01*
X60234269Y-15397694D01*
X60161789Y-15338211D01*
X60102306Y-15265731D01*
X60058106Y-15183039D01*
X60030887Y-15093312D01*
X60021697Y-15000000D01*
X60030887Y-14906688D01*
X60058106Y-14816961D01*
X60102306Y-14734269D01*
X60146606Y-14680289D01*
X60160214Y-14659923D01*
X60169592Y-14637284D01*
X60174372Y-14613251D01*
X60174372Y-14588747D01*
X60169592Y-14564714D01*
X60160214Y-14542075D01*
X60146600Y-14521700D01*
X60129273Y-14504373D01*
X60108899Y-14490760D01*
X60086260Y-14481382D01*
X60049975Y-14476000D01*
X60024000Y-14476000D01*
X60024000Y-13524000D01*
X60976000Y-13524000D01*
X60976000Y-14476000D01*
X60976000Y-14476000D01*
G37*
G36*
X-4906688Y-1530887D02*
G01*
X-4816961Y-1558106D01*
X-4734269Y-1602306D01*
X-4680289Y-1646606D01*
X-4659923Y-1660214D01*
X-4637284Y-1669592D01*
X-4613251Y-1674372D01*
X-4588747Y-1674372D01*
X-4564714Y-1669592D01*
X-4542075Y-1660214D01*
X-4521700Y-1646600D01*
X-4504373Y-1629273D01*
X-4490760Y-1608899D01*
X-4481382Y-1586260D01*
X-4476000Y-1549975D01*
X-4476000Y-1524000D01*
X-3524000Y-1524000D01*
X-3524000Y-2476000D01*
X-4476000Y-2476000D01*
X-4476000Y-2450025D01*
X-4478402Y-2425639D01*
X-4485515Y-2402190D01*
X-4497066Y-2380579D01*
X-4512611Y-2361637D01*
X-4531553Y-2346092D01*
X-4553164Y-2334541D01*
X-4576613Y-2327428D01*
X-4600999Y-2325026D01*
X-4625385Y-2327428D01*
X-4648834Y-2334541D01*
X-4680292Y-2353396D01*
X-4734269Y-2397694D01*
X-4816961Y-2441894D01*
X-4906688Y-2469113D01*
X-4976616Y-2476000D01*
X-5023384Y-2476000D01*
X-5093312Y-2469113D01*
X-5183039Y-2441894D01*
X-5265731Y-2397694D01*
X-5338211Y-2338211D01*
X-5397694Y-2265731D01*
X-5441894Y-2183039D01*
X-5469113Y-2093312D01*
X-5478303Y-2000000D01*
X-5469113Y-1906688D01*
X-5441894Y-1816961D01*
X-5397694Y-1734269D01*
X-5338211Y-1661789D01*
X-5265731Y-1602306D01*
X-5183039Y-1558106D01*
X-5093312Y-1530887D01*
X-5023384Y-1524000D01*
X-4976616Y-1524000D01*
X-4906688Y-1530887D01*
X-4906688Y-1530887D01*
G37*
G36*
X-4524000Y3450025D02*
G01*
X-4521598Y3425639D01*
X-4514485Y3402190D01*
X-4502934Y3380579D01*
X-4487389Y3361637D01*
X-4468447Y3346092D01*
X-4446836Y3334541D01*
X-4423387Y3327428D01*
X-4399001Y3325026D01*
X-4374615Y3327428D01*
X-4351166Y3334541D01*
X-4319708Y3353396D01*
X-4265731Y3397694D01*
X-4183039Y3441894D01*
X-4093312Y3469113D01*
X-4023384Y3476000D01*
X-3976616Y3476000D01*
X-3906688Y3469113D01*
X-3816961Y3441894D01*
X-3734269Y3397694D01*
X-3661789Y3338211D01*
X-3602306Y3265731D01*
X-3558106Y3183039D01*
X-3530887Y3093312D01*
X-3521697Y3000000D01*
X-3530887Y2906688D01*
X-3558106Y2816961D01*
X-3602306Y2734269D01*
X-3661789Y2661789D01*
X-3734269Y2602306D01*
X-3816961Y2558106D01*
X-3906688Y2530887D01*
X-3976616Y2524000D01*
X-4023384Y2524000D01*
X-4093312Y2530887D01*
X-4183039Y2558106D01*
X-4265731Y2602306D01*
X-4319711Y2646606D01*
X-4340077Y2660214D01*
X-4362716Y2669592D01*
X-4386749Y2674372D01*
X-4411253Y2674372D01*
X-4435286Y2669592D01*
X-4457925Y2660214D01*
X-4478300Y2646600D01*
X-4495627Y2629273D01*
X-4509240Y2608899D01*
X-4518618Y2586260D01*
X-4524000Y2549975D01*
X-4524000Y2524000D01*
X-5476000Y2524000D01*
X-5476000Y3476000D01*
X-4524000Y3476000D01*
X-4524000Y3450025D01*
X-4524000Y3450025D01*
G37*
G36*
X60593312Y6469113D02*
G01*
X60683039Y6441894D01*
X60765731Y6397694D01*
X60838211Y6338211D01*
X60897694Y6265731D01*
X60941894Y6183039D01*
X60969113Y6093312D01*
X60978303Y6000000D01*
X60969113Y5906688D01*
X60941894Y5816961D01*
X60897694Y5734269D01*
X60853394Y5680289D01*
X60839786Y5659923D01*
X60830408Y5637284D01*
X60825628Y5613251D01*
X60825628Y5588747D01*
X60830408Y5564714D01*
X60839786Y5542075D01*
X60853400Y5521700D01*
X60870727Y5504373D01*
X60891101Y5490760D01*
X60913740Y5481382D01*
X60950025Y5476000D01*
X60976000Y5476000D01*
X60976000Y4524000D01*
X60024000Y4524000D01*
X60024000Y5476000D01*
X60049975Y5476000D01*
X60074361Y5478402D01*
X60097810Y5485515D01*
X60119421Y5497066D01*
X60138363Y5512611D01*
X60153908Y5531553D01*
X60165459Y5553164D01*
X60172572Y5576613D01*
X60174974Y5600999D01*
X60172572Y5625385D01*
X60165459Y5648834D01*
X60146604Y5680292D01*
X60102306Y5734269D01*
X60058106Y5816961D01*
X60030887Y5906688D01*
X60021697Y6000000D01*
X60030887Y6093312D01*
X60058106Y6183039D01*
X60102306Y6265731D01*
X60161789Y6338211D01*
X60234269Y6397694D01*
X60316961Y6441894D01*
X60406688Y6469113D01*
X60476616Y6476000D01*
X60523384Y6476000D01*
X60593312Y6469113D01*
X60593312Y6469113D01*
G37*
G36*
X-2599000Y14099000D02*
G01*
X-4401000Y14099000D01*
X-4401000Y15901000D01*
X-2599000Y15901000D01*
X-2599000Y14099000D01*
X-2599000Y14099000D01*
G37*
G36*
X-3389557Y18434481D02*
G01*
X-3323373Y18427963D01*
X-3153534Y18376443D01*
X-2997009Y18292778D01*
X-2961271Y18263448D01*
X-2859814Y18180186D01*
X-2776552Y18078729D01*
X-2747222Y18042991D01*
X-2663557Y17886466D01*
X-2612037Y17716627D01*
X-2594641Y17540000D01*
X-2612037Y17363373D01*
X-2663557Y17193534D01*
X-2747222Y17037009D01*
X-2776552Y17001271D01*
X-2859814Y16899814D01*
X-2961271Y16816552D01*
X-2997009Y16787222D01*
X-3153534Y16703557D01*
X-3323373Y16652037D01*
X-3389558Y16645518D01*
X-3455740Y16639000D01*
X-3544260Y16639000D01*
X-3610442Y16645518D01*
X-3676627Y16652037D01*
X-3846466Y16703557D01*
X-4002991Y16787222D01*
X-4038729Y16816552D01*
X-4140186Y16899814D01*
X-4223448Y17001271D01*
X-4252778Y17037009D01*
X-4336443Y17193534D01*
X-4387963Y17363373D01*
X-4405359Y17540000D01*
X-4387963Y17716627D01*
X-4336443Y17886466D01*
X-4252778Y18042991D01*
X-4223448Y18078729D01*
X-4140186Y18180186D01*
X-4038729Y18263448D01*
X-4002991Y18292778D01*
X-3846466Y18376443D01*
X-3676627Y18427963D01*
X-3610443Y18434481D01*
X-3544260Y18441000D01*
X-3455740Y18441000D01*
X-3389557Y18434481D01*
X-3389557Y18434481D01*
G37*
G36*
X-3389557Y20974481D02*
G01*
X-3323373Y20967963D01*
X-3153534Y20916443D01*
X-2997009Y20832778D01*
X-2961271Y20803448D01*
X-2859814Y20720186D01*
X-2776552Y20618729D01*
X-2747222Y20582991D01*
X-2663557Y20426466D01*
X-2612037Y20256627D01*
X-2594641Y20080000D01*
X-2612037Y19903373D01*
X-2663557Y19733534D01*
X-2747222Y19577009D01*
X-2776552Y19541271D01*
X-2859814Y19439814D01*
X-2961271Y19356552D01*
X-2997009Y19327222D01*
X-3153534Y19243557D01*
X-3323373Y19192037D01*
X-3389558Y19185518D01*
X-3455740Y19179000D01*
X-3544260Y19179000D01*
X-3610442Y19185518D01*
X-3676627Y19192037D01*
X-3846466Y19243557D01*
X-4002991Y19327222D01*
X-4038729Y19356552D01*
X-4140186Y19439814D01*
X-4223448Y19541271D01*
X-4252778Y19577009D01*
X-4336443Y19733534D01*
X-4387963Y19903373D01*
X-4405359Y20080000D01*
X-4387963Y20256627D01*
X-4336443Y20426466D01*
X-4252778Y20582991D01*
X-4223448Y20618729D01*
X-4140186Y20720186D01*
X-4038729Y20803448D01*
X-4002991Y20832778D01*
X-3846466Y20916443D01*
X-3676627Y20967963D01*
X-3610443Y20974481D01*
X-3544260Y20981000D01*
X-3455740Y20981000D01*
X-3389557Y20974481D01*
X-3389557Y20974481D01*
G37*
G36*
X-3389558Y23514482D02*
G01*
X-3323373Y23507963D01*
X-3153534Y23456443D01*
X-2997009Y23372778D01*
X-2961271Y23343448D01*
X-2859814Y23260186D01*
X-2776552Y23158729D01*
X-2747222Y23122991D01*
X-2663557Y22966466D01*
X-2612037Y22796627D01*
X-2594641Y22620000D01*
X-2612037Y22443373D01*
X-2663557Y22273534D01*
X-2747222Y22117009D01*
X-2776552Y22081271D01*
X-2859814Y21979814D01*
X-2961271Y21896552D01*
X-2997009Y21867222D01*
X-3153534Y21783557D01*
X-3323373Y21732037D01*
X-3389558Y21725518D01*
X-3455740Y21719000D01*
X-3544260Y21719000D01*
X-3610442Y21725518D01*
X-3676627Y21732037D01*
X-3846466Y21783557D01*
X-4002991Y21867222D01*
X-4038729Y21896552D01*
X-4140186Y21979814D01*
X-4223448Y22081271D01*
X-4252778Y22117009D01*
X-4336443Y22273534D01*
X-4387963Y22443373D01*
X-4405359Y22620000D01*
X-4387963Y22796627D01*
X-4336443Y22966466D01*
X-4252778Y23122991D01*
X-4223448Y23158729D01*
X-4140186Y23260186D01*
X-4038729Y23343448D01*
X-4002991Y23372778D01*
X-3846466Y23456443D01*
X-3676627Y23507963D01*
X-3610442Y23514482D01*
X-3544260Y23521000D01*
X-3455740Y23521000D01*
X-3389558Y23514482D01*
X-3389558Y23514482D01*
G37*
G36*
X-3389558Y26054482D02*
G01*
X-3323373Y26047963D01*
X-3153534Y25996443D01*
X-2997009Y25912778D01*
X-2961271Y25883448D01*
X-2859814Y25800186D01*
X-2776552Y25698729D01*
X-2747222Y25662991D01*
X-2663557Y25506466D01*
X-2612037Y25336627D01*
X-2594641Y25160000D01*
X-2612037Y24983373D01*
X-2633752Y24911789D01*
X-2663558Y24813532D01*
X-2705389Y24735272D01*
X-2747222Y24657009D01*
X-2776552Y24621271D01*
X-2859814Y24519814D01*
X-2961271Y24436552D01*
X-2997009Y24407222D01*
X-3153534Y24323557D01*
X-3323373Y24272037D01*
X-3389558Y24265518D01*
X-3455740Y24259000D01*
X-3544260Y24259000D01*
X-3610442Y24265518D01*
X-3676627Y24272037D01*
X-3846466Y24323557D01*
X-4002991Y24407222D01*
X-4038729Y24436552D01*
X-4140186Y24519814D01*
X-4223448Y24621271D01*
X-4252778Y24657009D01*
X-4294611Y24735272D01*
X-4336442Y24813532D01*
X-4366248Y24911789D01*
X-4387963Y24983373D01*
X-4405359Y25160000D01*
X-4387963Y25336627D01*
X-4336443Y25506466D01*
X-4252778Y25662991D01*
X-4223448Y25698729D01*
X-4140186Y25800186D01*
X-4038729Y25883448D01*
X-4002991Y25912778D01*
X-3846466Y25996443D01*
X-3676627Y26047963D01*
X-3610442Y26054482D01*
X-3544260Y26061000D01*
X-3455740Y26061000D01*
X-3389558Y26054482D01*
X-3389558Y26054482D01*
G37*
G36*
X60976000Y25774000D02*
G01*
X60950025Y25774000D01*
X60925639Y25771598D01*
X60902190Y25764485D01*
X60880579Y25752934D01*
X60861637Y25737389D01*
X60846092Y25718447D01*
X60834541Y25696836D01*
X60827428Y25673387D01*
X60825026Y25649001D01*
X60827428Y25624615D01*
X60834541Y25601166D01*
X60853396Y25569708D01*
X60897694Y25515731D01*
X60941894Y25433039D01*
X60969113Y25343312D01*
X60978303Y25250000D01*
X60969113Y25156688D01*
X60941894Y25066961D01*
X60897694Y24984269D01*
X60838211Y24911789D01*
X60765731Y24852306D01*
X60683039Y24808106D01*
X60593312Y24780887D01*
X60523384Y24774000D01*
X60476616Y24774000D01*
X60406688Y24780887D01*
X60316961Y24808106D01*
X60234269Y24852306D01*
X60161789Y24911789D01*
X60102306Y24984269D01*
X60058106Y25066961D01*
X60030887Y25156688D01*
X60021697Y25250000D01*
X60030887Y25343312D01*
X60058106Y25433039D01*
X60102306Y25515731D01*
X60146606Y25569711D01*
X60160214Y25590077D01*
X60169592Y25612716D01*
X60174372Y25636749D01*
X60174372Y25661253D01*
X60169592Y25685286D01*
X60160214Y25707925D01*
X60146600Y25728300D01*
X60129273Y25745627D01*
X60108899Y25759240D01*
X60086260Y25768618D01*
X60049975Y25774000D01*
X60024000Y25774000D01*
X60024000Y26726000D01*
X60976000Y26726000D01*
X60976000Y25774000D01*
X60976000Y25774000D01*
G37*
G36*
X-3389558Y28594482D02*
G01*
X-3323373Y28587963D01*
X-3153534Y28536443D01*
X-2997009Y28452778D01*
X-2961271Y28423448D01*
X-2859814Y28340186D01*
X-2776552Y28238729D01*
X-2747222Y28202991D01*
X-2663557Y28046466D01*
X-2612037Y27876627D01*
X-2594641Y27700000D01*
X-2612037Y27523373D01*
X-2663557Y27353534D01*
X-2747222Y27197009D01*
X-2776552Y27161271D01*
X-2859814Y27059814D01*
X-2961271Y26976552D01*
X-2997009Y26947222D01*
X-3153534Y26863557D01*
X-3323373Y26812037D01*
X-3389558Y26805518D01*
X-3455740Y26799000D01*
X-3544260Y26799000D01*
X-3610442Y26805518D01*
X-3676627Y26812037D01*
X-3846466Y26863557D01*
X-4002991Y26947222D01*
X-4038729Y26976552D01*
X-4140186Y27059814D01*
X-4223448Y27161271D01*
X-4252778Y27197009D01*
X-4336443Y27353534D01*
X-4387963Y27523373D01*
X-4405359Y27700000D01*
X-4387963Y27876627D01*
X-4336443Y28046466D01*
X-4252778Y28202991D01*
X-4223448Y28238729D01*
X-4140186Y28340186D01*
X-4038729Y28423448D01*
X-4002991Y28452778D01*
X-3846466Y28536443D01*
X-3676627Y28587963D01*
X-3610442Y28594482D01*
X-3544260Y28601000D01*
X-3455740Y28601000D01*
X-3389558Y28594482D01*
X-3389558Y28594482D01*
G37*
G36*
X13843312Y30219113D02*
G01*
X13933039Y30191894D01*
X14015731Y30147694D01*
X14088211Y30088211D01*
X14147694Y30015731D01*
X14191894Y29933039D01*
X14219113Y29843312D01*
X14228303Y29750000D01*
X14219113Y29656688D01*
X14191894Y29566961D01*
X14147694Y29484269D01*
X14103394Y29430289D01*
X14089786Y29409923D01*
X14080408Y29387284D01*
X14075628Y29363251D01*
X14075628Y29338747D01*
X14080408Y29314714D01*
X14089786Y29292075D01*
X14103400Y29271700D01*
X14120727Y29254373D01*
X14141101Y29240760D01*
X14163740Y29231382D01*
X14200025Y29226000D01*
X14226000Y29226000D01*
X14226000Y28274000D01*
X13274000Y28274000D01*
X13274000Y29226000D01*
X13299975Y29226000D01*
X13324361Y29228402D01*
X13347810Y29235515D01*
X13369421Y29247066D01*
X13388363Y29262611D01*
X13403908Y29281553D01*
X13415459Y29303164D01*
X13422572Y29326613D01*
X13424974Y29350999D01*
X13422572Y29375385D01*
X13415459Y29398834D01*
X13396604Y29430292D01*
X13352306Y29484269D01*
X13308106Y29566961D01*
X13280887Y29656688D01*
X13271697Y29750000D01*
X13280887Y29843312D01*
X13308106Y29933039D01*
X13352306Y30015731D01*
X13411789Y30088211D01*
X13484269Y30147694D01*
X13566961Y30191894D01*
X13656688Y30219113D01*
X13726616Y30226000D01*
X13773384Y30226000D01*
X13843312Y30219113D01*
X13843312Y30219113D01*
G37*
G36*
X-3389557Y31134481D02*
G01*
X-3323373Y31127963D01*
X-3153534Y31076443D01*
X-2997009Y30992778D01*
X-2961271Y30963448D01*
X-2859814Y30880186D01*
X-2776552Y30778729D01*
X-2747222Y30742991D01*
X-2663557Y30586466D01*
X-2612037Y30416627D01*
X-2594641Y30240000D01*
X-2612037Y30063373D01*
X-2663557Y29893534D01*
X-2747222Y29737009D01*
X-2776552Y29701271D01*
X-2859814Y29599814D01*
X-2961271Y29516552D01*
X-2997009Y29487222D01*
X-3153534Y29403557D01*
X-3323373Y29352037D01*
X-3389558Y29345518D01*
X-3455740Y29339000D01*
X-3544260Y29339000D01*
X-3610442Y29345518D01*
X-3676627Y29352037D01*
X-3846466Y29403557D01*
X-4002991Y29487222D01*
X-4038729Y29516552D01*
X-4140186Y29599814D01*
X-4223448Y29701271D01*
X-4252778Y29737009D01*
X-4336443Y29893534D01*
X-4387963Y30063373D01*
X-4405359Y30240000D01*
X-4387963Y30416627D01*
X-4336443Y30586466D01*
X-4252778Y30742991D01*
X-4223448Y30778729D01*
X-4140186Y30880186D01*
X-4038729Y30963448D01*
X-4002991Y30992778D01*
X-3846466Y31076443D01*
X-3676627Y31127963D01*
X-3610443Y31134481D01*
X-3544260Y31141000D01*
X-3455740Y31141000D01*
X-3389557Y31134481D01*
X-3389557Y31134481D01*
G37*
G36*
X-3389558Y33674482D02*
G01*
X-3323373Y33667963D01*
X-3153534Y33616443D01*
X-2997009Y33532778D01*
X-2961271Y33503448D01*
X-2859814Y33420186D01*
X-2776552Y33318729D01*
X-2747222Y33282991D01*
X-2663557Y33126466D01*
X-2612037Y32956627D01*
X-2594641Y32780000D01*
X-2612037Y32603373D01*
X-2663557Y32433534D01*
X-2747222Y32277009D01*
X-2776552Y32241271D01*
X-2859814Y32139814D01*
X-2961271Y32056552D01*
X-2997009Y32027222D01*
X-3153534Y31943557D01*
X-3323373Y31892037D01*
X-3389558Y31885518D01*
X-3455740Y31879000D01*
X-3544260Y31879000D01*
X-3610442Y31885518D01*
X-3676627Y31892037D01*
X-3846466Y31943557D01*
X-4002991Y32027222D01*
X-4038729Y32056552D01*
X-4140186Y32139814D01*
X-4223448Y32241271D01*
X-4252778Y32277009D01*
X-4336443Y32433534D01*
X-4387963Y32603373D01*
X-4405359Y32780000D01*
X-4387963Y32956627D01*
X-4336443Y33126466D01*
X-4252778Y33282991D01*
X-4223448Y33318729D01*
X-4140186Y33420186D01*
X-4038729Y33503448D01*
X-4002991Y33532778D01*
X-3846466Y33616443D01*
X-3676627Y33667963D01*
X-3610442Y33674482D01*
X-3544260Y33681000D01*
X-3455740Y33681000D01*
X-3389558Y33674482D01*
X-3389558Y33674482D01*
G37*
G36*
X4226000Y46274000D02*
G01*
X4200025Y46274000D01*
X4175639Y46271598D01*
X4152190Y46264485D01*
X4130579Y46252934D01*
X4111637Y46237389D01*
X4096092Y46218447D01*
X4084541Y46196836D01*
X4077428Y46173387D01*
X4075026Y46149001D01*
X4077428Y46124615D01*
X4084541Y46101166D01*
X4103396Y46069708D01*
X4147694Y46015731D01*
X4191894Y45933039D01*
X4219113Y45843312D01*
X4228303Y45750000D01*
X4219113Y45656688D01*
X4191894Y45566961D01*
X4147694Y45484269D01*
X4088211Y45411789D01*
X4015731Y45352306D01*
X4015726Y45352303D01*
X4008808Y45346626D01*
X3991481Y45329299D01*
X3977867Y45308925D01*
X3968490Y45286286D01*
X3963709Y45262253D01*
X3963709Y45237749D01*
X3968489Y45213715D01*
X3977866Y45191076D01*
X3991480Y45170702D01*
X4008808Y45153374D01*
X4015726Y45147697D01*
X4015731Y45147694D01*
X4088211Y45088211D01*
X4147694Y45015731D01*
X4191894Y44933039D01*
X4219113Y44843312D01*
X4228303Y44750000D01*
X4219113Y44656688D01*
X4191894Y44566961D01*
X4147694Y44484269D01*
X4088211Y44411789D01*
X4015731Y44352306D01*
X4015726Y44352303D01*
X4008808Y44346626D01*
X3991481Y44329299D01*
X3977867Y44308925D01*
X3968490Y44286286D01*
X3963709Y44262253D01*
X3963709Y44237749D01*
X3968489Y44213715D01*
X3977866Y44191076D01*
X3991480Y44170702D01*
X4008808Y44153374D01*
X4015726Y44147697D01*
X4015731Y44147694D01*
X4088211Y44088211D01*
X4147694Y44015731D01*
X4191894Y43933039D01*
X4219113Y43843312D01*
X4228303Y43750000D01*
X4219113Y43656688D01*
X4191894Y43566961D01*
X4147694Y43484269D01*
X4088211Y43411789D01*
X4015731Y43352306D01*
X4015726Y43352303D01*
X4008808Y43346626D01*
X3991481Y43329299D01*
X3977867Y43308925D01*
X3968490Y43286286D01*
X3963709Y43262253D01*
X3963709Y43237749D01*
X3968489Y43213715D01*
X3977866Y43191076D01*
X3991480Y43170702D01*
X4008808Y43153374D01*
X4015726Y43147697D01*
X4015731Y43147694D01*
X4088211Y43088211D01*
X4147694Y43015731D01*
X4191894Y42933039D01*
X4219113Y42843312D01*
X4228303Y42750000D01*
X4219113Y42656688D01*
X4191894Y42566961D01*
X4147694Y42484269D01*
X4088211Y42411789D01*
X4015731Y42352306D01*
X4015726Y42352303D01*
X4008808Y42346626D01*
X3991481Y42329299D01*
X3977867Y42308925D01*
X3968490Y42286286D01*
X3963709Y42262253D01*
X3963709Y42237749D01*
X3968489Y42213715D01*
X3977866Y42191076D01*
X3991480Y42170702D01*
X4008808Y42153374D01*
X4015726Y42147697D01*
X4015731Y42147694D01*
X4088211Y42088211D01*
X4147694Y42015731D01*
X4191894Y41933039D01*
X4219113Y41843312D01*
X4228303Y41750000D01*
X4219113Y41656688D01*
X4191894Y41566961D01*
X4147694Y41484269D01*
X4088211Y41411789D01*
X4015731Y41352306D01*
X4015726Y41352303D01*
X4008808Y41346626D01*
X3991481Y41329299D01*
X3977867Y41308925D01*
X3968490Y41286286D01*
X3963709Y41262253D01*
X3963709Y41237749D01*
X3968489Y41213715D01*
X3977866Y41191076D01*
X3991480Y41170702D01*
X4008808Y41153374D01*
X4015726Y41147697D01*
X4015731Y41147694D01*
X4088211Y41088211D01*
X4147694Y41015731D01*
X4191894Y40933039D01*
X4219113Y40843312D01*
X4228303Y40750000D01*
X4219113Y40656688D01*
X4191894Y40566961D01*
X4147694Y40484269D01*
X4088211Y40411789D01*
X4015731Y40352306D01*
X4015726Y40352303D01*
X4008808Y40346626D01*
X3991481Y40329299D01*
X3977867Y40308925D01*
X3968490Y40286286D01*
X3963709Y40262253D01*
X3963709Y40237749D01*
X3968489Y40213715D01*
X3977866Y40191076D01*
X3991480Y40170702D01*
X4008808Y40153374D01*
X4015726Y40147697D01*
X4015731Y40147694D01*
X4088211Y40088211D01*
X4147694Y40015731D01*
X4191894Y39933039D01*
X4219113Y39843312D01*
X4228303Y39750000D01*
X4219113Y39656688D01*
X4191894Y39566961D01*
X4147694Y39484269D01*
X4088211Y39411789D01*
X4015731Y39352306D01*
X3933039Y39308106D01*
X3843312Y39280887D01*
X3773384Y39274000D01*
X3726616Y39274000D01*
X3656688Y39280887D01*
X3566961Y39308106D01*
X3484269Y39352306D01*
X3411789Y39411789D01*
X3352306Y39484269D01*
X3308106Y39566961D01*
X3280887Y39656688D01*
X3271697Y39750000D01*
X3280887Y39843312D01*
X3308106Y39933039D01*
X3352306Y40015731D01*
X3411789Y40088211D01*
X3484269Y40147694D01*
X3484274Y40147697D01*
X3491192Y40153374D01*
X3508519Y40170701D01*
X3522133Y40191075D01*
X3531510Y40213714D01*
X3536291Y40237747D01*
X3536291Y40262251D01*
X3531511Y40286285D01*
X3522134Y40308924D01*
X3508520Y40329298D01*
X3491192Y40346626D01*
X3484274Y40352303D01*
X3484269Y40352306D01*
X3411789Y40411789D01*
X3352306Y40484269D01*
X3308106Y40566961D01*
X3280887Y40656688D01*
X3271697Y40750000D01*
X3280887Y40843312D01*
X3308106Y40933039D01*
X3352306Y41015731D01*
X3411789Y41088211D01*
X3484269Y41147694D01*
X3484274Y41147697D01*
X3491192Y41153374D01*
X3508519Y41170701D01*
X3522133Y41191075D01*
X3531510Y41213714D01*
X3536291Y41237747D01*
X3536291Y41262251D01*
X3531511Y41286285D01*
X3522134Y41308924D01*
X3508520Y41329298D01*
X3491192Y41346626D01*
X3484274Y41352303D01*
X3484269Y41352306D01*
X3411789Y41411789D01*
X3352306Y41484269D01*
X3308106Y41566961D01*
X3280887Y41656688D01*
X3271697Y41750000D01*
X3280887Y41843312D01*
X3308106Y41933039D01*
X3352306Y42015731D01*
X3411789Y42088211D01*
X3484269Y42147694D01*
X3484274Y42147697D01*
X3491192Y42153374D01*
X3508519Y42170701D01*
X3522133Y42191075D01*
X3531510Y42213714D01*
X3536291Y42237747D01*
X3536291Y42262251D01*
X3531511Y42286285D01*
X3522134Y42308924D01*
X3508520Y42329298D01*
X3491192Y42346626D01*
X3484274Y42352303D01*
X3484269Y42352306D01*
X3411789Y42411789D01*
X3352306Y42484269D01*
X3308106Y42566961D01*
X3280887Y42656688D01*
X3271697Y42750000D01*
X3280887Y42843312D01*
X3308106Y42933039D01*
X3352306Y43015731D01*
X3411789Y43088211D01*
X3484269Y43147694D01*
X3484274Y43147697D01*
X3491192Y43153374D01*
X3508519Y43170701D01*
X3522133Y43191075D01*
X3531510Y43213714D01*
X3536291Y43237747D01*
X3536291Y43262251D01*
X3531511Y43286285D01*
X3522134Y43308924D01*
X3508520Y43329298D01*
X3491192Y43346626D01*
X3484274Y43352303D01*
X3484269Y43352306D01*
X3411789Y43411789D01*
X3352306Y43484269D01*
X3308106Y43566961D01*
X3280887Y43656688D01*
X3271697Y43750000D01*
X3280887Y43843312D01*
X3308106Y43933039D01*
X3352306Y44015731D01*
X3411789Y44088211D01*
X3484269Y44147694D01*
X3484274Y44147697D01*
X3491192Y44153374D01*
X3508519Y44170701D01*
X3522133Y44191075D01*
X3531510Y44213714D01*
X3536291Y44237747D01*
X3536291Y44262251D01*
X3531511Y44286285D01*
X3522134Y44308924D01*
X3508520Y44329298D01*
X3491192Y44346626D01*
X3484274Y44352303D01*
X3484269Y44352306D01*
X3411789Y44411789D01*
X3352306Y44484269D01*
X3308106Y44566961D01*
X3280887Y44656688D01*
X3271697Y44750000D01*
X3280887Y44843312D01*
X3308106Y44933039D01*
X3352306Y45015731D01*
X3411789Y45088211D01*
X3484269Y45147694D01*
X3484274Y45147697D01*
X3491192Y45153374D01*
X3508519Y45170701D01*
X3522133Y45191075D01*
X3531510Y45213714D01*
X3536291Y45237747D01*
X3536291Y45262251D01*
X3531511Y45286285D01*
X3522134Y45308924D01*
X3508520Y45329298D01*
X3491192Y45346626D01*
X3484274Y45352303D01*
X3484269Y45352306D01*
X3411789Y45411789D01*
X3352306Y45484269D01*
X3308106Y45566961D01*
X3280887Y45656688D01*
X3271697Y45750000D01*
X3280887Y45843312D01*
X3308106Y45933039D01*
X3352306Y46015731D01*
X3396606Y46069711D01*
X3410214Y46090077D01*
X3419592Y46112716D01*
X3424372Y46136749D01*
X3424372Y46161253D01*
X3419592Y46185286D01*
X3410214Y46207925D01*
X3396600Y46228300D01*
X3379273Y46245627D01*
X3358899Y46259240D01*
X3336260Y46268618D01*
X3299975Y46274000D01*
X3274000Y46274000D01*
X3274000Y47226000D01*
X4226000Y47226000D01*
X4226000Y46274000D01*
X4226000Y46274000D01*
G37*
G36*
X64976000Y47524000D02*
G01*
X64950025Y47524000D01*
X64925639Y47521598D01*
X64902190Y47514485D01*
X64880579Y47502934D01*
X64861637Y47487389D01*
X64846092Y47468447D01*
X64834541Y47446836D01*
X64827428Y47423387D01*
X64825026Y47399001D01*
X64827428Y47374615D01*
X64834541Y47351166D01*
X64853396Y47319708D01*
X64897694Y47265731D01*
X64941894Y47183039D01*
X64969113Y47093312D01*
X64978303Y47000000D01*
X64969113Y46906688D01*
X64941894Y46816961D01*
X64897694Y46734269D01*
X64838211Y46661789D01*
X64765731Y46602306D01*
X64765726Y46602303D01*
X64758808Y46596626D01*
X64741481Y46579299D01*
X64727867Y46558925D01*
X64718490Y46536286D01*
X64713709Y46512253D01*
X64713709Y46487749D01*
X64718489Y46463715D01*
X64727866Y46441076D01*
X64741480Y46420702D01*
X64758808Y46403374D01*
X64765726Y46397697D01*
X64765731Y46397694D01*
X64838211Y46338211D01*
X64897694Y46265731D01*
X64941894Y46183039D01*
X64969113Y46093312D01*
X64978303Y46000000D01*
X64969113Y45906688D01*
X64941894Y45816961D01*
X64897694Y45734269D01*
X64838211Y45661789D01*
X64765731Y45602306D01*
X64765726Y45602303D01*
X64758808Y45596626D01*
X64741481Y45579299D01*
X64727867Y45558925D01*
X64718490Y45536286D01*
X64713709Y45512253D01*
X64713709Y45487749D01*
X64718489Y45463715D01*
X64727866Y45441076D01*
X64741480Y45420702D01*
X64758808Y45403374D01*
X64765726Y45397697D01*
X64765731Y45397694D01*
X64838211Y45338211D01*
X64897694Y45265731D01*
X64941894Y45183039D01*
X64969113Y45093312D01*
X64978303Y45000000D01*
X64969113Y44906688D01*
X64941894Y44816961D01*
X64897694Y44734269D01*
X64838211Y44661789D01*
X64765731Y44602306D01*
X64765726Y44602303D01*
X64758808Y44596626D01*
X64741481Y44579299D01*
X64727867Y44558925D01*
X64718490Y44536286D01*
X64713709Y44512253D01*
X64713709Y44487749D01*
X64718489Y44463715D01*
X64727866Y44441076D01*
X64741480Y44420702D01*
X64758808Y44403374D01*
X64765726Y44397697D01*
X64765731Y44397694D01*
X64838211Y44338211D01*
X64897694Y44265731D01*
X64941894Y44183039D01*
X64969113Y44093312D01*
X64978303Y44000000D01*
X64969113Y43906688D01*
X64941894Y43816961D01*
X64897694Y43734269D01*
X64838211Y43661789D01*
X64765731Y43602306D01*
X64765726Y43602303D01*
X64758808Y43596626D01*
X64741481Y43579299D01*
X64727867Y43558925D01*
X64718490Y43536286D01*
X64713709Y43512253D01*
X64713709Y43487749D01*
X64718489Y43463715D01*
X64727866Y43441076D01*
X64741480Y43420702D01*
X64758808Y43403374D01*
X64765726Y43397697D01*
X64765731Y43397694D01*
X64838211Y43338211D01*
X64897694Y43265731D01*
X64941894Y43183039D01*
X64969113Y43093312D01*
X64978303Y43000000D01*
X64969113Y42906688D01*
X64941894Y42816961D01*
X64897694Y42734269D01*
X64838211Y42661789D01*
X64765731Y42602306D01*
X64765726Y42602303D01*
X64758808Y42596626D01*
X64741481Y42579299D01*
X64727867Y42558925D01*
X64718490Y42536286D01*
X64713709Y42512253D01*
X64713709Y42487749D01*
X64718489Y42463715D01*
X64727866Y42441076D01*
X64741480Y42420702D01*
X64758808Y42403374D01*
X64765726Y42397697D01*
X64765731Y42397694D01*
X64838211Y42338211D01*
X64897694Y42265731D01*
X64941894Y42183039D01*
X64969113Y42093312D01*
X64978303Y42000000D01*
X64969113Y41906688D01*
X64941894Y41816961D01*
X64897694Y41734269D01*
X64838211Y41661789D01*
X64765731Y41602306D01*
X64765726Y41602303D01*
X64758808Y41596626D01*
X64741481Y41579299D01*
X64727867Y41558925D01*
X64718490Y41536286D01*
X64713709Y41512253D01*
X64713709Y41487749D01*
X64718489Y41463715D01*
X64727866Y41441076D01*
X64741480Y41420702D01*
X64758808Y41403374D01*
X64765726Y41397697D01*
X64765731Y41397694D01*
X64838211Y41338211D01*
X64897694Y41265731D01*
X64941894Y41183039D01*
X64969113Y41093312D01*
X64978303Y41000000D01*
X64969113Y40906688D01*
X64941894Y40816961D01*
X64897694Y40734269D01*
X64838211Y40661789D01*
X64765731Y40602306D01*
X64683039Y40558106D01*
X64593312Y40530887D01*
X64523384Y40524000D01*
X64476616Y40524000D01*
X64406688Y40530887D01*
X64316961Y40558106D01*
X64234269Y40602306D01*
X64161789Y40661789D01*
X64102306Y40734269D01*
X64058106Y40816961D01*
X64030887Y40906688D01*
X64021697Y41000000D01*
X64030887Y41093312D01*
X64058106Y41183039D01*
X64102306Y41265731D01*
X64161789Y41338211D01*
X64234269Y41397694D01*
X64234274Y41397697D01*
X64241192Y41403374D01*
X64258519Y41420701D01*
X64272133Y41441075D01*
X64281510Y41463714D01*
X64286291Y41487747D01*
X64286291Y41512251D01*
X64281511Y41536285D01*
X64272134Y41558924D01*
X64258520Y41579298D01*
X64241192Y41596626D01*
X64234274Y41602303D01*
X64234269Y41602306D01*
X64161789Y41661789D01*
X64102306Y41734269D01*
X64058106Y41816961D01*
X64030887Y41906688D01*
X64021697Y42000000D01*
X64030887Y42093312D01*
X64058106Y42183039D01*
X64102306Y42265731D01*
X64161789Y42338211D01*
X64234269Y42397694D01*
X64234274Y42397697D01*
X64241192Y42403374D01*
X64258519Y42420701D01*
X64272133Y42441075D01*
X64281510Y42463714D01*
X64286291Y42487747D01*
X64286291Y42512251D01*
X64281511Y42536285D01*
X64272134Y42558924D01*
X64258520Y42579298D01*
X64241192Y42596626D01*
X64234274Y42602303D01*
X64234269Y42602306D01*
X64161789Y42661789D01*
X64102306Y42734269D01*
X64058106Y42816961D01*
X64030887Y42906688D01*
X64021697Y43000000D01*
X64030887Y43093312D01*
X64058106Y43183039D01*
X64102306Y43265731D01*
X64161789Y43338211D01*
X64234269Y43397694D01*
X64234274Y43397697D01*
X64241192Y43403374D01*
X64258519Y43420701D01*
X64272133Y43441075D01*
X64281510Y43463714D01*
X64286291Y43487747D01*
X64286291Y43512251D01*
X64281511Y43536285D01*
X64272134Y43558924D01*
X64258520Y43579298D01*
X64241192Y43596626D01*
X64234274Y43602303D01*
X64234269Y43602306D01*
X64161789Y43661789D01*
X64102306Y43734269D01*
X64058106Y43816961D01*
X64030887Y43906688D01*
X64021697Y44000000D01*
X64030887Y44093312D01*
X64058106Y44183039D01*
X64102306Y44265731D01*
X64161789Y44338211D01*
X64234269Y44397694D01*
X64234274Y44397697D01*
X64241192Y44403374D01*
X64258519Y44420701D01*
X64272133Y44441075D01*
X64281510Y44463714D01*
X64286291Y44487747D01*
X64286291Y44512251D01*
X64281511Y44536285D01*
X64272134Y44558924D01*
X64258520Y44579298D01*
X64241192Y44596626D01*
X64234274Y44602303D01*
X64234269Y44602306D01*
X64161789Y44661789D01*
X64102306Y44734269D01*
X64058106Y44816961D01*
X64030887Y44906688D01*
X64021697Y45000000D01*
X64030887Y45093312D01*
X64058106Y45183039D01*
X64102306Y45265731D01*
X64161789Y45338211D01*
X64234269Y45397694D01*
X64234274Y45397697D01*
X64241192Y45403374D01*
X64258519Y45420701D01*
X64272133Y45441075D01*
X64281510Y45463714D01*
X64286291Y45487747D01*
X64286291Y45512251D01*
X64281511Y45536285D01*
X64272134Y45558924D01*
X64258520Y45579298D01*
X64241192Y45596626D01*
X64234274Y45602303D01*
X64234269Y45602306D01*
X64161789Y45661789D01*
X64102306Y45734269D01*
X64058106Y45816961D01*
X64030887Y45906688D01*
X64021697Y46000000D01*
X64030887Y46093312D01*
X64058106Y46183039D01*
X64102306Y46265731D01*
X64161789Y46338211D01*
X64234269Y46397694D01*
X64234274Y46397697D01*
X64241192Y46403374D01*
X64258519Y46420701D01*
X64272133Y46441075D01*
X64281510Y46463714D01*
X64286291Y46487747D01*
X64286291Y46512251D01*
X64281511Y46536285D01*
X64272134Y46558924D01*
X64258520Y46579298D01*
X64241192Y46596626D01*
X64234274Y46602303D01*
X64234269Y46602306D01*
X64161789Y46661789D01*
X64102306Y46734269D01*
X64058106Y46816961D01*
X64030887Y46906688D01*
X64021697Y47000000D01*
X64030887Y47093312D01*
X64058106Y47183039D01*
X64102306Y47265731D01*
X64146606Y47319711D01*
X64160214Y47340077D01*
X64169592Y47362716D01*
X64174372Y47386749D01*
X64174372Y47411253D01*
X64169592Y47435286D01*
X64160214Y47457925D01*
X64146600Y47478300D01*
X64129273Y47495627D01*
X64108899Y47509240D01*
X64086260Y47518618D01*
X64049975Y47524000D01*
X64024000Y47524000D01*
X64024000Y48476000D01*
X64976000Y48476000D01*
X64976000Y47524000D01*
X64976000Y47524000D01*
G37*
G36*
X61338855Y42147860D02*
G01*
X61402618Y42141580D01*
X61493404Y42114040D01*
X61525336Y42104354D01*
X61638425Y42043906D01*
X61737554Y41962554D01*
X61818906Y41863425D01*
X61879354Y41750336D01*
X61879355Y41750332D01*
X61916580Y41627618D01*
X61929149Y41500000D01*
X61916580Y41372382D01*
X61897330Y41308925D01*
X61879354Y41249664D01*
X61818906Y41136575D01*
X61737554Y41037446D01*
X61638425Y40956094D01*
X61525336Y40895646D01*
X61493404Y40885960D01*
X61402618Y40858420D01*
X61338855Y40852140D01*
X61306974Y40849000D01*
X60693026Y40849000D01*
X60661145Y40852140D01*
X60597382Y40858420D01*
X60506596Y40885960D01*
X60474664Y40895646D01*
X60361575Y40956094D01*
X60262446Y41037446D01*
X60181094Y41136575D01*
X60120646Y41249664D01*
X60102670Y41308925D01*
X60083420Y41372382D01*
X60070851Y41500000D01*
X60083420Y41627618D01*
X60120645Y41750332D01*
X60120646Y41750336D01*
X60181094Y41863425D01*
X60262446Y41962554D01*
X60361575Y42043906D01*
X60474664Y42104354D01*
X60506596Y42114040D01*
X60597382Y42141580D01*
X60661145Y42147860D01*
X60693026Y42151000D01*
X61306974Y42151000D01*
X61338855Y42147860D01*
X61338855Y42147860D01*
G37*
G36*
X61766242Y44146596D02*
G01*
X61803337Y44135343D01*
X61837515Y44117075D01*
X61867481Y44092481D01*
X61892075Y44062515D01*
X61910343Y44028337D01*
X61921596Y43991242D01*
X61926000Y43946526D01*
X61926000Y43053474D01*
X61921596Y43008758D01*
X61910343Y42971663D01*
X61892075Y42937485D01*
X61867481Y42907519D01*
X61837515Y42882925D01*
X61803337Y42864657D01*
X61766242Y42853404D01*
X61721526Y42849000D01*
X60278474Y42849000D01*
X60233758Y42853404D01*
X60196663Y42864657D01*
X60162485Y42882925D01*
X60132519Y42907519D01*
X60107925Y42937485D01*
X60089657Y42971663D01*
X60078404Y43008758D01*
X60074000Y43053474D01*
X60074000Y43946526D01*
X60078404Y43991242D01*
X60089657Y44028337D01*
X60107925Y44062515D01*
X60132519Y44092481D01*
X60162485Y44117075D01*
X60196663Y44135343D01*
X60233758Y44146596D01*
X60278474Y44151000D01*
X61721526Y44151000D01*
X61766242Y44146596D01*
X61766242Y44146596D01*
G37*
G36*
X-4172383Y59016580D02*
G01*
X-4091601Y58992075D01*
X-4049665Y58979354D01*
X-3936576Y58918906D01*
X-3837446Y58837553D01*
X-3756094Y58738425D01*
X-3695646Y58625336D01*
X-3685960Y58593404D01*
X-3658420Y58502618D01*
X-3649000Y58406973D01*
X-3649000Y57793027D01*
X-3658420Y57697382D01*
X-3685960Y57606596D01*
X-3695646Y57574664D01*
X-3756094Y57461575D01*
X-3837446Y57362446D01*
X-3936575Y57281094D01*
X-4049664Y57220646D01*
X-4081596Y57210960D01*
X-4172382Y57183420D01*
X-4300000Y57170851D01*
X-4427617Y57183420D01*
X-4518403Y57210960D01*
X-4550335Y57220646D01*
X-4663424Y57281094D01*
X-4762553Y57362446D01*
X-4843904Y57461573D01*
X-4843905Y57461575D01*
X-4904353Y57574664D01*
X-4904355Y57574667D01*
X-4916763Y57615573D01*
X-4941580Y57697382D01*
X-4951000Y57793027D01*
X-4951000Y58406972D01*
X-4941580Y58502617D01*
X-4904355Y58625331D01*
X-4904354Y58625335D01*
X-4843906Y58738424D01*
X-4762553Y58837554D01*
X-4663425Y58918906D01*
X-4550336Y58979354D01*
X-4508400Y58992075D01*
X-4427618Y59016580D01*
X-4300000Y59029149D01*
X-4172383Y59016580D01*
X-4172383Y59016580D01*
G37*
G36*
X-5808758Y59021596D02*
G01*
X-5771663Y59010343D01*
X-5737485Y58992075D01*
X-5707519Y58967481D01*
X-5682925Y58937515D01*
X-5664657Y58903337D01*
X-5653404Y58866242D01*
X-5649000Y58821526D01*
X-5649000Y57378474D01*
X-5653404Y57333758D01*
X-5664657Y57296663D01*
X-5682925Y57262485D01*
X-5707519Y57232519D01*
X-5737485Y57207925D01*
X-5771663Y57189657D01*
X-5808758Y57178404D01*
X-5853474Y57174000D01*
X-6746526Y57174000D01*
X-6791242Y57178404D01*
X-6828337Y57189657D01*
X-6862515Y57207925D01*
X-6892481Y57232519D01*
X-6917075Y57262485D01*
X-6935343Y57296663D01*
X-6946596Y57333758D01*
X-6951000Y57378474D01*
X-6951000Y58821526D01*
X-6946596Y58866242D01*
X-6935343Y58903337D01*
X-6917075Y58937515D01*
X-6892481Y58967481D01*
X-6862515Y58992075D01*
X-6828337Y59010343D01*
X-6791242Y59021596D01*
X-6746526Y59026000D01*
X-5853474Y59026000D01*
X-5808758Y59021596D01*
X-5808758Y59021596D01*
G37*
M02*
