M48
; DRILL file {KiCad (5.1.2)-2} date 7/18/2019 11:18:49 AM
; FORMAT={-:-/ absolute / inch / decimal}
; #@! TF.CreationDate,2019-07-18T11:18:49-04:00
; #@! TF.GenerationSoftware,Kicad,Pcbnew,(5.1.2)-2
; #@! TF.FileFunction,Plated,1,2,PTH
FMAT,2
INCH
T1C0.0157
T2C0.0197
T3C0.0295
T4C0.0394
%
G90
G05
T1
X-1.998Y0.5512
X-1.7224Y1.5945
X-1.6437Y1.8504
X-1.6339Y2.1752
X-1.6339Y1.7618
X-1.5846Y1.565
X-1.5846Y1.4272
X-1.565Y1.8012
X-1.5354Y1.624
X-1.5157Y1.4272
X-1.4862Y1.5551
X-1.4273Y1.5531
X-1.4272Y1.9783
X-1.3982Y1.8632
X-1.3386Y1.4272
X-1.2795Y1.4075
X-1.2402Y2.0965
X-1.1516Y1.4567
X-1.0504Y1.3297
X-1.0261Y1.8674
X-0.9936Y1.3883
X-0.954Y1.3974
X-0.9283Y1.4273
X-0.9252Y1.2402
X-0.9154Y1.565
X-0.9154Y0.7579
X-0.8994Y1.454
X-0.8957Y1.2795
X-0.876Y0.7579
X-0.8725Y1.4828
X-0.8642Y1.3242
X-0.8509Y1.5901
X-0.8418Y1.5342
X-0.8366Y0.7579
X-0.8262Y1.3384
X-0.7972Y0.7579
X-0.7882Y1.3484
X-0.7874Y1.566
X-0.7677Y1.6043
X-0.7495Y1.3556
X-0.7382Y1.6339
X-0.7185Y1.2303
X-0.7185Y1.1811
X-0.6924Y1.3763
X-0.6816Y1.1675
X-0.6791Y1.6339
X-0.6578Y1.3949
X-0.6399Y1.6366
X-0.615Y1.4115
X-0.6102Y1.122
X-0.5938Y1.4447
X-0.5906Y1.1909
X-0.5807Y1.3878
X-0.561Y1.4665
X-0.561Y1.122
X-0.5217Y0.7283
X-0.5118Y1.5748
X-0.502Y1.5354
X-0.4921Y0.6988
X-0.4823Y-1.1614
X-0.4421Y1.5461
X-0.4386Y1.7421
X-0.3911Y1.8675
X-0.374Y2.0276
X-0.3543Y0.2362
X-0.315Y0.2657
X-0.2756Y0.1575
X-0.2756Y-1.3287
X-0.0984Y1.6929
X-0.0787Y0.2165
X-0.0787Y-0.1181
X-0.0787Y-1.3386
X-0.0787Y-1.5945
X-0.0591Y2.0866
X0.0197Y-1.0236
X0.0197Y-1.2008
X0.0492Y0.9941
X0.059Y-1.1425
X0.0591Y-1.4173
X0.0689Y1.3484
X0.1083Y1.3484
X0.1083Y1.2894
X0.1083Y0.9941
X0.1083Y0.8858
X0.1083Y0.7874
X0.1083Y0.689
X0.1083Y0.5807
X0.1183Y1.4766
X0.128Y-0.9843
X0.1379Y-1.2591
X0.1476Y1.9094
X0.1673Y0.2461
X0.1697Y-1.3855
X0.1772Y-1.2008
X0.2165Y1.998
X0.2559Y2.0177
X0.3217Y2.0314
X0.3543Y1.8307
X0.3937Y0.315
X0.4093Y1.1333
X0.4134Y1.2992
X0.4134Y1.25
X0.4232Y1.939
X0.4412Y1.9767
X0.4921Y1.4764
X0.4921Y1.437
X0.4921Y1.3976
X0.502Y0.3543
X0.5118Y0.9941
X0.5118Y0.8957
X0.5118Y0.7874
X0.5217Y0.7283
X0.5217Y0.6102
X0.5906Y1.8012
X0.6693Y1.3091
X0.6703Y0.9387
X0.6988Y1.3386
X0.7874Y1.752
X0.8066Y1.6924
X0.9336Y0.2908
X0.9542Y0.3243
X1.0325Y0.3087
X1.1024Y-0.9843
X1.1408Y-0.9724
X1.1597Y-1.0325
X1.2598Y0.5709
X1.2598Y0.3051
X1.2598Y-0.8661
X1.2661Y-0.9754
X1.2992Y0.5413
X1.2992Y0.3051
X1.3091Y-1.0039
X1.3307Y0.3642
X1.4173Y0.4429
X1.4173Y0.3937
X1.4173Y0.315
X1.5945Y-0.5413
X1.6043Y-0.6988
X1.624Y0.315
X1.624Y0.2657
X1.6339Y-0.5512
X1.6339Y-0.748
X1.6437Y0.3543
X1.6535Y0.3937
X1.6732Y-0.6988
X1.7421Y-0.689
X1.7421Y-1.0039
X1.7673Y-0.9672
X1.8406Y-1.1024
X1.9497Y-1.0825
X2.0571Y-1.0236
X2.0576Y-0.9838
X2.0669Y-1.063
X2.0684Y-1.1137
X2.1457Y-1.0827
X2.1594Y-1.0236
X2.3524Y0.5118
X2.3524Y-1.0531
X2.4606Y0.4626
X2.4606Y-1.1024
X2.4902Y1.3681
X2.5098Y0.8169
X2.5098Y0.3937
X2.5295Y0.5906
X2.5384Y-0.7852
X2.5591Y0.7677
X2.5886Y1.3287
X2.5886Y0.7087
X2.5886Y0.5512
X2.5886Y-0.8563
T2
X-0.1969Y-0.0787
X-0.1575Y-0.0787
X2.5394Y1.8898
X2.5394Y1.8504
X2.5394Y1.811
X2.5394Y1.7717
X2.5394Y1.7323
X2.5394Y1.6929
X2.5394Y1.6535
X2.5394Y1.6142
X-0.1969Y-1.3583
X-0.1575Y-1.3583
X0.5413Y1.1713
X0.5413Y1.1319
X2.3819Y-0.5512
X2.3819Y-0.5906
X-0.1969Y0.1181
X-0.1575Y0.1181
X0.1476Y1.8406
X0.1476Y1.8012
X0.1476Y1.7618
X0.1476Y1.7224
X0.1476Y1.6831
X0.1476Y1.6437
X0.1476Y1.6043
X0.1476Y1.565
X2.3819Y1.0335
X2.3819Y0.9941
X2.3819Y-1.3386
X2.3819Y-1.378
X-0.1969Y-1.5551
X-0.1575Y-1.5551
X0.5413Y-1.5945
X0.5413Y-1.6339
X2.3819Y0.2362
X2.3819Y0.1969
T3
X2.4016Y1.7126
X2.4016Y1.6339
X-0.248Y2.2874
X-0.1693Y2.2874
T4
X-0.1378Y1.2906
X-0.1378Y1.1906
X-0.1378Y1.0906
X-0.1378Y0.9906
X-0.1378Y0.8906
X-0.1378Y0.7906
X-0.1378Y0.6906
X-0.1378Y0.5906
T0
M30
