G04 #@! TF.GenerationSoftware,KiCad,Pcbnew,(5.1.2)-2*
G04 #@! TF.CreationDate,2019-07-18T11:18:45-04:00*
G04 #@! TF.ProjectId,Burt,42757274-2e6b-4696-9361-645f70636258,rev?*
G04 #@! TF.SameCoordinates,Original*
G04 #@! TF.FileFunction,Legend,Top*
G04 #@! TF.FilePolarity,Positive*
%FSLAX46Y46*%
G04 Gerber Fmt 4.6, Leading zero omitted, Abs format (unit mm)*
G04 Created by KiCad (PCBNEW (5.1.2)-2) date 2019-07-18 11:18:45*
%MOMM*%
%LPD*%
G04 APERTURE LIST*
%ADD10C,0.120000*%
%ADD11C,0.150000*%
%ADD12C,0.300000*%
G04 APERTURE END LIST*
D10*
X-10000000Y41500000D02*
X-36500000Y41500000D01*
X-10000000Y61000000D02*
X-10000000Y41500000D01*
X-36500000Y61000000D02*
X-10000000Y61000000D01*
X-36500000Y41500000D02*
X-36500000Y61000000D01*
D11*
X-43833333Y12928571D02*
X-43833333Y13404761D01*
X-43547619Y12833333D02*
X-44547619Y13166666D01*
X-43547619Y13500000D01*
X-43547619Y13833333D02*
X-44214285Y13833333D01*
X-44023809Y13833333D02*
X-44119047Y13880952D01*
X-44166666Y13928571D01*
X-44214285Y14023809D01*
X-44214285Y14119047D01*
X-43547619Y14880952D02*
X-44547619Y14880952D01*
X-43595238Y14880952D02*
X-43547619Y14785714D01*
X-43547619Y14595238D01*
X-43595238Y14500000D01*
X-43642857Y14452380D01*
X-43738095Y14404761D01*
X-44023809Y14404761D01*
X-44119047Y14452380D01*
X-44166666Y14500000D01*
X-44214285Y14595238D01*
X-44214285Y14785714D01*
X-44166666Y14880952D01*
X-44214285Y15785714D02*
X-43547619Y15785714D01*
X-44214285Y15357142D02*
X-43690476Y15357142D01*
X-43595238Y15404761D01*
X-43547619Y15500000D01*
X-43547619Y15642857D01*
X-43595238Y15738095D01*
X-43642857Y15785714D01*
X-43642857Y16833333D02*
X-43595238Y16785714D01*
X-43547619Y16642857D01*
X-43547619Y16547619D01*
X-43595238Y16404761D01*
X-43690476Y16309523D01*
X-43785714Y16261904D01*
X-43976190Y16214285D01*
X-44119047Y16214285D01*
X-44309523Y16261904D01*
X-44404761Y16309523D01*
X-44500000Y16404761D01*
X-44547619Y16547619D01*
X-44547619Y16642857D01*
X-44500000Y16785714D01*
X-44452380Y16833333D01*
X-43547619Y17690476D02*
X-44071428Y17690476D01*
X-44166666Y17642857D01*
X-44214285Y17547619D01*
X-44214285Y17357142D01*
X-44166666Y17261904D01*
X-43595238Y17690476D02*
X-43547619Y17595238D01*
X-43547619Y17357142D01*
X-43595238Y17261904D01*
X-43690476Y17214285D01*
X-43785714Y17214285D01*
X-43880952Y17261904D01*
X-43928571Y17357142D01*
X-43928571Y17595238D01*
X-43976190Y17690476D01*
X-43547619Y18166666D02*
X-44214285Y18166666D01*
X-44119047Y18166666D02*
X-44166666Y18214285D01*
X-44214285Y18309523D01*
X-44214285Y18452380D01*
X-44166666Y18547619D01*
X-44071428Y18595238D01*
X-43547619Y18595238D01*
X-44071428Y18595238D02*
X-44166666Y18642857D01*
X-44214285Y18738095D01*
X-44214285Y18880952D01*
X-44166666Y18976190D01*
X-44071428Y19023809D01*
X-43547619Y19023809D01*
D10*
X-45000000Y12000000D02*
X-10500000Y12000000D01*
X-45000000Y36000000D02*
X-45000000Y12000000D01*
X-10500000Y36000000D02*
X-45000000Y36000000D01*
X-10500000Y12000000D02*
X-10500000Y36000000D01*
X-8360000Y59910000D02*
X-8360000Y55190000D01*
X-8360000Y55190000D02*
X-2240000Y55190000D01*
X-2240000Y55190000D02*
X-2240000Y59910000D01*
X-2240000Y59910000D02*
X-8360000Y59910000D01*
X-6600000Y59910000D02*
X-6600000Y60110000D01*
X-6600000Y60110000D02*
X-6900000Y60110000D01*
X-6900000Y60110000D02*
X-6900000Y59910000D01*
X-6600000Y60010000D02*
X-6900000Y60010000D01*
X-5800000Y59910000D02*
X-5800000Y59300000D01*
X-5800000Y59300000D02*
X-7750000Y59300000D01*
X-7750000Y59300000D02*
X-7750000Y55800000D01*
X-7750000Y55800000D02*
X-2850000Y55800000D01*
X-2850000Y55800000D02*
X-2850000Y59300000D01*
X-2850000Y59300000D02*
X-4800000Y59300000D01*
X-4800000Y59300000D02*
X-4800000Y59910000D01*
X-8360000Y58600000D02*
X-7750000Y58600000D01*
X-8360000Y57300000D02*
X-7750000Y57300000D01*
X-2240000Y58600000D02*
X-2850000Y58600000D01*
X-2240000Y57300000D02*
X-2850000Y57300000D01*
X-5400000Y55800000D02*
X-5400000Y56300000D01*
X-5400000Y56300000D02*
X-5200000Y56300000D01*
X-5200000Y56300000D02*
X-5200000Y55800000D01*
X-5300000Y55800000D02*
X-5300000Y56300000D01*
X-7410000Y60210000D02*
X-8660000Y60210000D01*
X-8660000Y60210000D02*
X-8660000Y58960000D01*
X-8240000Y48875279D02*
X-8240000Y48549721D01*
X-9260000Y48875279D02*
X-9260000Y48549721D01*
X-8610000Y52775279D02*
X-8610000Y52449721D01*
X-7590000Y52775279D02*
X-7590000Y52449721D01*
X-7835000Y49500000D02*
X-7835000Y47215000D01*
X-7835000Y47215000D02*
X-6365000Y47215000D01*
X-6365000Y47215000D02*
X-6365000Y49500000D01*
X63110000Y45860000D02*
X61860000Y45860000D01*
X63110000Y44610000D02*
X63110000Y45860000D01*
X58700000Y42500000D02*
X59200000Y42500000D01*
X59200000Y42400000D02*
X58700000Y42400000D01*
X59200000Y42600000D02*
X59200000Y42400000D01*
X58700000Y42600000D02*
X59200000Y42600000D01*
X60200000Y39440000D02*
X60200000Y40050000D01*
X61500000Y39440000D02*
X61500000Y40050000D01*
X60200000Y45560000D02*
X60200000Y44950000D01*
X61500000Y45560000D02*
X61500000Y44950000D01*
X62200000Y42000000D02*
X62810000Y42000000D01*
X62200000Y40050000D02*
X62200000Y42000000D01*
X58700000Y40050000D02*
X62200000Y40050000D01*
X58700000Y44950000D02*
X58700000Y40050000D01*
X62200000Y44950000D02*
X58700000Y44950000D01*
X62200000Y43000000D02*
X62200000Y44950000D01*
X62810000Y43000000D02*
X62200000Y43000000D01*
X62910000Y43800000D02*
X62910000Y44100000D01*
X63010000Y44100000D02*
X62810000Y44100000D01*
X63010000Y43800000D02*
X63010000Y44100000D01*
X62810000Y43800000D02*
X63010000Y43800000D01*
X62810000Y39440000D02*
X62810000Y45560000D01*
X58090000Y39440000D02*
X62810000Y39440000D01*
X58090000Y45560000D02*
X58090000Y39440000D01*
X62810000Y45560000D02*
X58090000Y45560000D01*
D11*
X63850000Y14775000D02*
X63850000Y16225000D01*
X61650000Y14050000D02*
X61650000Y16225000D01*
X63850000Y-24975000D02*
X63850000Y-23525000D01*
X61650000Y-25700000D02*
X61650000Y-23525000D01*
X1775000Y-31600000D02*
X3225000Y-31600000D01*
X1050000Y-29400000D02*
X3225000Y-29400000D01*
X-5950000Y1600000D02*
X-3775000Y1600000D01*
X-5225000Y-600000D02*
X-3775000Y-600000D01*
D10*
X61587221Y-27260000D02*
X61912779Y-27260000D01*
X61587221Y-26240000D02*
X61912779Y-26240000D01*
X63912779Y-21240000D02*
X63587221Y-21240000D01*
X63912779Y-22260000D02*
X63587221Y-22260000D01*
X2662779Y-25490000D02*
X2337221Y-25490000D01*
X2662779Y-26510000D02*
X2337221Y-26510000D01*
X6510000Y48662779D02*
X6510000Y48337221D01*
X5490000Y48662779D02*
X5490000Y48337221D01*
X8337221Y47490000D02*
X8662779Y47490000D01*
X8337221Y48510000D02*
X8662779Y48510000D01*
X-6010000Y48537221D02*
X-6010000Y48862779D01*
X-4990000Y48537221D02*
X-4990000Y48862779D01*
X-2290000Y52062779D02*
X-2290000Y51737221D01*
X-3310000Y52062779D02*
X-3310000Y51737221D01*
X61337221Y13510000D02*
X61662779Y13510000D01*
X61337221Y12490000D02*
X61662779Y12490000D01*
X2337221Y-35510000D02*
X2662779Y-35510000D01*
X2337221Y-34490000D02*
X2662779Y-34490000D01*
X-6490000Y-35337221D02*
X-6490000Y-35662779D01*
X-7510000Y-35337221D02*
X-7510000Y-35662779D01*
X59805000Y-13315000D02*
X60500000Y-13315000D01*
X59805000Y-14000000D02*
X59805000Y-13315000D01*
X61108276Y-14685000D02*
X61195000Y-14685000D01*
X59805000Y-14685000D02*
X59891724Y-14685000D01*
X61195000Y-14685000D02*
X61195000Y-15560000D01*
X59805000Y-14685000D02*
X59805000Y-15560000D01*
X60894493Y-15560000D02*
X61195000Y-15560000D01*
X59805000Y-15560000D02*
X60105507Y-15560000D01*
X61195000Y-35685000D02*
X60500000Y-35685000D01*
X61195000Y-35000000D02*
X61195000Y-35685000D01*
X59891724Y-34315000D02*
X59805000Y-34315000D01*
X61195000Y-34315000D02*
X61108276Y-34315000D01*
X59805000Y-34315000D02*
X59805000Y-33440000D01*
X61195000Y-34315000D02*
X61195000Y-33440000D01*
X60105507Y-33440000D02*
X59805000Y-33440000D01*
X61195000Y-33440000D02*
X60894493Y-33440000D01*
X59805000Y26935000D02*
X60500000Y26935000D01*
X59805000Y26250000D02*
X59805000Y26935000D01*
X61108276Y25565000D02*
X61195000Y25565000D01*
X59805000Y25565000D02*
X59891724Y25565000D01*
X61195000Y25565000D02*
X61195000Y24690000D01*
X59805000Y25565000D02*
X59805000Y24690000D01*
X60894493Y24690000D02*
X61195000Y24690000D01*
X59805000Y24690000D02*
X60105507Y24690000D01*
X14445000Y28065000D02*
X13750000Y28065000D01*
X14445000Y28750000D02*
X14445000Y28065000D01*
X13141724Y29435000D02*
X13055000Y29435000D01*
X14445000Y29435000D02*
X14358276Y29435000D01*
X13055000Y29435000D02*
X13055000Y30310000D01*
X14445000Y29435000D02*
X14445000Y30310000D01*
X13355507Y30310000D02*
X13055000Y30310000D01*
X14445000Y30310000D02*
X14144493Y30310000D01*
X13055000Y-42060000D02*
X13355507Y-42060000D01*
X14144493Y-42060000D02*
X14445000Y-42060000D01*
X13055000Y-41185000D02*
X13055000Y-42060000D01*
X14445000Y-41185000D02*
X14445000Y-42060000D01*
X13055000Y-41185000D02*
X13141724Y-41185000D01*
X14358276Y-41185000D02*
X14445000Y-41185000D01*
X13055000Y-40500000D02*
X13055000Y-39815000D01*
X13055000Y-39815000D02*
X13750000Y-39815000D01*
X-3440000Y-35195000D02*
X-3440000Y-34894493D01*
X-3440000Y-34105507D02*
X-3440000Y-33805000D01*
X-4315000Y-35195000D02*
X-3440000Y-35195000D01*
X-4315000Y-33805000D02*
X-3440000Y-33805000D01*
X-4315000Y-35195000D02*
X-4315000Y-35108276D01*
X-4315000Y-33891724D02*
X-4315000Y-33805000D01*
X-5000000Y-35195000D02*
X-5685000Y-35195000D01*
X-5685000Y-35195000D02*
X-5685000Y-34500000D01*
X-2510000Y-38662779D02*
X-2510000Y-38337221D01*
X-1490000Y-38662779D02*
X-1490000Y-38337221D01*
X64162779Y18510000D02*
X63837221Y18510000D01*
X64162779Y17490000D02*
X63837221Y17490000D01*
X-7510000Y2162779D02*
X-7510000Y1837221D01*
X-6490000Y2162779D02*
X-6490000Y1837221D01*
X-2510000Y-1162779D02*
X-2510000Y-837221D01*
X-1490000Y-1162779D02*
X-1490000Y-837221D01*
X-3315000Y-38805000D02*
X-3315000Y-39500000D01*
X-4000000Y-38805000D02*
X-3315000Y-38805000D01*
X-4685000Y-40108276D02*
X-4685000Y-40195000D01*
X-4685000Y-38805000D02*
X-4685000Y-38891724D01*
X-4685000Y-40195000D02*
X-5560000Y-40195000D01*
X-4685000Y-38805000D02*
X-5560000Y-38805000D01*
X-5560000Y-39894493D02*
X-5560000Y-40195000D01*
X-5560000Y-38805000D02*
X-5560000Y-39105507D01*
X61195000Y6560000D02*
X60894493Y6560000D01*
X60105507Y6560000D02*
X59805000Y6560000D01*
X61195000Y5685000D02*
X61195000Y6560000D01*
X59805000Y5685000D02*
X59805000Y6560000D01*
X61195000Y5685000D02*
X61108276Y5685000D01*
X59891724Y5685000D02*
X59805000Y5685000D01*
X61195000Y5000000D02*
X61195000Y4315000D01*
X61195000Y4315000D02*
X60500000Y4315000D01*
X-3440000Y2305000D02*
X-3440000Y2605507D01*
X-3440000Y3394493D02*
X-3440000Y3695000D01*
X-4315000Y2305000D02*
X-3440000Y2305000D01*
X-4315000Y3695000D02*
X-3440000Y3695000D01*
X-4315000Y2305000D02*
X-4315000Y2391724D01*
X-4315000Y3608276D02*
X-4315000Y3695000D01*
X-5000000Y2305000D02*
X-5685000Y2305000D01*
X-5685000Y2305000D02*
X-5685000Y3000000D01*
X-5560000Y-1305000D02*
X-5560000Y-1605507D01*
X-5560000Y-2394493D02*
X-5560000Y-2695000D01*
X-4685000Y-1305000D02*
X-5560000Y-1305000D01*
X-4685000Y-2695000D02*
X-5560000Y-2695000D01*
X-4685000Y-1305000D02*
X-4685000Y-1391724D01*
X-4685000Y-2608276D02*
X-4685000Y-2695000D01*
X-4000000Y-1305000D02*
X-3315000Y-1305000D01*
X-3315000Y-1305000D02*
X-3315000Y-2000000D01*
X-49260000Y15580000D02*
X-49260000Y14650000D01*
X-49260000Y12420000D02*
X-49260000Y13350000D01*
X-49260000Y12420000D02*
X-47100000Y12420000D01*
X-49260000Y15580000D02*
X-47800000Y15580000D01*
X8500000Y51110000D02*
X7500000Y51110000D01*
X9500000Y48890000D02*
X7500000Y48890000D01*
X-7010000Y53200000D02*
X-7010000Y51400000D01*
X-3790000Y51400000D02*
X-3790000Y53850000D01*
X-42060000Y40500000D02*
X-42060000Y38550000D01*
X-42060000Y40500000D02*
X-42060000Y42450000D01*
X-31940000Y40500000D02*
X-31940000Y38550000D01*
X-31940000Y40500000D02*
X-31940000Y43950000D01*
X-4940000Y13670000D02*
X-4940000Y34110000D01*
X-4940000Y34110000D02*
X-7600000Y34110000D01*
X-7600000Y34110000D02*
X-7600000Y13670000D01*
X-7600000Y13670000D02*
X-4940000Y13670000D01*
X-7600000Y14620000D02*
X-13600000Y14620000D01*
X-13600000Y14620000D02*
X-13600000Y15380000D01*
X-13600000Y15380000D02*
X-7600000Y15380000D01*
X-7600000Y14680000D02*
X-13600000Y14680000D01*
X-7600000Y14800000D02*
X-13600000Y14800000D01*
X-7600000Y14920000D02*
X-13600000Y14920000D01*
X-7600000Y15040000D02*
X-13600000Y15040000D01*
X-7600000Y15160000D02*
X-13600000Y15160000D01*
X-7600000Y15280000D02*
X-13600000Y15280000D01*
X-4610000Y14620000D02*
X-4940000Y14620000D01*
X-4610000Y15380000D02*
X-4940000Y15380000D01*
X-4940000Y16270000D02*
X-7600000Y16270000D01*
X-7600000Y17160000D02*
X-13600000Y17160000D01*
X-13600000Y17160000D02*
X-13600000Y17920000D01*
X-13600000Y17920000D02*
X-7600000Y17920000D01*
X-4542929Y17160000D02*
X-4940000Y17160000D01*
X-4542929Y17920000D02*
X-4940000Y17920000D01*
X-4940000Y18810000D02*
X-7600000Y18810000D01*
X-7600000Y19700000D02*
X-13600000Y19700000D01*
X-13600000Y19700000D02*
X-13600000Y20460000D01*
X-13600000Y20460000D02*
X-7600000Y20460000D01*
X-4542929Y19700000D02*
X-4940000Y19700000D01*
X-4542929Y20460000D02*
X-4940000Y20460000D01*
X-4940000Y21350000D02*
X-7600000Y21350000D01*
X-7600000Y22240000D02*
X-13600000Y22240000D01*
X-13600000Y22240000D02*
X-13600000Y23000000D01*
X-13600000Y23000000D02*
X-7600000Y23000000D01*
X-4542929Y22240000D02*
X-4940000Y22240000D01*
X-4542929Y23000000D02*
X-4940000Y23000000D01*
X-4940000Y23890000D02*
X-7600000Y23890000D01*
X-7600000Y24780000D02*
X-13600000Y24780000D01*
X-13600000Y24780000D02*
X-13600000Y25540000D01*
X-13600000Y25540000D02*
X-7600000Y25540000D01*
X-4542929Y24780000D02*
X-4940000Y24780000D01*
X-4542929Y25540000D02*
X-4940000Y25540000D01*
X-4940000Y26430000D02*
X-7600000Y26430000D01*
X-7600000Y27320000D02*
X-13600000Y27320000D01*
X-13600000Y27320000D02*
X-13600000Y28080000D01*
X-13600000Y28080000D02*
X-7600000Y28080000D01*
X-4542929Y27320000D02*
X-4940000Y27320000D01*
X-4542929Y28080000D02*
X-4940000Y28080000D01*
X-4940000Y28970000D02*
X-7600000Y28970000D01*
X-7600000Y29860000D02*
X-13600000Y29860000D01*
X-13600000Y29860000D02*
X-13600000Y30620000D01*
X-13600000Y30620000D02*
X-7600000Y30620000D01*
X-4542929Y29860000D02*
X-4940000Y29860000D01*
X-4542929Y30620000D02*
X-4940000Y30620000D01*
X-4940000Y31510000D02*
X-7600000Y31510000D01*
X-7600000Y32400000D02*
X-13600000Y32400000D01*
X-13600000Y32400000D02*
X-13600000Y33160000D01*
X-13600000Y33160000D02*
X-7600000Y33160000D01*
X-4542929Y32400000D02*
X-4940000Y32400000D01*
X-4542929Y33160000D02*
X-4940000Y33160000D01*
X-2230000Y15000000D02*
X-2230000Y13730000D01*
X-2230000Y13730000D02*
X-3500000Y13730000D01*
X51250000Y-19500000D02*
X51250000Y-34000000D01*
X51250000Y-34000000D02*
X47750000Y-34000000D01*
X47750000Y-34000000D02*
X47750000Y-19500000D01*
X47750000Y-19500000D02*
X51250000Y-19500000D01*
D12*
X50900000Y-33500000D02*
G75*
G03X50900000Y-33500000I-150000J0D01*
G01*
D11*
X-5950000Y-35900000D02*
X-3775000Y-35900000D01*
X-5225000Y-38100000D02*
X-3775000Y-38100000D01*
D10*
X-42060000Y51250000D02*
X-42060000Y49300000D01*
X-42060000Y51250000D02*
X-42060000Y53200000D01*
X-31940000Y51250000D02*
X-31940000Y49300000D01*
X-31940000Y51250000D02*
X-31940000Y54700000D01*
X63805000Y48685000D02*
X64500000Y48685000D01*
X63805000Y48000000D02*
X63805000Y48685000D01*
X65108276Y47315000D02*
X65195000Y47315000D01*
X63805000Y47315000D02*
X63891724Y47315000D01*
X65195000Y47315000D02*
X65195000Y40440000D01*
X63805000Y47315000D02*
X63805000Y40440000D01*
X64894493Y40440000D02*
X65195000Y40440000D01*
X63805000Y40440000D02*
X64105507Y40440000D01*
X3055000Y39190000D02*
X3355507Y39190000D01*
X4144493Y39190000D02*
X4445000Y39190000D01*
X3055000Y46065000D02*
X3055000Y39190000D01*
X4445000Y46065000D02*
X4445000Y39190000D01*
X3055000Y46065000D02*
X3141724Y46065000D01*
X4358276Y46065000D02*
X4445000Y46065000D01*
X3055000Y46750000D02*
X3055000Y47435000D01*
X3055000Y47435000D02*
X3750000Y47435000D01*
D11*
X62952380Y-83333D02*
X62476190Y-416666D01*
X62952380Y-654761D02*
X61952380Y-654761D01*
X61952380Y-273809D01*
X62000000Y-178571D01*
X62047619Y-130952D01*
X62142857Y-83333D01*
X62285714Y-83333D01*
X62380952Y-130952D01*
X62428571Y-178571D01*
X62476190Y-273809D01*
X62476190Y-654761D01*
X62428571Y345238D02*
X62428571Y678571D01*
X62952380Y821428D02*
X62952380Y345238D01*
X61952380Y345238D01*
X61952380Y821428D01*
X62428571Y1583333D02*
X62428571Y1250000D01*
X62952380Y1250000D02*
X61952380Y1250000D01*
X61952380Y1726190D01*
X61952380Y2250000D02*
X62190476Y2250000D01*
X62095238Y2011904D02*
X62190476Y2250000D01*
X62095238Y2488095D01*
X62380952Y2107142D02*
X62190476Y2250000D01*
X62380952Y2392857D01*
X61952380Y3011904D02*
X62190476Y3011904D01*
X62095238Y2773809D02*
X62190476Y3011904D01*
X62095238Y3250000D01*
X62380952Y2869047D02*
X62190476Y3011904D01*
X62380952Y3154761D01*
X-6085714Y61071428D02*
X-5942857Y61023809D01*
X-5895238Y60976190D01*
X-5847619Y60880952D01*
X-5847619Y60738095D01*
X-5895238Y60642857D01*
X-5942857Y60595238D01*
X-6038095Y60547619D01*
X-6419047Y60547619D01*
X-6419047Y61547619D01*
X-6085714Y61547619D01*
X-5990476Y61500000D01*
X-5942857Y61452380D01*
X-5895238Y61357142D01*
X-5895238Y61261904D01*
X-5942857Y61166666D01*
X-5990476Y61119047D01*
X-6085714Y61071428D01*
X-6419047Y61071428D01*
X-5561904Y61547619D02*
X-4990476Y61547619D01*
X-5276190Y60547619D02*
X-5276190Y61547619D01*
X-4133333Y60547619D02*
X-4704761Y60547619D01*
X-4419047Y60547619D02*
X-4419047Y61547619D01*
X-4514285Y61404761D01*
X-4609523Y61309523D01*
X-4704761Y61261904D01*
X-8392857Y46083333D02*
X-8345238Y46035714D01*
X-8297619Y45892857D01*
X-8297619Y45797619D01*
X-8345238Y45654761D01*
X-8440476Y45559523D01*
X-8535714Y45511904D01*
X-8726190Y45464285D01*
X-8869047Y45464285D01*
X-9059523Y45511904D01*
X-9154761Y45559523D01*
X-9250000Y45654761D01*
X-9297619Y45797619D01*
X-9297619Y45892857D01*
X-9250000Y46035714D01*
X-9202380Y46083333D01*
X-8297619Y47035714D02*
X-8297619Y46464285D01*
X-8297619Y46750000D02*
X-9297619Y46750000D01*
X-9154761Y46654761D01*
X-9059523Y46559523D01*
X-9011904Y46464285D01*
X-9142857Y52445833D02*
X-9095238Y52398214D01*
X-9047619Y52255357D01*
X-9047619Y52160119D01*
X-9095238Y52017261D01*
X-9190476Y51922023D01*
X-9285714Y51874404D01*
X-9476190Y51826785D01*
X-9619047Y51826785D01*
X-9809523Y51874404D01*
X-9904761Y51922023D01*
X-10000000Y52017261D01*
X-10047619Y52160119D01*
X-10047619Y52255357D01*
X-10000000Y52398214D01*
X-9952380Y52445833D01*
X-9952380Y52826785D02*
X-10000000Y52874404D01*
X-10047619Y52969642D01*
X-10047619Y53207738D01*
X-10000000Y53302976D01*
X-9952380Y53350595D01*
X-9857142Y53398214D01*
X-9761904Y53398214D01*
X-9619047Y53350595D01*
X-9047619Y52779166D01*
X-9047619Y53398214D01*
X-6547619Y45511904D02*
X-7547619Y45511904D01*
X-7547619Y45750000D01*
X-7500000Y45892857D01*
X-7404761Y45988095D01*
X-7309523Y46035714D01*
X-7119047Y46083333D01*
X-6976190Y46083333D01*
X-6785714Y46035714D01*
X-6690476Y45988095D01*
X-6595238Y45892857D01*
X-6547619Y45750000D01*
X-6547619Y45511904D01*
X-6547619Y47035714D02*
X-6547619Y46464285D01*
X-6547619Y46750000D02*
X-7547619Y46750000D01*
X-7404761Y46654761D01*
X-7309523Y46559523D01*
X-7261904Y46464285D01*
X59690476Y37547619D02*
X59690476Y38547619D01*
X60023809Y37833333D01*
X60357142Y38547619D01*
X60357142Y37547619D01*
X61357142Y37547619D02*
X60785714Y37547619D01*
X61071428Y37547619D02*
X61071428Y38547619D01*
X60976190Y38404761D01*
X60880952Y38309523D01*
X60785714Y38261904D01*
X61297619Y15654761D02*
X61250000Y15559523D01*
X61154761Y15464285D01*
X61011904Y15321428D01*
X60964285Y15226190D01*
X60964285Y15130952D01*
X61202380Y15178571D02*
X61154761Y15083333D01*
X61059523Y14988095D01*
X60869047Y14940476D01*
X60535714Y14940476D01*
X60345238Y14988095D01*
X60250000Y15083333D01*
X60202380Y15178571D01*
X60202380Y15369047D01*
X60250000Y15464285D01*
X60345238Y15559523D01*
X60535714Y15607142D01*
X60869047Y15607142D01*
X61059523Y15559523D01*
X61154761Y15464285D01*
X61202380Y15369047D01*
X61202380Y15178571D01*
X61202380Y16559523D02*
X61202380Y15988095D01*
X61202380Y16273809D02*
X60202380Y16273809D01*
X60345238Y16178571D01*
X60440476Y16083333D01*
X60488095Y15988095D01*
X61297619Y-24345238D02*
X61250000Y-24440476D01*
X61154761Y-24535714D01*
X61011904Y-24678571D01*
X60964285Y-24773809D01*
X60964285Y-24869047D01*
X61202380Y-24821428D02*
X61154761Y-24916666D01*
X61059523Y-25011904D01*
X60869047Y-25059523D01*
X60535714Y-25059523D01*
X60345238Y-25011904D01*
X60250000Y-24916666D01*
X60202380Y-24821428D01*
X60202380Y-24630952D01*
X60250000Y-24535714D01*
X60345238Y-24440476D01*
X60535714Y-24392857D01*
X60869047Y-24392857D01*
X61059523Y-24440476D01*
X61154761Y-24535714D01*
X61202380Y-24630952D01*
X61202380Y-24821428D01*
X60297619Y-24011904D02*
X60250000Y-23964285D01*
X60202380Y-23869047D01*
X60202380Y-23630952D01*
X60250000Y-23535714D01*
X60297619Y-23488095D01*
X60392857Y-23440476D01*
X60488095Y-23440476D01*
X60630952Y-23488095D01*
X61202380Y-24059523D01*
X61202380Y-23440476D01*
X5547619Y-30595238D02*
X5500000Y-30690476D01*
X5404761Y-30785714D01*
X5261904Y-30928571D01*
X5214285Y-31023809D01*
X5214285Y-31119047D01*
X5452380Y-31071428D02*
X5404761Y-31166666D01*
X5309523Y-31261904D01*
X5119047Y-31309523D01*
X4785714Y-31309523D01*
X4595238Y-31261904D01*
X4500000Y-31166666D01*
X4452380Y-31071428D01*
X4452380Y-30880952D01*
X4500000Y-30785714D01*
X4595238Y-30690476D01*
X4785714Y-30642857D01*
X5119047Y-30642857D01*
X5309523Y-30690476D01*
X5404761Y-30785714D01*
X5452380Y-30880952D01*
X5452380Y-31071428D01*
X4452380Y-30309523D02*
X4452380Y-29690476D01*
X4833333Y-30023809D01*
X4833333Y-29880952D01*
X4880952Y-29785714D01*
X4928571Y-29738095D01*
X5023809Y-29690476D01*
X5261904Y-29690476D01*
X5357142Y-29738095D01*
X5404761Y-29785714D01*
X5452380Y-29880952D01*
X5452380Y-30166666D01*
X5404761Y-30261904D01*
X5357142Y-30309523D01*
X-7345238Y-1047619D02*
X-7440476Y-1000000D01*
X-7535714Y-904761D01*
X-7678571Y-761904D01*
X-7773809Y-714285D01*
X-7869047Y-714285D01*
X-7821428Y-952380D02*
X-7916666Y-904761D01*
X-8011904Y-809523D01*
X-8059523Y-619047D01*
X-8059523Y-285714D01*
X-8011904Y-95238D01*
X-7916666Y0D01*
X-7821428Y47619D01*
X-7630952Y47619D01*
X-7535714Y0D01*
X-7440476Y-95238D01*
X-7392857Y-285714D01*
X-7392857Y-619047D01*
X-7440476Y-809523D01*
X-7535714Y-904761D01*
X-7630952Y-952380D01*
X-7821428Y-952380D01*
X-6488095Y47619D02*
X-6964285Y47619D01*
X-7011904Y-428571D01*
X-6964285Y-380952D01*
X-6869047Y-333333D01*
X-6630952Y-333333D01*
X-6535714Y-380952D01*
X-6488095Y-428571D01*
X-6440476Y-523809D01*
X-6440476Y-761904D01*
X-6488095Y-857142D01*
X-6535714Y-904761D01*
X-6630952Y-952380D01*
X-6869047Y-952380D01*
X-6964285Y-904761D01*
X-7011904Y-857142D01*
X61583333Y-28702380D02*
X61250000Y-28226190D01*
X61011904Y-28702380D02*
X61011904Y-27702380D01*
X61392857Y-27702380D01*
X61488095Y-27750000D01*
X61535714Y-27797619D01*
X61583333Y-27892857D01*
X61583333Y-28035714D01*
X61535714Y-28130952D01*
X61488095Y-28178571D01*
X61392857Y-28226190D01*
X61011904Y-28226190D01*
X62535714Y-28702380D02*
X61964285Y-28702380D01*
X62250000Y-28702380D02*
X62250000Y-27702380D01*
X62154761Y-27845238D01*
X62059523Y-27940476D01*
X61964285Y-27988095D01*
X63583333Y-20452380D02*
X63250000Y-19976190D01*
X63011904Y-20452380D02*
X63011904Y-19452380D01*
X63392857Y-19452380D01*
X63488095Y-19500000D01*
X63535714Y-19547619D01*
X63583333Y-19642857D01*
X63583333Y-19785714D01*
X63535714Y-19880952D01*
X63488095Y-19928571D01*
X63392857Y-19976190D01*
X63011904Y-19976190D01*
X63964285Y-19547619D02*
X64011904Y-19500000D01*
X64107142Y-19452380D01*
X64345238Y-19452380D01*
X64440476Y-19500000D01*
X64488095Y-19547619D01*
X64535714Y-19642857D01*
X64535714Y-19738095D01*
X64488095Y-19880952D01*
X63916666Y-20452380D01*
X64535714Y-20452380D01*
X2333333Y-24952380D02*
X2000000Y-24476190D01*
X1761904Y-24952380D02*
X1761904Y-23952380D01*
X2142857Y-23952380D01*
X2238095Y-24000000D01*
X2285714Y-24047619D01*
X2333333Y-24142857D01*
X2333333Y-24285714D01*
X2285714Y-24380952D01*
X2238095Y-24428571D01*
X2142857Y-24476190D01*
X1761904Y-24476190D01*
X2666666Y-23952380D02*
X3285714Y-23952380D01*
X2952380Y-24333333D01*
X3095238Y-24333333D01*
X3190476Y-24380952D01*
X3238095Y-24428571D01*
X3285714Y-24523809D01*
X3285714Y-24761904D01*
X3238095Y-24857142D01*
X3190476Y-24904761D01*
X3095238Y-24952380D01*
X2809523Y-24952380D01*
X2714285Y-24904761D01*
X2666666Y-24857142D01*
X4952380Y49833333D02*
X4476190Y49500000D01*
X4952380Y49261904D02*
X3952380Y49261904D01*
X3952380Y49642857D01*
X4000000Y49738095D01*
X4047619Y49785714D01*
X4142857Y49833333D01*
X4285714Y49833333D01*
X4380952Y49785714D01*
X4428571Y49738095D01*
X4476190Y49642857D01*
X4476190Y49261904D01*
X4285714Y50690476D02*
X4952380Y50690476D01*
X3904761Y50452380D02*
X4619047Y50214285D01*
X4619047Y50833333D01*
X7583333Y46047619D02*
X7250000Y46523809D01*
X7011904Y46047619D02*
X7011904Y47047619D01*
X7392857Y47047619D01*
X7488095Y47000000D01*
X7535714Y46952380D01*
X7583333Y46857142D01*
X7583333Y46714285D01*
X7535714Y46619047D01*
X7488095Y46571428D01*
X7392857Y46523809D01*
X7011904Y46523809D01*
X8488095Y47047619D02*
X8011904Y47047619D01*
X7964285Y46571428D01*
X8011904Y46619047D01*
X8107142Y46666666D01*
X8345238Y46666666D01*
X8440476Y46619047D01*
X8488095Y46571428D01*
X8535714Y46476190D01*
X8535714Y46238095D01*
X8488095Y46142857D01*
X8440476Y46095238D01*
X8345238Y46047619D01*
X8107142Y46047619D01*
X8011904Y46095238D01*
X7964285Y46142857D01*
X-5047619Y46083333D02*
X-5523809Y45750000D01*
X-5047619Y45511904D02*
X-6047619Y45511904D01*
X-6047619Y45892857D01*
X-6000000Y45988095D01*
X-5952380Y46035714D01*
X-5857142Y46083333D01*
X-5714285Y46083333D01*
X-5619047Y46035714D01*
X-5571428Y45988095D01*
X-5523809Y45892857D01*
X-5523809Y45511904D01*
X-6047619Y46940476D02*
X-6047619Y46750000D01*
X-6000000Y46654761D01*
X-5952380Y46607142D01*
X-5809523Y46511904D01*
X-5619047Y46464285D01*
X-5238095Y46464285D01*
X-5142857Y46511904D01*
X-5095238Y46559523D01*
X-5047619Y46654761D01*
X-5047619Y46845238D01*
X-5095238Y46940476D01*
X-5142857Y46988095D01*
X-5238095Y47035714D01*
X-5476190Y47035714D01*
X-5571428Y46988095D01*
X-5619047Y46940476D01*
X-5666666Y46845238D01*
X-5666666Y46654761D01*
X-5619047Y46559523D01*
X-5571428Y46511904D01*
X-5476190Y46464285D01*
X-2916666Y49047619D02*
X-3250000Y49523809D01*
X-3488095Y49047619D02*
X-3488095Y50047619D01*
X-3107142Y50047619D01*
X-3011904Y50000000D01*
X-2964285Y49952380D01*
X-2916666Y49857142D01*
X-2916666Y49714285D01*
X-2964285Y49619047D01*
X-3011904Y49571428D01*
X-3107142Y49523809D01*
X-3488095Y49523809D01*
X-2583333Y50047619D02*
X-1916666Y50047619D01*
X-2345238Y49047619D01*
X61333333Y11047619D02*
X61000000Y11523809D01*
X60761904Y11047619D02*
X60761904Y12047619D01*
X61142857Y12047619D01*
X61238095Y12000000D01*
X61285714Y11952380D01*
X61333333Y11857142D01*
X61333333Y11714285D01*
X61285714Y11619047D01*
X61238095Y11571428D01*
X61142857Y11523809D01*
X60761904Y11523809D01*
X61904761Y11619047D02*
X61809523Y11666666D01*
X61761904Y11714285D01*
X61714285Y11809523D01*
X61714285Y11857142D01*
X61761904Y11952380D01*
X61809523Y12000000D01*
X61904761Y12047619D01*
X62095238Y12047619D01*
X62190476Y12000000D01*
X62238095Y11952380D01*
X62285714Y11857142D01*
X62285714Y11809523D01*
X62238095Y11714285D01*
X62190476Y11666666D01*
X62095238Y11619047D01*
X61904761Y11619047D01*
X61809523Y11571428D01*
X61761904Y11523809D01*
X61714285Y11428571D01*
X61714285Y11238095D01*
X61761904Y11142857D01*
X61809523Y11095238D01*
X61904761Y11047619D01*
X62095238Y11047619D01*
X62190476Y11095238D01*
X62238095Y11142857D01*
X62285714Y11238095D01*
X62285714Y11428571D01*
X62238095Y11523809D01*
X62190476Y11571428D01*
X62095238Y11619047D01*
X2333333Y-37202380D02*
X2000000Y-36726190D01*
X1761904Y-37202380D02*
X1761904Y-36202380D01*
X2142857Y-36202380D01*
X2238095Y-36250000D01*
X2285714Y-36297619D01*
X2333333Y-36392857D01*
X2333333Y-36535714D01*
X2285714Y-36630952D01*
X2238095Y-36678571D01*
X2142857Y-36726190D01*
X1761904Y-36726190D01*
X2809523Y-37202380D02*
X3000000Y-37202380D01*
X3095238Y-37154761D01*
X3142857Y-37107142D01*
X3238095Y-36964285D01*
X3285714Y-36773809D01*
X3285714Y-36392857D01*
X3238095Y-36297619D01*
X3190476Y-36250000D01*
X3095238Y-36202380D01*
X2904761Y-36202380D01*
X2809523Y-36250000D01*
X2761904Y-36297619D01*
X2714285Y-36392857D01*
X2714285Y-36630952D01*
X2761904Y-36726190D01*
X2809523Y-36773809D01*
X2904761Y-36821428D01*
X3095238Y-36821428D01*
X3190476Y-36773809D01*
X3238095Y-36726190D01*
X3285714Y-36630952D01*
X-8047619Y-36142857D02*
X-8523809Y-36476190D01*
X-8047619Y-36714285D02*
X-9047619Y-36714285D01*
X-9047619Y-36333333D01*
X-9000000Y-36238095D01*
X-8952380Y-36190476D01*
X-8857142Y-36142857D01*
X-8714285Y-36142857D01*
X-8619047Y-36190476D01*
X-8571428Y-36238095D01*
X-8523809Y-36333333D01*
X-8523809Y-36714285D01*
X-8047619Y-35190476D02*
X-8047619Y-35761904D01*
X-8047619Y-35476190D02*
X-9047619Y-35476190D01*
X-8904761Y-35571428D01*
X-8809523Y-35666666D01*
X-8761904Y-35761904D01*
X-9047619Y-34571428D02*
X-9047619Y-34476190D01*
X-9000000Y-34380952D01*
X-8952380Y-34333333D01*
X-8857142Y-34285714D01*
X-8666666Y-34238095D01*
X-8428571Y-34238095D01*
X-8238095Y-34285714D01*
X-8142857Y-34333333D01*
X-8095238Y-34380952D01*
X-8047619Y-34476190D01*
X-8047619Y-34571428D01*
X-8095238Y-34666666D01*
X-8142857Y-34714285D01*
X-8238095Y-34761904D01*
X-8428571Y-34809523D01*
X-8666666Y-34809523D01*
X-8857142Y-34761904D01*
X-8952380Y-34714285D01*
X-9000000Y-34666666D01*
X-9047619Y-34571428D01*
X59857142Y-17452380D02*
X59523809Y-16976190D01*
X59285714Y-17452380D02*
X59285714Y-16452380D01*
X59666666Y-16452380D01*
X59761904Y-16500000D01*
X59809523Y-16547619D01*
X59857142Y-16642857D01*
X59857142Y-16785714D01*
X59809523Y-16880952D01*
X59761904Y-16928571D01*
X59666666Y-16976190D01*
X59285714Y-16976190D01*
X60809523Y-17452380D02*
X60238095Y-17452380D01*
X60523809Y-17452380D02*
X60523809Y-16452380D01*
X60428571Y-16595238D01*
X60333333Y-16690476D01*
X60238095Y-16738095D01*
X61761904Y-17452380D02*
X61190476Y-17452380D01*
X61476190Y-17452380D02*
X61476190Y-16452380D01*
X61380952Y-16595238D01*
X61285714Y-16690476D01*
X61190476Y-16738095D01*
X59857142Y-37452380D02*
X59523809Y-36976190D01*
X59285714Y-37452380D02*
X59285714Y-36452380D01*
X59666666Y-36452380D01*
X59761904Y-36500000D01*
X59809523Y-36547619D01*
X59857142Y-36642857D01*
X59857142Y-36785714D01*
X59809523Y-36880952D01*
X59761904Y-36928571D01*
X59666666Y-36976190D01*
X59285714Y-36976190D01*
X60809523Y-37452380D02*
X60238095Y-37452380D01*
X60523809Y-37452380D02*
X60523809Y-36452380D01*
X60428571Y-36595238D01*
X60333333Y-36690476D01*
X60238095Y-36738095D01*
X61190476Y-36547619D02*
X61238095Y-36500000D01*
X61333333Y-36452380D01*
X61571428Y-36452380D01*
X61666666Y-36500000D01*
X61714285Y-36547619D01*
X61761904Y-36642857D01*
X61761904Y-36738095D01*
X61714285Y-36880952D01*
X61142857Y-37452380D01*
X61761904Y-37452380D01*
X59857142Y22797619D02*
X59523809Y23273809D01*
X59285714Y22797619D02*
X59285714Y23797619D01*
X59666666Y23797619D01*
X59761904Y23750000D01*
X59809523Y23702380D01*
X59857142Y23607142D01*
X59857142Y23464285D01*
X59809523Y23369047D01*
X59761904Y23321428D01*
X59666666Y23273809D01*
X59285714Y23273809D01*
X60809523Y22797619D02*
X60238095Y22797619D01*
X60523809Y22797619D02*
X60523809Y23797619D01*
X60428571Y23654761D01*
X60333333Y23559523D01*
X60238095Y23511904D01*
X61142857Y23797619D02*
X61761904Y23797619D01*
X61428571Y23416666D01*
X61571428Y23416666D01*
X61666666Y23369047D01*
X61714285Y23321428D01*
X61761904Y23226190D01*
X61761904Y22988095D01*
X61714285Y22892857D01*
X61666666Y22845238D01*
X61571428Y22797619D01*
X61285714Y22797619D01*
X61190476Y22845238D01*
X61142857Y22892857D01*
X13107142Y31297619D02*
X12773809Y31773809D01*
X12535714Y31297619D02*
X12535714Y32297619D01*
X12916666Y32297619D01*
X13011904Y32250000D01*
X13059523Y32202380D01*
X13107142Y32107142D01*
X13107142Y31964285D01*
X13059523Y31869047D01*
X13011904Y31821428D01*
X12916666Y31773809D01*
X12535714Y31773809D01*
X14059523Y31297619D02*
X13488095Y31297619D01*
X13773809Y31297619D02*
X13773809Y32297619D01*
X13678571Y32154761D01*
X13583333Y32059523D01*
X13488095Y32011904D01*
X14916666Y31964285D02*
X14916666Y31297619D01*
X14678571Y32345238D02*
X14440476Y31630952D01*
X15059523Y31630952D01*
X12202380Y-40142857D02*
X11726190Y-40476190D01*
X12202380Y-40714285D02*
X11202380Y-40714285D01*
X11202380Y-40333333D01*
X11250000Y-40238095D01*
X11297619Y-40190476D01*
X11392857Y-40142857D01*
X11535714Y-40142857D01*
X11630952Y-40190476D01*
X11678571Y-40238095D01*
X11726190Y-40333333D01*
X11726190Y-40714285D01*
X12202380Y-39190476D02*
X12202380Y-39761904D01*
X12202380Y-39476190D02*
X11202380Y-39476190D01*
X11345238Y-39571428D01*
X11440476Y-39666666D01*
X11488095Y-39761904D01*
X11202380Y-38285714D02*
X11202380Y-38761904D01*
X11678571Y-38809523D01*
X11630952Y-38761904D01*
X11583333Y-38666666D01*
X11583333Y-38428571D01*
X11630952Y-38333333D01*
X11678571Y-38285714D01*
X11773809Y-38238095D01*
X12011904Y-38238095D01*
X12107142Y-38285714D01*
X12154761Y-38333333D01*
X12202380Y-38428571D01*
X12202380Y-38666666D01*
X12154761Y-38761904D01*
X12107142Y-38809523D01*
X-5142857Y-32952380D02*
X-5476190Y-32476190D01*
X-5714285Y-32952380D02*
X-5714285Y-31952380D01*
X-5333333Y-31952380D01*
X-5238095Y-32000000D01*
X-5190476Y-32047619D01*
X-5142857Y-32142857D01*
X-5142857Y-32285714D01*
X-5190476Y-32380952D01*
X-5238095Y-32428571D01*
X-5333333Y-32476190D01*
X-5714285Y-32476190D01*
X-4190476Y-32952380D02*
X-4761904Y-32952380D01*
X-4476190Y-32952380D02*
X-4476190Y-31952380D01*
X-4571428Y-32095238D01*
X-4666666Y-32190476D01*
X-4761904Y-32238095D01*
X-3333333Y-31952380D02*
X-3523809Y-31952380D01*
X-3619047Y-32000000D01*
X-3666666Y-32047619D01*
X-3761904Y-32190476D01*
X-3809523Y-32380952D01*
X-3809523Y-32761904D01*
X-3761904Y-32857142D01*
X-3714285Y-32904761D01*
X-3619047Y-32952380D01*
X-3428571Y-32952380D01*
X-3333333Y-32904761D01*
X-3285714Y-32857142D01*
X-3238095Y-32761904D01*
X-3238095Y-32523809D01*
X-3285714Y-32428571D01*
X-3333333Y-32380952D01*
X-3428571Y-32333333D01*
X-3619047Y-32333333D01*
X-3714285Y-32380952D01*
X-3761904Y-32428571D01*
X-3809523Y-32523809D01*
X-1547619Y-36142857D02*
X-2023809Y-36476190D01*
X-1547619Y-36714285D02*
X-2547619Y-36714285D01*
X-2547619Y-36333333D01*
X-2500000Y-36238095D01*
X-2452380Y-36190476D01*
X-2357142Y-36142857D01*
X-2214285Y-36142857D01*
X-2119047Y-36190476D01*
X-2071428Y-36238095D01*
X-2023809Y-36333333D01*
X-2023809Y-36714285D01*
X-1547619Y-35190476D02*
X-1547619Y-35761904D01*
X-1547619Y-35476190D02*
X-2547619Y-35476190D01*
X-2404761Y-35571428D01*
X-2309523Y-35666666D01*
X-2261904Y-35761904D01*
X-2547619Y-34857142D02*
X-2547619Y-34190476D01*
X-1547619Y-34619047D01*
X63357142Y19297619D02*
X63023809Y19773809D01*
X62785714Y19297619D02*
X62785714Y20297619D01*
X63166666Y20297619D01*
X63261904Y20250000D01*
X63309523Y20202380D01*
X63357142Y20107142D01*
X63357142Y19964285D01*
X63309523Y19869047D01*
X63261904Y19821428D01*
X63166666Y19773809D01*
X62785714Y19773809D01*
X64309523Y19297619D02*
X63738095Y19297619D01*
X64023809Y19297619D02*
X64023809Y20297619D01*
X63928571Y20154761D01*
X63833333Y20059523D01*
X63738095Y20011904D01*
X64880952Y19869047D02*
X64785714Y19916666D01*
X64738095Y19964285D01*
X64690476Y20059523D01*
X64690476Y20107142D01*
X64738095Y20202380D01*
X64785714Y20250000D01*
X64880952Y20297619D01*
X65071428Y20297619D01*
X65166666Y20250000D01*
X65214285Y20202380D01*
X65261904Y20107142D01*
X65261904Y20059523D01*
X65214285Y19964285D01*
X65166666Y19916666D01*
X65071428Y19869047D01*
X64880952Y19869047D01*
X64785714Y19821428D01*
X64738095Y19773809D01*
X64690476Y19678571D01*
X64690476Y19488095D01*
X64738095Y19392857D01*
X64785714Y19345238D01*
X64880952Y19297619D01*
X65071428Y19297619D01*
X65166666Y19345238D01*
X65214285Y19392857D01*
X65261904Y19488095D01*
X65261904Y19678571D01*
X65214285Y19773809D01*
X65166666Y19821428D01*
X65071428Y19869047D01*
X-8047619Y1357142D02*
X-8523809Y1023809D01*
X-8047619Y785714D02*
X-9047619Y785714D01*
X-9047619Y1166666D01*
X-9000000Y1261904D01*
X-8952380Y1309523D01*
X-8857142Y1357142D01*
X-8714285Y1357142D01*
X-8619047Y1309523D01*
X-8571428Y1261904D01*
X-8523809Y1166666D01*
X-8523809Y785714D01*
X-8047619Y2309523D02*
X-8047619Y1738095D01*
X-8047619Y2023809D02*
X-9047619Y2023809D01*
X-8904761Y1928571D01*
X-8809523Y1833333D01*
X-8761904Y1738095D01*
X-8047619Y2785714D02*
X-8047619Y2976190D01*
X-8095238Y3071428D01*
X-8142857Y3119047D01*
X-8285714Y3214285D01*
X-8476190Y3261904D01*
X-8857142Y3261904D01*
X-8952380Y3214285D01*
X-9000000Y3166666D01*
X-9047619Y3071428D01*
X-9047619Y2880952D01*
X-9000000Y2785714D01*
X-8952380Y2738095D01*
X-8857142Y2690476D01*
X-8619047Y2690476D01*
X-8523809Y2738095D01*
X-8476190Y2785714D01*
X-8428571Y2880952D01*
X-8428571Y3071428D01*
X-8476190Y3166666D01*
X-8523809Y3214285D01*
X-8619047Y3261904D01*
X-1547619Y-5642857D02*
X-2023809Y-5976190D01*
X-1547619Y-6214285D02*
X-2547619Y-6214285D01*
X-2547619Y-5833333D01*
X-2500000Y-5738095D01*
X-2452380Y-5690476D01*
X-2357142Y-5642857D01*
X-2214285Y-5642857D01*
X-2119047Y-5690476D01*
X-2071428Y-5738095D01*
X-2023809Y-5833333D01*
X-2023809Y-6214285D01*
X-2452380Y-5261904D02*
X-2500000Y-5214285D01*
X-2547619Y-5119047D01*
X-2547619Y-4880952D01*
X-2500000Y-4785714D01*
X-2452380Y-4738095D01*
X-2357142Y-4690476D01*
X-2261904Y-4690476D01*
X-2119047Y-4738095D01*
X-1547619Y-5309523D01*
X-1547619Y-4690476D01*
X-2547619Y-4071428D02*
X-2547619Y-3976190D01*
X-2500000Y-3880952D01*
X-2452380Y-3833333D01*
X-2357142Y-3785714D01*
X-2166666Y-3738095D01*
X-1928571Y-3738095D01*
X-1738095Y-3785714D01*
X-1642857Y-3833333D01*
X-1595238Y-3880952D01*
X-1547619Y-3976190D01*
X-1547619Y-4071428D01*
X-1595238Y-4166666D01*
X-1642857Y-4214285D01*
X-1738095Y-4261904D01*
X-1928571Y-4309523D01*
X-2166666Y-4309523D01*
X-2357142Y-4261904D01*
X-2452380Y-4214285D01*
X-2500000Y-4166666D01*
X-2547619Y-4071428D01*
X-4892857Y-41952380D02*
X-5226190Y-41476190D01*
X-5464285Y-41952380D02*
X-5464285Y-40952380D01*
X-5083333Y-40952380D01*
X-4988095Y-41000000D01*
X-4940476Y-41047619D01*
X-4892857Y-41142857D01*
X-4892857Y-41285714D01*
X-4940476Y-41380952D01*
X-4988095Y-41428571D01*
X-5083333Y-41476190D01*
X-5464285Y-41476190D01*
X-4511904Y-41047619D02*
X-4464285Y-41000000D01*
X-4369047Y-40952380D01*
X-4130952Y-40952380D01*
X-4035714Y-41000000D01*
X-3988095Y-41047619D01*
X-3940476Y-41142857D01*
X-3940476Y-41238095D01*
X-3988095Y-41380952D01*
X-4559523Y-41952380D01*
X-3940476Y-41952380D01*
X-2988095Y-41952380D02*
X-3559523Y-41952380D01*
X-3273809Y-41952380D02*
X-3273809Y-40952380D01*
X-3369047Y-41095238D01*
X-3464285Y-41190476D01*
X-3559523Y-41238095D01*
X59857142Y2547619D02*
X59523809Y3023809D01*
X59285714Y2547619D02*
X59285714Y3547619D01*
X59666666Y3547619D01*
X59761904Y3500000D01*
X59809523Y3452380D01*
X59857142Y3357142D01*
X59857142Y3214285D01*
X59809523Y3119047D01*
X59761904Y3071428D01*
X59666666Y3023809D01*
X59285714Y3023809D01*
X60238095Y3452380D02*
X60285714Y3500000D01*
X60380952Y3547619D01*
X60619047Y3547619D01*
X60714285Y3500000D01*
X60761904Y3452380D01*
X60809523Y3357142D01*
X60809523Y3261904D01*
X60761904Y3119047D01*
X60190476Y2547619D01*
X60809523Y2547619D01*
X61190476Y3452380D02*
X61238095Y3500000D01*
X61333333Y3547619D01*
X61571428Y3547619D01*
X61666666Y3500000D01*
X61714285Y3452380D01*
X61761904Y3357142D01*
X61761904Y3261904D01*
X61714285Y3119047D01*
X61142857Y2547619D01*
X61761904Y2547619D01*
X-5142857Y4547619D02*
X-5476190Y5023809D01*
X-5714285Y4547619D02*
X-5714285Y5547619D01*
X-5333333Y5547619D01*
X-5238095Y5500000D01*
X-5190476Y5452380D01*
X-5142857Y5357142D01*
X-5142857Y5214285D01*
X-5190476Y5119047D01*
X-5238095Y5071428D01*
X-5333333Y5023809D01*
X-5714285Y5023809D01*
X-4761904Y5452380D02*
X-4714285Y5500000D01*
X-4619047Y5547619D01*
X-4380952Y5547619D01*
X-4285714Y5500000D01*
X-4238095Y5452380D01*
X-4190476Y5357142D01*
X-4190476Y5261904D01*
X-4238095Y5119047D01*
X-4809523Y4547619D01*
X-4190476Y4547619D01*
X-3857142Y5547619D02*
X-3238095Y5547619D01*
X-3571428Y5166666D01*
X-3428571Y5166666D01*
X-3333333Y5119047D01*
X-3285714Y5071428D01*
X-3238095Y4976190D01*
X-3238095Y4738095D01*
X-3285714Y4642857D01*
X-3333333Y4595238D01*
X-3428571Y4547619D01*
X-3714285Y4547619D01*
X-3809523Y4595238D01*
X-3857142Y4642857D01*
X-5142857Y-4452380D02*
X-5476190Y-3976190D01*
X-5714285Y-4452380D02*
X-5714285Y-3452380D01*
X-5333333Y-3452380D01*
X-5238095Y-3500000D01*
X-5190476Y-3547619D01*
X-5142857Y-3642857D01*
X-5142857Y-3785714D01*
X-5190476Y-3880952D01*
X-5238095Y-3928571D01*
X-5333333Y-3976190D01*
X-5714285Y-3976190D01*
X-4761904Y-3547619D02*
X-4714285Y-3500000D01*
X-4619047Y-3452380D01*
X-4380952Y-3452380D01*
X-4285714Y-3500000D01*
X-4238095Y-3547619D01*
X-4190476Y-3642857D01*
X-4190476Y-3738095D01*
X-4238095Y-3880952D01*
X-4809523Y-4452380D01*
X-4190476Y-4452380D01*
X-3333333Y-3785714D02*
X-3333333Y-4452380D01*
X-3571428Y-3404761D02*
X-3809523Y-4119047D01*
X-3190476Y-4119047D01*
X-49261904Y12047619D02*
X-49261904Y11238095D01*
X-49214285Y11142857D01*
X-49166666Y11095238D01*
X-49071428Y11047619D01*
X-48880952Y11047619D01*
X-48785714Y11095238D01*
X-48738095Y11142857D01*
X-48690476Y11238095D01*
X-48690476Y12047619D01*
X-47690476Y11047619D02*
X-48261904Y11047619D01*
X-47976190Y11047619D02*
X-47976190Y12047619D01*
X-48071428Y11904761D01*
X-48166666Y11809523D01*
X-48261904Y11761904D01*
X8988095Y52547619D02*
X8988095Y51738095D01*
X9035714Y51642857D01*
X9083333Y51595238D01*
X9178571Y51547619D01*
X9369047Y51547619D01*
X9464285Y51595238D01*
X9511904Y51642857D01*
X9559523Y51738095D01*
X9559523Y52547619D01*
X9988095Y52452380D02*
X10035714Y52500000D01*
X10130952Y52547619D01*
X10369047Y52547619D01*
X10464285Y52500000D01*
X10511904Y52452380D01*
X10559523Y52357142D01*
X10559523Y52261904D01*
X10511904Y52119047D01*
X9940476Y51547619D01*
X10559523Y51547619D01*
X-3261904Y54547619D02*
X-3261904Y53738095D01*
X-3214285Y53642857D01*
X-3166666Y53595238D01*
X-3071428Y53547619D01*
X-2880952Y53547619D01*
X-2785714Y53595238D01*
X-2738095Y53642857D01*
X-2690476Y53738095D01*
X-2690476Y54547619D01*
X-2309523Y54547619D02*
X-1690476Y54547619D01*
X-2023809Y54166666D01*
X-1880952Y54166666D01*
X-1785714Y54119047D01*
X-1738095Y54071428D01*
X-1690476Y53976190D01*
X-1690476Y53738095D01*
X-1738095Y53642857D01*
X-1785714Y53595238D01*
X-1880952Y53547619D01*
X-2166666Y53547619D01*
X-2261904Y53595238D01*
X-2309523Y53642857D01*
X-31647619Y39738095D02*
X-30838095Y39738095D01*
X-30742857Y39785714D01*
X-30695238Y39833333D01*
X-30647619Y39928571D01*
X-30647619Y40119047D01*
X-30695238Y40214285D01*
X-30742857Y40261904D01*
X-30838095Y40309523D01*
X-31647619Y40309523D01*
X-31314285Y41214285D02*
X-30647619Y41214285D01*
X-31695238Y40976190D02*
X-30980952Y40738095D01*
X-30980952Y41357142D01*
X-8218333Y13047619D02*
X-8218333Y12333333D01*
X-8265952Y12190476D01*
X-8361190Y12095238D01*
X-8504047Y12047619D01*
X-8599285Y12047619D01*
X-7789761Y12952380D02*
X-7742142Y13000000D01*
X-7646904Y13047619D01*
X-7408809Y13047619D01*
X-7313571Y13000000D01*
X-7265952Y12952380D01*
X-7218333Y12857142D01*
X-7218333Y12761904D01*
X-7265952Y12619047D01*
X-7837380Y12047619D01*
X-7218333Y12047619D01*
X45702380Y-27083333D02*
X46416666Y-27083333D01*
X46559523Y-27130952D01*
X46654761Y-27226190D01*
X46702380Y-27369047D01*
X46702380Y-27464285D01*
X46702380Y-26083333D02*
X46702380Y-26654761D01*
X46702380Y-26369047D02*
X45702380Y-26369047D01*
X45845238Y-26464285D01*
X45940476Y-26559523D01*
X45988095Y-26654761D01*
X-6452380Y-38095238D02*
X-6500000Y-38190476D01*
X-6595238Y-38285714D01*
X-6738095Y-38428571D01*
X-6785714Y-38523809D01*
X-6785714Y-38619047D01*
X-6547619Y-38571428D02*
X-6595238Y-38666666D01*
X-6690476Y-38761904D01*
X-6880952Y-38809523D01*
X-7214285Y-38809523D01*
X-7404761Y-38761904D01*
X-7500000Y-38666666D01*
X-7547619Y-38571428D01*
X-7547619Y-38380952D01*
X-7500000Y-38285714D01*
X-7404761Y-38190476D01*
X-7214285Y-38142857D01*
X-6880952Y-38142857D01*
X-6690476Y-38190476D01*
X-6595238Y-38285714D01*
X-6547619Y-38380952D01*
X-6547619Y-38571428D01*
X-7214285Y-37285714D02*
X-6547619Y-37285714D01*
X-7595238Y-37523809D02*
X-6880952Y-37761904D01*
X-6880952Y-37142857D01*
X-31647619Y50488095D02*
X-30838095Y50488095D01*
X-30742857Y50535714D01*
X-30695238Y50583333D01*
X-30647619Y50678571D01*
X-30647619Y50869047D01*
X-30695238Y50964285D01*
X-30742857Y51011904D01*
X-30838095Y51059523D01*
X-31647619Y51059523D01*
X-31647619Y52011904D02*
X-31647619Y51535714D01*
X-31171428Y51488095D01*
X-31219047Y51535714D01*
X-31266666Y51630952D01*
X-31266666Y51869047D01*
X-31219047Y51964285D01*
X-31171428Y52011904D01*
X-31076190Y52059523D01*
X-30838095Y52059523D01*
X-30742857Y52011904D01*
X-30695238Y51964285D01*
X-30647619Y51869047D01*
X-30647619Y51630952D01*
X-30695238Y51535714D01*
X-30742857Y51488095D01*
X62452380Y47166666D02*
X63166666Y47166666D01*
X63309523Y47119047D01*
X63404761Y47023809D01*
X63452380Y46880952D01*
X63452380Y46785714D01*
X62452380Y47547619D02*
X62452380Y48166666D01*
X62833333Y47833333D01*
X62833333Y47976190D01*
X62880952Y48071428D01*
X62928571Y48119047D01*
X63023809Y48166666D01*
X63261904Y48166666D01*
X63357142Y48119047D01*
X63404761Y48071428D01*
X63452380Y47976190D01*
X63452380Y47690476D01*
X63404761Y47595238D01*
X63357142Y47547619D01*
X2166666Y49047619D02*
X2166666Y48333333D01*
X2119047Y48190476D01*
X2023809Y48095238D01*
X1880952Y48047619D01*
X1785714Y48047619D01*
X3071428Y48714285D02*
X3071428Y48047619D01*
X2833333Y49095238D02*
X2595238Y48380952D01*
X3214285Y48380952D01*
M02*
