G04 #@! TF.GenerationSoftware,KiCad,Pcbnew,(5.1.2)-2*
G04 #@! TF.CreationDate,2019-07-18T11:18:45-04:00*
G04 #@! TF.ProjectId,Burt,42757274-2e6b-4696-9361-645f70636258,rev?*
G04 #@! TF.SameCoordinates,Original*
G04 #@! TF.FileFunction,Profile,NP*
%FSLAX46Y46*%
G04 Gerber Fmt 4.6, Leading zero omitted, Abs format (unit mm)*
G04 Created by KiCad (PCBNEW (5.1.2)-2) date 2019-07-18 11:18:45*
%MOMM*%
%LPD*%
G04 APERTURE LIST*
%ADD10C,0.200000*%
G04 APERTURE END LIST*
D10*
X65449999Y35138726D02*
X68249999Y35138726D01*
X68249999Y-40925000D02*
X68249999Y35138726D01*
X57250000Y-40925000D02*
X68249999Y-40925000D01*
X57250001Y35338726D02*
X57250000Y-40925000D01*
X57526816Y36371815D02*
X57250001Y35338726D01*
X57526816Y36371815D02*
X57526816Y48798184D01*
X57526816Y48798184D02*
X67973184Y48798184D01*
X67973184Y48798184D02*
X67973184Y37038726D01*
X67973184Y37038726D02*
X65449999Y37038726D01*
X65449999Y37038726D02*
X65449999Y35138726D01*
X63500000Y-34425000D02*
G75*
G03X63500000Y-34425000I-750000J0D01*
G01*
X63500000Y-14425000D02*
G75*
G03X63500000Y-14425000I-750000J0D01*
G01*
X63500000Y5574999D02*
G75*
G03X63500000Y5574999I-750000J0D01*
G01*
X63500000Y25575000D02*
G75*
G03X63500000Y25575000I-750000J0D01*
G01*
X63500001Y-31424999D02*
G75*
G03X63500001Y-31424999I-750000J0D01*
G01*
X63500000Y-11425000D02*
G75*
G03X63500000Y-11425000I-750000J0D01*
G01*
X63500000Y8574999D02*
G75*
G03X63500000Y8574999I-750000J0D01*
G01*
X63500000Y28575000D02*
G75*
G03X63500000Y28575000I-750000J0D01*
G01*
X59227074Y-29425000D02*
G75*
G03X59227074Y-29425000I-750000J0D01*
G01*
X59008180Y30074999D02*
G75*
G03X59008180Y30074999I-750000J0D01*
G01*
X67991820Y30074999D02*
G75*
G03X67991820Y30074999I-750000J0D01*
G01*
X67772926Y-29425000D02*
G75*
G03X67772926Y-29425000I-750000J0D01*
G01*
X16193750Y-40925000D02*
G75*
G03X16193750Y-40925000I-500000J0D01*
G01*
X16193750Y-37924999D02*
G75*
G03X16193750Y-37924999I-500000J0D01*
G01*
X16193750Y29325000D02*
G75*
G03X16193750Y29325000I-500000J0D01*
G01*
X16193750Y32325000D02*
G75*
G03X16193750Y32325000I-500000J0D01*
G01*
X50764000Y20575000D02*
G75*
G03X50764000Y20575000I-889000J0D01*
G01*
X54851500Y20500000D02*
G75*
G03X54851500Y20500000I-889000J0D01*
G01*
X4182750Y11575000D02*
G75*
G03X4182750Y11575000I-889000J0D01*
G01*
X0Y9564731D02*
G75*
G03X0Y9564731I-793749J0D01*
G01*
X4182750Y-43425000D02*
G75*
G03X4182750Y-43425000I-889000J0D01*
G01*
X-53073499Y20500000D02*
G75*
G03X-53073499Y20500000I-889001J0D01*
G01*
X-52660999Y47100000D02*
G75*
G03X-52660999Y47100000I-889001J0D01*
G01*
X-43886000Y48425000D02*
G75*
G03X-43886000Y48425000I-889000J0D01*
G01*
X54439000Y47100000D02*
G75*
G03X54439000Y47100000I-889000J0D01*
G01*
X45664000Y50925000D02*
G75*
G03X45664000Y50925000I-889000J0D01*
G01*
X42439000Y63100000D02*
G75*
G03X42439000Y63100000I-889000J0D01*
G01*
X18682750Y59425000D02*
G75*
G03X18682750Y59425000I-889000J0D01*
G01*
X889000Y63512500D02*
G75*
G03X889000Y63512500I-889000J0D01*
G01*
X-40660999Y63100000D02*
G75*
G03X-40660999Y63100000I-889001J0D01*
G01*
X50764000Y-11425000D02*
G75*
G03X50764000Y-11425000I-889000J0D01*
G01*
X50764000Y-43425000D02*
G75*
G03X50764000Y-43425000I-889000J0D01*
G01*
X54439000Y-47100000D02*
G75*
G03X54439000Y-47100000I-889000J0D01*
G01*
X888999Y-47512500D02*
G75*
G03X888999Y-47512500I-888999J0D01*
G01*
X-52660999Y-47100000D02*
G75*
G03X-52660999Y-47100000I-889001J0D01*
G01*
X-17881250Y65100000D02*
X-17881250Y61925000D01*
X-17881250Y65100000D02*
X-43550000Y65100000D01*
X-43550000Y56203125D02*
X-43550000Y65100000D01*
X-43550001Y56203124D02*
G75*
G02X-43946875Y55806250I-396874J0D01*
G01*
X-50450000Y55806250D02*
X-43946875Y55806250D01*
X-50450000Y49893750D02*
X-50450000Y55806250D01*
X-50450000Y49893749D02*
G75*
G02X-51243750Y49099999I-793750J0D01*
G01*
X-55550000Y49100000D02*
X-51243750Y49100000D01*
X-55550000Y49100000D02*
X-55550000Y18575000D01*
X-52375000Y18575000D02*
X-55550000Y18575000D01*
X-52375000Y18575000D02*
X-52375000Y7575000D01*
X-52375000Y7575000D02*
X-55550000Y7575000D01*
X-55550000Y7575000D02*
X-55550000Y-49099999D01*
X-55550000Y-49099999D02*
X6881250Y-49100000D01*
X6881250Y-49100000D02*
X6881250Y-45924999D01*
X6881250Y-45924999D02*
X17881250Y-45924999D01*
X17881250Y-49100000D02*
X17881250Y-45924999D01*
X17881250Y-49100000D02*
X55550000Y-49099999D01*
X55550000Y-49099999D02*
X55550000Y7575000D01*
X55550000Y7575000D02*
X52375000Y7575000D01*
X52375000Y18575000D02*
X52375000Y7575000D01*
X55550000Y18575000D02*
X52375000Y18575000D01*
X55550000Y18575000D02*
X55550000Y49099999D01*
X51243750Y49099999D02*
X55550000Y49099999D01*
X51243750Y49100000D02*
G75*
G02X50450000Y49893750I0J793750D01*
G01*
X50450000Y49893750D02*
X50450000Y55806250D01*
X43946875Y55806250D02*
X50450000Y55806250D01*
X43946875Y55806250D02*
G75*
G02X43550000Y56203125I0J396875D01*
G01*
X43550000Y56203125D02*
X43550000Y65100000D01*
X43550000Y65100000D02*
X-6881250Y65100000D01*
X-6881250Y65100000D02*
X-6881250Y61925000D01*
X-17881250Y61925000D02*
X-6881250Y61925000D01*
M02*
