G04 #@! TF.GenerationSoftware,KiCad,Pcbnew,5.1.2-f72e74a~84~ubuntu18.04.1*
G04 #@! TF.CreationDate,2019-07-18T11:25:25-04:00*
G04 #@! TF.ProjectId,Joe,4a6f652e-6b69-4636-9164-5f7063625858,rev?*
G04 #@! TF.SameCoordinates,Original*
G04 #@! TF.FileFunction,Soldermask,Top*
G04 #@! TF.FilePolarity,Negative*
%FSLAX46Y46*%
G04 Gerber Fmt 4.6, Leading zero omitted, Abs format (unit mm)*
G04 Created by KiCad (PCBNEW 5.1.2-f72e74a~84~ubuntu18.04.1) date 2019-07-18 11:25:25*
%MOMM*%
%LPD*%
G04 APERTURE LIST*
%ADD10C,0.100000*%
G04 APERTURE END LIST*
D10*
G36*
X-7694017Y-48644089D02*
G01*
X-7694014Y-48644090D01*
X-7694015Y-48644090D01*
X-7630142Y-48670546D01*
X-7572652Y-48708960D01*
X-7523760Y-48757852D01*
X-7485346Y-48815342D01*
X-7463776Y-48867418D01*
X-7458889Y-48879217D01*
X-7445400Y-48947030D01*
X-7445400Y-49016170D01*
X-7458889Y-49083983D01*
X-7458890Y-49083985D01*
X-7485346Y-49147858D01*
X-7523760Y-49205348D01*
X-7572652Y-49254240D01*
X-7630142Y-49292654D01*
X-7682218Y-49314224D01*
X-7694017Y-49319111D01*
X-7761830Y-49332600D01*
X-7830970Y-49332600D01*
X-7898783Y-49319111D01*
X-7910582Y-49314224D01*
X-7962658Y-49292654D01*
X-8020148Y-49254240D01*
X-8069040Y-49205348D01*
X-8107454Y-49147858D01*
X-8133910Y-49083985D01*
X-8133911Y-49083983D01*
X-8147400Y-49016170D01*
X-8147400Y-48947030D01*
X-8133911Y-48879217D01*
X-8129024Y-48867418D01*
X-8107454Y-48815342D01*
X-8069040Y-48757852D01*
X-8020148Y-48708960D01*
X-7962658Y-48670546D01*
X-7898785Y-48644090D01*
X-7898786Y-48644090D01*
X-7898783Y-48644089D01*
X-7830970Y-48630600D01*
X-7761830Y-48630600D01*
X-7694017Y-48644089D01*
X-7694017Y-48644089D01*
G37*
G36*
X-19914400Y-43891400D02*
G01*
X-21286400Y-43891400D01*
X-21286400Y-38709400D01*
X-19914400Y-38709400D01*
X-19914400Y-43891400D01*
X-19914400Y-43891400D01*
G37*
G36*
X-41884400Y-43891400D02*
G01*
X-43256400Y-43891400D01*
X-43256400Y-38709400D01*
X-41884400Y-38709400D01*
X-41884400Y-43891400D01*
X-41884400Y-43891400D01*
G37*
G36*
X-29554400Y-43331400D02*
G01*
X-33616400Y-43331400D01*
X-33616400Y-39269400D01*
X-29554400Y-39269400D01*
X-29554400Y-43331400D01*
X-29554400Y-43331400D01*
G37*
G36*
X-7694017Y-42044089D02*
G01*
X-7694014Y-42044090D01*
X-7694015Y-42044090D01*
X-7630142Y-42070546D01*
X-7572652Y-42108960D01*
X-7523760Y-42157852D01*
X-7485346Y-42215342D01*
X-7463776Y-42267418D01*
X-7458889Y-42279217D01*
X-7445400Y-42347030D01*
X-7445400Y-42416170D01*
X-7458889Y-42483983D01*
X-7458890Y-42483985D01*
X-7485346Y-42547858D01*
X-7523760Y-42605348D01*
X-7572652Y-42654240D01*
X-7630142Y-42692654D01*
X-7682218Y-42714224D01*
X-7694017Y-42719111D01*
X-7761830Y-42732600D01*
X-7830970Y-42732600D01*
X-7898783Y-42719111D01*
X-7910582Y-42714224D01*
X-7962658Y-42692654D01*
X-8020148Y-42654240D01*
X-8069040Y-42605348D01*
X-8107454Y-42547858D01*
X-8133910Y-42483985D01*
X-8133911Y-42483983D01*
X-8147400Y-42416170D01*
X-8147400Y-42347030D01*
X-8133911Y-42279217D01*
X-8129024Y-42267418D01*
X-8107454Y-42215342D01*
X-8069040Y-42157852D01*
X-8020148Y-42108960D01*
X-7962658Y-42070546D01*
X-7898785Y-42044090D01*
X-7898786Y-42044090D01*
X-7898783Y-42044089D01*
X-7830970Y-42030600D01*
X-7761830Y-42030600D01*
X-7694017Y-42044089D01*
X-7694017Y-42044089D01*
G37*
G36*
X-42546409Y-34643885D02*
G01*
X-42512431Y-34654193D01*
X-42481110Y-34670934D01*
X-42453661Y-34693461D01*
X-42431134Y-34720910D01*
X-42414393Y-34752231D01*
X-42404085Y-34786209D01*
X-42400000Y-34827690D01*
X-42400000Y-35428910D01*
X-42404085Y-35470391D01*
X-42414393Y-35504369D01*
X-42431134Y-35535690D01*
X-42453661Y-35563139D01*
X-42481110Y-35585666D01*
X-42512431Y-35602407D01*
X-42546409Y-35612715D01*
X-42587890Y-35616800D01*
X-43264110Y-35616800D01*
X-43305591Y-35612715D01*
X-43339569Y-35602407D01*
X-43370890Y-35585666D01*
X-43398339Y-35563139D01*
X-43420866Y-35535690D01*
X-43437607Y-35504369D01*
X-43447915Y-35470391D01*
X-43452000Y-35428910D01*
X-43452000Y-34827690D01*
X-43447915Y-34786209D01*
X-43437607Y-34752231D01*
X-43420866Y-34720910D01*
X-43398339Y-34693461D01*
X-43370890Y-34670934D01*
X-43339569Y-34654193D01*
X-43305591Y-34643885D01*
X-43264110Y-34639800D01*
X-42587890Y-34639800D01*
X-42546409Y-34643885D01*
X-42546409Y-34643885D01*
G37*
G36*
X-45629987Y-33161102D02*
G01*
X-45558879Y-33168105D01*
X-45422028Y-33209619D01*
X-45422025Y-33209620D01*
X-45295906Y-33277032D01*
X-45185357Y-33367757D01*
X-45094632Y-33478306D01*
X-45027220Y-33604425D01*
X-45027219Y-33604428D01*
X-44985705Y-33741279D01*
X-44971688Y-33883600D01*
X-44985705Y-34025921D01*
X-44989283Y-34037715D01*
X-45027220Y-34162775D01*
X-45094632Y-34288894D01*
X-45185357Y-34399443D01*
X-45295906Y-34490168D01*
X-45422025Y-34557580D01*
X-45422028Y-34557581D01*
X-45558879Y-34599095D01*
X-45629987Y-34606098D01*
X-45665540Y-34609600D01*
X-45736860Y-34609600D01*
X-45772413Y-34606098D01*
X-45843521Y-34599095D01*
X-45980372Y-34557581D01*
X-45980375Y-34557580D01*
X-46106494Y-34490168D01*
X-46217043Y-34399443D01*
X-46307768Y-34288894D01*
X-46375180Y-34162775D01*
X-46413117Y-34037715D01*
X-46416695Y-34025921D01*
X-46430712Y-33883600D01*
X-46416695Y-33741279D01*
X-46375181Y-33604428D01*
X-46375180Y-33604425D01*
X-46307768Y-33478306D01*
X-46217043Y-33367757D01*
X-46106494Y-33277032D01*
X-45980375Y-33209620D01*
X-45980372Y-33209619D01*
X-45843521Y-33168105D01*
X-45772413Y-33161102D01*
X-45736860Y-33157600D01*
X-45665540Y-33157600D01*
X-45629987Y-33161102D01*
X-45629987Y-33161102D01*
G37*
G36*
X-46975200Y-34609600D02*
G01*
X-48427200Y-34609600D01*
X-48427200Y-33157600D01*
X-46975200Y-33157600D01*
X-46975200Y-34609600D01*
X-46975200Y-34609600D01*
G37*
G36*
X-42546409Y-33068885D02*
G01*
X-42512431Y-33079193D01*
X-42481110Y-33095934D01*
X-42453661Y-33118461D01*
X-42431134Y-33145910D01*
X-42414393Y-33177231D01*
X-42404085Y-33211209D01*
X-42400000Y-33252690D01*
X-42400000Y-33853910D01*
X-42404085Y-33895391D01*
X-42414393Y-33929369D01*
X-42431134Y-33960690D01*
X-42453661Y-33988139D01*
X-42481110Y-34010666D01*
X-42512431Y-34027407D01*
X-42546409Y-34037715D01*
X-42587890Y-34041800D01*
X-43264110Y-34041800D01*
X-43305591Y-34037715D01*
X-43339569Y-34027407D01*
X-43370890Y-34010666D01*
X-43398339Y-33988139D01*
X-43420866Y-33960690D01*
X-43437607Y-33929369D01*
X-43447915Y-33895391D01*
X-43452000Y-33853910D01*
X-43452000Y-33252690D01*
X-43447915Y-33211209D01*
X-43437607Y-33177231D01*
X-43420866Y-33145910D01*
X-43398339Y-33118461D01*
X-43370890Y-33095934D01*
X-43339569Y-33079193D01*
X-43305591Y-33068885D01*
X-43264110Y-33064800D01*
X-42587890Y-33064800D01*
X-42546409Y-33068885D01*
X-42546409Y-33068885D01*
G37*
G36*
X-42546409Y-31240285D02*
G01*
X-42512431Y-31250593D01*
X-42481110Y-31267334D01*
X-42453661Y-31289861D01*
X-42431134Y-31317310D01*
X-42414393Y-31348631D01*
X-42404085Y-31382609D01*
X-42400000Y-31424090D01*
X-42400000Y-32025310D01*
X-42404085Y-32066791D01*
X-42414393Y-32100769D01*
X-42431134Y-32132090D01*
X-42453661Y-32159539D01*
X-42481110Y-32182066D01*
X-42512431Y-32198807D01*
X-42546409Y-32209115D01*
X-42587890Y-32213200D01*
X-43264110Y-32213200D01*
X-43305591Y-32209115D01*
X-43339569Y-32198807D01*
X-43370890Y-32182066D01*
X-43398339Y-32159539D01*
X-43420866Y-32132090D01*
X-43437607Y-32100769D01*
X-43447915Y-32066791D01*
X-43452000Y-32025310D01*
X-43452000Y-31424090D01*
X-43447915Y-31382609D01*
X-43437607Y-31348631D01*
X-43420866Y-31317310D01*
X-43398339Y-31289861D01*
X-43370890Y-31267334D01*
X-43339569Y-31250593D01*
X-43305591Y-31240285D01*
X-43264110Y-31236200D01*
X-42587890Y-31236200D01*
X-42546409Y-31240285D01*
X-42546409Y-31240285D01*
G37*
G36*
X-45680787Y-29706702D02*
G01*
X-45609679Y-29713705D01*
X-45515383Y-29742310D01*
X-45472825Y-29755220D01*
X-45346706Y-29822632D01*
X-45236157Y-29913357D01*
X-45145432Y-30023906D01*
X-45078020Y-30150025D01*
X-45078019Y-30150028D01*
X-45036505Y-30286879D01*
X-45022488Y-30429200D01*
X-45036505Y-30571521D01*
X-45078019Y-30708372D01*
X-45078020Y-30708375D01*
X-45145432Y-30834494D01*
X-45236157Y-30945043D01*
X-45346706Y-31035768D01*
X-45472825Y-31103180D01*
X-45472828Y-31103181D01*
X-45609679Y-31144695D01*
X-45680787Y-31151698D01*
X-45716340Y-31155200D01*
X-45787660Y-31155200D01*
X-45823213Y-31151698D01*
X-45894321Y-31144695D01*
X-46031172Y-31103181D01*
X-46031175Y-31103180D01*
X-46157294Y-31035768D01*
X-46267843Y-30945043D01*
X-46358568Y-30834494D01*
X-46425980Y-30708375D01*
X-46425981Y-30708372D01*
X-46467495Y-30571521D01*
X-46481512Y-30429200D01*
X-46467495Y-30286879D01*
X-46425981Y-30150028D01*
X-46425980Y-30150025D01*
X-46358568Y-30023906D01*
X-46267843Y-29913357D01*
X-46157294Y-29822632D01*
X-46031175Y-29755220D01*
X-45988617Y-29742310D01*
X-45894321Y-29713705D01*
X-45823213Y-29706702D01*
X-45787660Y-29703200D01*
X-45716340Y-29703200D01*
X-45680787Y-29706702D01*
X-45680787Y-29706702D01*
G37*
G36*
X-47026000Y-31155200D02*
G01*
X-48478000Y-31155200D01*
X-48478000Y-29703200D01*
X-47026000Y-29703200D01*
X-47026000Y-31155200D01*
X-47026000Y-31155200D01*
G37*
G36*
X-42546409Y-29665285D02*
G01*
X-42512431Y-29675593D01*
X-42481110Y-29692334D01*
X-42453661Y-29714861D01*
X-42431134Y-29742310D01*
X-42414393Y-29773631D01*
X-42404085Y-29807609D01*
X-42400000Y-29849090D01*
X-42400000Y-30450310D01*
X-42404085Y-30491791D01*
X-42414393Y-30525769D01*
X-42431134Y-30557090D01*
X-42453661Y-30584539D01*
X-42481110Y-30607066D01*
X-42512431Y-30623807D01*
X-42546409Y-30634115D01*
X-42587890Y-30638200D01*
X-43264110Y-30638200D01*
X-43305591Y-30634115D01*
X-43339569Y-30623807D01*
X-43370890Y-30607066D01*
X-43398339Y-30584539D01*
X-43420866Y-30557090D01*
X-43437607Y-30525769D01*
X-43447915Y-30491791D01*
X-43452000Y-30450310D01*
X-43452000Y-29849090D01*
X-43447915Y-29807609D01*
X-43437607Y-29773631D01*
X-43420866Y-29742310D01*
X-43398339Y-29714861D01*
X-43370890Y-29692334D01*
X-43339569Y-29675593D01*
X-43305591Y-29665285D01*
X-43264110Y-29661200D01*
X-42587890Y-29661200D01*
X-42546409Y-29665285D01*
X-42546409Y-29665285D01*
G37*
G36*
X-42571809Y-27836785D02*
G01*
X-42537831Y-27847093D01*
X-42506510Y-27863834D01*
X-42479061Y-27886361D01*
X-42456534Y-27913810D01*
X-42439793Y-27945131D01*
X-42429485Y-27979109D01*
X-42425400Y-28020590D01*
X-42425400Y-28621810D01*
X-42429485Y-28663291D01*
X-42439793Y-28697269D01*
X-42456534Y-28728590D01*
X-42479061Y-28756039D01*
X-42506510Y-28778566D01*
X-42537831Y-28795307D01*
X-42571809Y-28805615D01*
X-42613290Y-28809700D01*
X-43289510Y-28809700D01*
X-43330991Y-28805615D01*
X-43364969Y-28795307D01*
X-43396290Y-28778566D01*
X-43423739Y-28756039D01*
X-43446266Y-28728590D01*
X-43463007Y-28697269D01*
X-43473315Y-28663291D01*
X-43477400Y-28621810D01*
X-43477400Y-28020590D01*
X-43473315Y-27979109D01*
X-43463007Y-27945131D01*
X-43446266Y-27913810D01*
X-43423739Y-27886361D01*
X-43396290Y-27863834D01*
X-43364969Y-27847093D01*
X-43330991Y-27836785D01*
X-43289510Y-27832700D01*
X-42613290Y-27832700D01*
X-42571809Y-27836785D01*
X-42571809Y-27836785D01*
G37*
G36*
X-45680787Y-26328502D02*
G01*
X-45609679Y-26335505D01*
X-45472828Y-26377019D01*
X-45472825Y-26377020D01*
X-45346706Y-26444432D01*
X-45236157Y-26535157D01*
X-45145432Y-26645706D01*
X-45078020Y-26771825D01*
X-45078019Y-26771828D01*
X-45036505Y-26908679D01*
X-45022488Y-27051000D01*
X-45036505Y-27193321D01*
X-45078019Y-27330172D01*
X-45078020Y-27330175D01*
X-45145432Y-27456294D01*
X-45236157Y-27566843D01*
X-45346706Y-27657568D01*
X-45472825Y-27724980D01*
X-45472828Y-27724981D01*
X-45609679Y-27766495D01*
X-45680787Y-27773498D01*
X-45716340Y-27777000D01*
X-45787660Y-27777000D01*
X-45823213Y-27773498D01*
X-45894321Y-27766495D01*
X-46031172Y-27724981D01*
X-46031175Y-27724980D01*
X-46157294Y-27657568D01*
X-46267843Y-27566843D01*
X-46358568Y-27456294D01*
X-46425980Y-27330175D01*
X-46425981Y-27330172D01*
X-46467495Y-27193321D01*
X-46481512Y-27051000D01*
X-46467495Y-26908679D01*
X-46425981Y-26771828D01*
X-46425980Y-26771825D01*
X-46358568Y-26645706D01*
X-46267843Y-26535157D01*
X-46157294Y-26444432D01*
X-46031175Y-26377020D01*
X-46031172Y-26377019D01*
X-45894321Y-26335505D01*
X-45823213Y-26328502D01*
X-45787660Y-26325000D01*
X-45716340Y-26325000D01*
X-45680787Y-26328502D01*
X-45680787Y-26328502D01*
G37*
G36*
X-47026000Y-27777000D02*
G01*
X-48478000Y-27777000D01*
X-48478000Y-26325000D01*
X-47026000Y-26325000D01*
X-47026000Y-27777000D01*
X-47026000Y-27777000D01*
G37*
G36*
X-42571809Y-26261785D02*
G01*
X-42537831Y-26272093D01*
X-42506510Y-26288834D01*
X-42479061Y-26311361D01*
X-42456534Y-26338810D01*
X-42439793Y-26370131D01*
X-42429485Y-26404109D01*
X-42425400Y-26445590D01*
X-42425400Y-27046810D01*
X-42429485Y-27088291D01*
X-42439793Y-27122269D01*
X-42456534Y-27153590D01*
X-42479061Y-27181039D01*
X-42506510Y-27203566D01*
X-42537831Y-27220307D01*
X-42571809Y-27230615D01*
X-42613290Y-27234700D01*
X-43289510Y-27234700D01*
X-43330991Y-27230615D01*
X-43364969Y-27220307D01*
X-43396290Y-27203566D01*
X-43423739Y-27181039D01*
X-43446266Y-27153590D01*
X-43463007Y-27122269D01*
X-43473315Y-27088291D01*
X-43477400Y-27046810D01*
X-43477400Y-26445590D01*
X-43473315Y-26404109D01*
X-43463007Y-26370131D01*
X-43446266Y-26338810D01*
X-43423739Y-26311361D01*
X-43396290Y-26288834D01*
X-43364969Y-26272093D01*
X-43330991Y-26261785D01*
X-43289510Y-26257700D01*
X-42613290Y-26257700D01*
X-42571809Y-26261785D01*
X-42571809Y-26261785D01*
G37*
G36*
X-37471000Y-18217400D02*
G01*
X-39573000Y-18217400D01*
X-39573000Y-16665400D01*
X-37471000Y-16665400D01*
X-37471000Y-18217400D01*
X-37471000Y-18217400D01*
G37*
G36*
X-45771000Y-18217400D02*
G01*
X-47873000Y-18217400D01*
X-47873000Y-16665400D01*
X-45771000Y-16665400D01*
X-45771000Y-18217400D01*
X-45771000Y-18217400D01*
G37*
G36*
X-40321000Y-15517400D02*
G01*
X-41923000Y-15517400D01*
X-41923000Y-6915400D01*
X-40321000Y-6915400D01*
X-40321000Y-15517400D01*
X-40321000Y-15517400D01*
G37*
G36*
X-37471000Y-4467400D02*
G01*
X-39573000Y-4467400D01*
X-39573000Y-2915400D01*
X-37471000Y-2915400D01*
X-37471000Y-4467400D01*
X-37471000Y-4467400D01*
G37*
G36*
X-45771000Y-4467400D02*
G01*
X-47873000Y-4467400D01*
X-47873000Y-2915400D01*
X-45771000Y-2915400D01*
X-45771000Y-4467400D01*
X-45771000Y-4467400D01*
G37*
G36*
X-10745609Y-1801585D02*
G01*
X-10711631Y-1811893D01*
X-10680310Y-1828634D01*
X-10652861Y-1851161D01*
X-10630334Y-1878610D01*
X-10613593Y-1909931D01*
X-10603285Y-1943909D01*
X-10599200Y-1985390D01*
X-10599200Y-2586610D01*
X-10603285Y-2628091D01*
X-10613593Y-2662069D01*
X-10630334Y-2693390D01*
X-10652861Y-2720839D01*
X-10680310Y-2743366D01*
X-10711631Y-2760107D01*
X-10745609Y-2770415D01*
X-10787090Y-2774500D01*
X-11463310Y-2774500D01*
X-11504791Y-2770415D01*
X-11538769Y-2760107D01*
X-11570090Y-2743366D01*
X-11597539Y-2720839D01*
X-11620066Y-2693390D01*
X-11636807Y-2662069D01*
X-11647115Y-2628091D01*
X-11651200Y-2586610D01*
X-11651200Y-1985390D01*
X-11647115Y-1943909D01*
X-11636807Y-1909931D01*
X-11620066Y-1878610D01*
X-11597539Y-1851161D01*
X-11570090Y-1828634D01*
X-11538769Y-1811893D01*
X-11504791Y-1801585D01*
X-11463310Y-1797500D01*
X-10787090Y-1797500D01*
X-10745609Y-1801585D01*
X-10745609Y-1801585D01*
G37*
G36*
X-21718409Y-430185D02*
G01*
X-21684431Y-440493D01*
X-21653110Y-457234D01*
X-21625661Y-479761D01*
X-21603134Y-507210D01*
X-21586393Y-538531D01*
X-21576085Y-572509D01*
X-21572000Y-613990D01*
X-21572000Y-1215210D01*
X-21576085Y-1256691D01*
X-21586393Y-1290669D01*
X-21603134Y-1321990D01*
X-21625661Y-1349439D01*
X-21653110Y-1371966D01*
X-21684431Y-1388707D01*
X-21718409Y-1399015D01*
X-21759890Y-1403100D01*
X-22436110Y-1403100D01*
X-22477591Y-1399015D01*
X-22511569Y-1388707D01*
X-22542890Y-1371966D01*
X-22570339Y-1349439D01*
X-22592866Y-1321990D01*
X-22609607Y-1290669D01*
X-22619915Y-1256691D01*
X-22624000Y-1215210D01*
X-22624000Y-613990D01*
X-22619915Y-572509D01*
X-22609607Y-538531D01*
X-22592866Y-507210D01*
X-22570339Y-479761D01*
X-22542890Y-457234D01*
X-22511569Y-440493D01*
X-22477591Y-430185D01*
X-22436110Y-426100D01*
X-21759890Y-426100D01*
X-21718409Y-430185D01*
X-21718409Y-430185D01*
G37*
G36*
X-14000272Y-566164D02*
G01*
X-13979191Y-572560D01*
X-13959755Y-582948D01*
X-13942724Y-596924D01*
X-13928748Y-613955D01*
X-13918360Y-633391D01*
X-13911964Y-654472D01*
X-13909200Y-682540D01*
X-13909200Y-1146260D01*
X-13911964Y-1174328D01*
X-13918360Y-1195409D01*
X-13928748Y-1214845D01*
X-13942724Y-1231876D01*
X-13959755Y-1245852D01*
X-13979191Y-1256240D01*
X-14000272Y-1262636D01*
X-14028340Y-1265400D01*
X-15842060Y-1265400D01*
X-15870128Y-1262636D01*
X-15891209Y-1256240D01*
X-15910645Y-1245852D01*
X-15927676Y-1231876D01*
X-15941652Y-1214845D01*
X-15952040Y-1195409D01*
X-15958436Y-1174328D01*
X-15961200Y-1146260D01*
X-15961200Y-682540D01*
X-15958436Y-654472D01*
X-15952040Y-633391D01*
X-15941652Y-613955D01*
X-15927676Y-596924D01*
X-15910645Y-582948D01*
X-15891209Y-572560D01*
X-15870128Y-566164D01*
X-15842060Y-563400D01*
X-14028340Y-563400D01*
X-14000272Y-566164D01*
X-14000272Y-566164D01*
G37*
G36*
X-18950272Y-566164D02*
G01*
X-18929191Y-572560D01*
X-18909755Y-582948D01*
X-18892724Y-596924D01*
X-18878748Y-613955D01*
X-18868360Y-633391D01*
X-18861964Y-654472D01*
X-18859200Y-682540D01*
X-18859200Y-1146260D01*
X-18861964Y-1174328D01*
X-18868360Y-1195409D01*
X-18878748Y-1214845D01*
X-18892724Y-1231876D01*
X-18909755Y-1245852D01*
X-18929191Y-1256240D01*
X-18950272Y-1262636D01*
X-18978340Y-1265400D01*
X-20792060Y-1265400D01*
X-20820128Y-1262636D01*
X-20841209Y-1256240D01*
X-20860645Y-1245852D01*
X-20877676Y-1231876D01*
X-20891652Y-1214845D01*
X-20902040Y-1195409D01*
X-20908436Y-1174328D01*
X-20911200Y-1146260D01*
X-20911200Y-682540D01*
X-20908436Y-654472D01*
X-20902040Y-633391D01*
X-20891652Y-613955D01*
X-20877676Y-596924D01*
X-20860645Y-582948D01*
X-20841209Y-572560D01*
X-20820128Y-566164D01*
X-20792060Y-563400D01*
X-18978340Y-563400D01*
X-18950272Y-566164D01*
X-18950272Y-566164D01*
G37*
G36*
X-10745609Y-226585D02*
G01*
X-10711631Y-236893D01*
X-10680310Y-253634D01*
X-10652861Y-276161D01*
X-10630334Y-303610D01*
X-10613593Y-334931D01*
X-10603285Y-368909D01*
X-10599200Y-410390D01*
X-10599200Y-1011610D01*
X-10603285Y-1053091D01*
X-10613593Y-1087069D01*
X-10630334Y-1118390D01*
X-10652861Y-1145839D01*
X-10680310Y-1168366D01*
X-10711631Y-1185107D01*
X-10745609Y-1195415D01*
X-10787090Y-1199500D01*
X-11463310Y-1199500D01*
X-11504791Y-1195415D01*
X-11538769Y-1185107D01*
X-11570090Y-1168366D01*
X-11597539Y-1145839D01*
X-11620066Y-1118390D01*
X-11636807Y-1087069D01*
X-11647115Y-1053091D01*
X-11651200Y-1011610D01*
X-11651200Y-410390D01*
X-11647115Y-368909D01*
X-11636807Y-334931D01*
X-11620066Y-303610D01*
X-11597539Y-276161D01*
X-11570090Y-253634D01*
X-11538769Y-236893D01*
X-11504791Y-226585D01*
X-11463310Y-222500D01*
X-10787090Y-222500D01*
X-10745609Y-226585D01*
X-10745609Y-226585D01*
G37*
G36*
X-23547209Y77815D02*
G01*
X-23513231Y67507D01*
X-23481910Y50766D01*
X-23454461Y28239D01*
X-23431934Y790D01*
X-23415193Y-30531D01*
X-23404885Y-64509D01*
X-23400800Y-105990D01*
X-23400800Y-707210D01*
X-23404885Y-748691D01*
X-23415193Y-782669D01*
X-23431934Y-813990D01*
X-23454461Y-841439D01*
X-23481910Y-863966D01*
X-23513231Y-880707D01*
X-23547209Y-891015D01*
X-23588690Y-895100D01*
X-24264910Y-895100D01*
X-24306391Y-891015D01*
X-24340369Y-880707D01*
X-24371690Y-863966D01*
X-24399139Y-841439D01*
X-24421666Y-813990D01*
X-24438407Y-782669D01*
X-24448715Y-748691D01*
X-24452800Y-707210D01*
X-24452800Y-105990D01*
X-24448715Y-64509D01*
X-24438407Y-30531D01*
X-24421666Y790D01*
X-24399139Y28239D01*
X-24371690Y50766D01*
X-24340369Y67507D01*
X-24306391Y77815D01*
X-24264910Y81900D01*
X-23588690Y81900D01*
X-23547209Y77815D01*
X-23547209Y77815D01*
G37*
G36*
X-31233157Y1707281D02*
G01*
X-31166973Y1700763D01*
X-30997134Y1649243D01*
X-30997132Y1649242D01*
X-30953212Y1625766D01*
X-30840609Y1565578D01*
X-30814888Y1544469D01*
X-30703414Y1452986D01*
X-30621028Y1352597D01*
X-30590822Y1315791D01*
X-30507157Y1159266D01*
X-30455637Y989427D01*
X-30438241Y812800D01*
X-30455637Y636173D01*
X-30507157Y466334D01*
X-30590822Y309809D01*
X-30614915Y280452D01*
X-30703414Y172614D01*
X-30804871Y89352D01*
X-30840609Y60022D01*
X-30997134Y-23643D01*
X-31166973Y-75163D01*
X-31233157Y-81681D01*
X-31299340Y-88200D01*
X-31387860Y-88200D01*
X-31454043Y-81681D01*
X-31520227Y-75163D01*
X-31690066Y-23643D01*
X-31846591Y60022D01*
X-31882329Y89352D01*
X-31983786Y172614D01*
X-32072285Y280452D01*
X-32096378Y309809D01*
X-32180043Y466334D01*
X-32231563Y636173D01*
X-32248959Y812800D01*
X-32231563Y989427D01*
X-32180043Y1159266D01*
X-32096378Y1315791D01*
X-32066172Y1352597D01*
X-31983786Y1452986D01*
X-31872312Y1544469D01*
X-31846591Y1565578D01*
X-31733988Y1625766D01*
X-31690068Y1649242D01*
X-31690066Y1649243D01*
X-31520227Y1700763D01*
X-31454042Y1707282D01*
X-31387860Y1713800D01*
X-31299340Y1713800D01*
X-31233157Y1707281D01*
X-31233157Y1707281D01*
G37*
G36*
X-27902600Y-88200D02*
G01*
X-29704600Y-88200D01*
X-29704600Y1713800D01*
X-27902600Y1713800D01*
X-27902600Y-88200D01*
X-27902600Y-88200D01*
G37*
G36*
X-18950272Y703836D02*
G01*
X-18929191Y697440D01*
X-18909755Y687052D01*
X-18892724Y673076D01*
X-18878748Y656045D01*
X-18868360Y636609D01*
X-18861964Y615528D01*
X-18859200Y587460D01*
X-18859200Y123740D01*
X-18861964Y95672D01*
X-18868360Y74591D01*
X-18878748Y55155D01*
X-18892724Y38124D01*
X-18909755Y24148D01*
X-18929191Y13760D01*
X-18950272Y7364D01*
X-18978340Y4600D01*
X-20792060Y4600D01*
X-20820128Y7364D01*
X-20841209Y13760D01*
X-20860645Y24148D01*
X-20877676Y38124D01*
X-20891652Y55155D01*
X-20902040Y74591D01*
X-20908436Y95672D01*
X-20911200Y123740D01*
X-20911200Y587460D01*
X-20908436Y615528D01*
X-20902040Y636609D01*
X-20891652Y656045D01*
X-20877676Y673076D01*
X-20860645Y687052D01*
X-20841209Y697440D01*
X-20820128Y703836D01*
X-20792060Y706600D01*
X-18978340Y706600D01*
X-18950272Y703836D01*
X-18950272Y703836D01*
G37*
G36*
X-14000272Y703836D02*
G01*
X-13979191Y697440D01*
X-13959755Y687052D01*
X-13942724Y673076D01*
X-13928748Y656045D01*
X-13918360Y636609D01*
X-13911964Y615528D01*
X-13909200Y587460D01*
X-13909200Y123740D01*
X-13911964Y95672D01*
X-13918360Y74591D01*
X-13928748Y55155D01*
X-13942724Y38124D01*
X-13959755Y24148D01*
X-13979191Y13760D01*
X-14000272Y7364D01*
X-14028340Y4600D01*
X-15842060Y4600D01*
X-15870128Y7364D01*
X-15891209Y13760D01*
X-15910645Y24148D01*
X-15927676Y38124D01*
X-15941652Y55155D01*
X-15952040Y74591D01*
X-15958436Y95672D01*
X-15961200Y123740D01*
X-15961200Y587460D01*
X-15958436Y615528D01*
X-15952040Y636609D01*
X-15941652Y656045D01*
X-15927676Y673076D01*
X-15910645Y687052D01*
X-15891209Y697440D01*
X-15870128Y703836D01*
X-15842060Y706600D01*
X-14028340Y706600D01*
X-14000272Y703836D01*
X-14000272Y703836D01*
G37*
G36*
X-21718409Y1144815D02*
G01*
X-21684431Y1134507D01*
X-21653110Y1117766D01*
X-21625661Y1095239D01*
X-21603134Y1067790D01*
X-21586393Y1036469D01*
X-21576085Y1002491D01*
X-21572000Y961010D01*
X-21572000Y359790D01*
X-21576085Y318309D01*
X-21586393Y284331D01*
X-21603134Y253010D01*
X-21625661Y225561D01*
X-21653110Y203034D01*
X-21684431Y186293D01*
X-21718409Y175985D01*
X-21759890Y171900D01*
X-22436110Y171900D01*
X-22477591Y175985D01*
X-22511569Y186293D01*
X-22542890Y203034D01*
X-22570339Y225561D01*
X-22592866Y253010D01*
X-22609607Y284331D01*
X-22619915Y318309D01*
X-22624000Y359790D01*
X-22624000Y961010D01*
X-22619915Y1002491D01*
X-22609607Y1036469D01*
X-22592866Y1067790D01*
X-22570339Y1095239D01*
X-22542890Y1117766D01*
X-22511569Y1134507D01*
X-22477591Y1144815D01*
X-22436110Y1148900D01*
X-21759890Y1148900D01*
X-21718409Y1144815D01*
X-21718409Y1144815D01*
G37*
G36*
X-23547209Y1652815D02*
G01*
X-23513231Y1642507D01*
X-23481910Y1625766D01*
X-23454461Y1603239D01*
X-23431934Y1575790D01*
X-23415193Y1544469D01*
X-23404885Y1510491D01*
X-23400800Y1469010D01*
X-23400800Y867790D01*
X-23404885Y826309D01*
X-23415193Y792331D01*
X-23431934Y761010D01*
X-23454461Y733561D01*
X-23481910Y711034D01*
X-23513231Y694293D01*
X-23547209Y683985D01*
X-23588690Y679900D01*
X-24264910Y679900D01*
X-24306391Y683985D01*
X-24340369Y694293D01*
X-24371690Y711034D01*
X-24399139Y733561D01*
X-24421666Y761010D01*
X-24438407Y792331D01*
X-24448715Y826309D01*
X-24452800Y867790D01*
X-24452800Y1469010D01*
X-24448715Y1510491D01*
X-24438407Y1544469D01*
X-24421666Y1575790D01*
X-24399139Y1603239D01*
X-24371690Y1625766D01*
X-24340369Y1642507D01*
X-24306391Y1652815D01*
X-24264910Y1656900D01*
X-23588690Y1656900D01*
X-23547209Y1652815D01*
X-23547209Y1652815D01*
G37*
G36*
X-10910009Y1741115D02*
G01*
X-10876031Y1730807D01*
X-10844710Y1714066D01*
X-10817261Y1691539D01*
X-10794734Y1664090D01*
X-10777993Y1632769D01*
X-10767685Y1598791D01*
X-10763600Y1557310D01*
X-10763600Y881090D01*
X-10767685Y839609D01*
X-10777993Y805631D01*
X-10794734Y774310D01*
X-10817261Y746861D01*
X-10844710Y724334D01*
X-10876031Y707593D01*
X-10910009Y697285D01*
X-10951490Y693200D01*
X-11552710Y693200D01*
X-11594191Y697285D01*
X-11628169Y707593D01*
X-11659490Y724334D01*
X-11686939Y746861D01*
X-11709466Y774310D01*
X-11726207Y805631D01*
X-11736515Y839609D01*
X-11740600Y881090D01*
X-11740600Y1557310D01*
X-11736515Y1598791D01*
X-11726207Y1632769D01*
X-11709466Y1664090D01*
X-11686939Y1691539D01*
X-11659490Y1714066D01*
X-11628169Y1730807D01*
X-11594191Y1741115D01*
X-11552710Y1745200D01*
X-10951490Y1745200D01*
X-10910009Y1741115D01*
X-10910009Y1741115D01*
G37*
G36*
X-12485009Y1741115D02*
G01*
X-12451031Y1730807D01*
X-12419710Y1714066D01*
X-12392261Y1691539D01*
X-12369734Y1664090D01*
X-12352993Y1632769D01*
X-12342685Y1598791D01*
X-12338600Y1557310D01*
X-12338600Y881090D01*
X-12342685Y839609D01*
X-12352993Y805631D01*
X-12369734Y774310D01*
X-12392261Y746861D01*
X-12419710Y724334D01*
X-12451031Y707593D01*
X-12485009Y697285D01*
X-12526490Y693200D01*
X-13127710Y693200D01*
X-13169191Y697285D01*
X-13203169Y707593D01*
X-13234490Y724334D01*
X-13261939Y746861D01*
X-13284466Y774310D01*
X-13301207Y805631D01*
X-13311515Y839609D01*
X-13315600Y881090D01*
X-13315600Y1557310D01*
X-13311515Y1598791D01*
X-13301207Y1632769D01*
X-13284466Y1664090D01*
X-13261939Y1691539D01*
X-13234490Y1714066D01*
X-13203169Y1730807D01*
X-13169191Y1741115D01*
X-13127710Y1745200D01*
X-12526490Y1745200D01*
X-12485009Y1741115D01*
X-12485009Y1741115D01*
G37*
G36*
X-14000272Y1973836D02*
G01*
X-13979191Y1967440D01*
X-13959755Y1957052D01*
X-13942724Y1943076D01*
X-13928748Y1926045D01*
X-13918360Y1906609D01*
X-13911964Y1885528D01*
X-13909200Y1857460D01*
X-13909200Y1393740D01*
X-13911964Y1365672D01*
X-13918360Y1344591D01*
X-13928748Y1325155D01*
X-13942724Y1308124D01*
X-13959755Y1294148D01*
X-13979191Y1283760D01*
X-14000272Y1277364D01*
X-14028340Y1274600D01*
X-15842060Y1274600D01*
X-15870128Y1277364D01*
X-15891209Y1283760D01*
X-15910645Y1294148D01*
X-15927676Y1308124D01*
X-15941652Y1325155D01*
X-15952040Y1344591D01*
X-15958436Y1365672D01*
X-15961200Y1393740D01*
X-15961200Y1857460D01*
X-15958436Y1885528D01*
X-15952040Y1906609D01*
X-15941652Y1926045D01*
X-15927676Y1943076D01*
X-15910645Y1957052D01*
X-15891209Y1967440D01*
X-15870128Y1973836D01*
X-15842060Y1976600D01*
X-14028340Y1976600D01*
X-14000272Y1973836D01*
X-14000272Y1973836D01*
G37*
G36*
X-18950272Y1973836D02*
G01*
X-18929191Y1967440D01*
X-18909755Y1957052D01*
X-18892724Y1943076D01*
X-18878748Y1926045D01*
X-18868360Y1906609D01*
X-18861964Y1885528D01*
X-18859200Y1857460D01*
X-18859200Y1393740D01*
X-18861964Y1365672D01*
X-18868360Y1344591D01*
X-18878748Y1325155D01*
X-18892724Y1308124D01*
X-18909755Y1294148D01*
X-18929191Y1283760D01*
X-18950272Y1277364D01*
X-18978340Y1274600D01*
X-20792060Y1274600D01*
X-20820128Y1277364D01*
X-20841209Y1283760D01*
X-20860645Y1294148D01*
X-20877676Y1308124D01*
X-20891652Y1325155D01*
X-20902040Y1344591D01*
X-20908436Y1365672D01*
X-20911200Y1393740D01*
X-20911200Y1857460D01*
X-20908436Y1885528D01*
X-20902040Y1906609D01*
X-20891652Y1926045D01*
X-20877676Y1943076D01*
X-20860645Y1957052D01*
X-20841209Y1967440D01*
X-20820128Y1973836D01*
X-20792060Y1976600D01*
X-18978340Y1976600D01*
X-18950272Y1973836D01*
X-18950272Y1973836D01*
G37*
G36*
X-42733400Y2118800D02*
G01*
X-44185400Y2118800D01*
X-44185400Y3570800D01*
X-42733400Y3570800D01*
X-42733400Y2118800D01*
X-42733400Y2118800D01*
G37*
G36*
X-21704909Y3315915D02*
G01*
X-21670931Y3305607D01*
X-21639610Y3288866D01*
X-21612161Y3266339D01*
X-21589634Y3238890D01*
X-21572893Y3207569D01*
X-21562585Y3173591D01*
X-21558500Y3132110D01*
X-21558500Y2455890D01*
X-21562585Y2414409D01*
X-21572893Y2380431D01*
X-21589634Y2349110D01*
X-21612161Y2321661D01*
X-21639610Y2299134D01*
X-21670931Y2282393D01*
X-21704909Y2272085D01*
X-21746390Y2268000D01*
X-22347610Y2268000D01*
X-22389091Y2272085D01*
X-22423069Y2282393D01*
X-22454390Y2299134D01*
X-22481839Y2321661D01*
X-22504366Y2349110D01*
X-22521107Y2380431D01*
X-22531415Y2414409D01*
X-22535500Y2455890D01*
X-22535500Y3132110D01*
X-22531415Y3173591D01*
X-22521107Y3207569D01*
X-22504366Y3238890D01*
X-22481839Y3266339D01*
X-22454390Y3288866D01*
X-22423069Y3305607D01*
X-22389091Y3315915D01*
X-22347610Y3320000D01*
X-21746390Y3320000D01*
X-21704909Y3315915D01*
X-21704909Y3315915D01*
G37*
G36*
X-23279909Y3315915D02*
G01*
X-23245931Y3305607D01*
X-23214610Y3288866D01*
X-23187161Y3266339D01*
X-23164634Y3238890D01*
X-23147893Y3207569D01*
X-23137585Y3173591D01*
X-23133500Y3132110D01*
X-23133500Y2455890D01*
X-23137585Y2414409D01*
X-23147893Y2380431D01*
X-23164634Y2349110D01*
X-23187161Y2321661D01*
X-23214610Y2299134D01*
X-23245931Y2282393D01*
X-23279909Y2272085D01*
X-23321390Y2268000D01*
X-23922610Y2268000D01*
X-23964091Y2272085D01*
X-23998069Y2282393D01*
X-24029390Y2299134D01*
X-24056839Y2321661D01*
X-24079366Y2349110D01*
X-24096107Y2380431D01*
X-24106415Y2414409D01*
X-24110500Y2455890D01*
X-24110500Y3132110D01*
X-24106415Y3173591D01*
X-24096107Y3207569D01*
X-24079366Y3238890D01*
X-24056839Y3266339D01*
X-24029390Y3288866D01*
X-23998069Y3305607D01*
X-23964091Y3315915D01*
X-23922610Y3320000D01*
X-23321390Y3320000D01*
X-23279909Y3315915D01*
X-23279909Y3315915D01*
G37*
G36*
X-10910009Y3417515D02*
G01*
X-10876031Y3407207D01*
X-10844710Y3390466D01*
X-10817261Y3367939D01*
X-10794734Y3340490D01*
X-10777993Y3309169D01*
X-10767685Y3275191D01*
X-10763600Y3233710D01*
X-10763600Y2557490D01*
X-10767685Y2516009D01*
X-10777993Y2482031D01*
X-10794734Y2450710D01*
X-10817261Y2423261D01*
X-10844710Y2400734D01*
X-10876031Y2383993D01*
X-10910009Y2373685D01*
X-10951490Y2369600D01*
X-11552710Y2369600D01*
X-11594191Y2373685D01*
X-11628169Y2383993D01*
X-11659490Y2400734D01*
X-11686939Y2423261D01*
X-11709466Y2450710D01*
X-11726207Y2482031D01*
X-11736515Y2516009D01*
X-11740600Y2557490D01*
X-11740600Y3233710D01*
X-11736515Y3275191D01*
X-11726207Y3309169D01*
X-11709466Y3340490D01*
X-11686939Y3367939D01*
X-11659490Y3390466D01*
X-11628169Y3407207D01*
X-11594191Y3417515D01*
X-11552710Y3421600D01*
X-10951490Y3421600D01*
X-10910009Y3417515D01*
X-10910009Y3417515D01*
G37*
G36*
X-12485009Y3417515D02*
G01*
X-12451031Y3407207D01*
X-12419710Y3390466D01*
X-12392261Y3367939D01*
X-12369734Y3340490D01*
X-12352993Y3309169D01*
X-12342685Y3275191D01*
X-12338600Y3233710D01*
X-12338600Y2557490D01*
X-12342685Y2516009D01*
X-12352993Y2482031D01*
X-12369734Y2450710D01*
X-12392261Y2423261D01*
X-12419710Y2400734D01*
X-12451031Y2383993D01*
X-12485009Y2373685D01*
X-12526490Y2369600D01*
X-13127710Y2369600D01*
X-13169191Y2373685D01*
X-13203169Y2383993D01*
X-13234490Y2400734D01*
X-13261939Y2423261D01*
X-13284466Y2450710D01*
X-13301207Y2482031D01*
X-13311515Y2516009D01*
X-13315600Y2557490D01*
X-13315600Y3233710D01*
X-13311515Y3275191D01*
X-13301207Y3309169D01*
X-13284466Y3340490D01*
X-13261939Y3367939D01*
X-13234490Y3390466D01*
X-13203169Y3407207D01*
X-13169191Y3417515D01*
X-13127710Y3421600D01*
X-12526490Y3421600D01*
X-12485009Y3417515D01*
X-12485009Y3417515D01*
G37*
G36*
X-2344600Y2406600D02*
G01*
X-3896600Y2406600D01*
X-3896600Y4908600D01*
X-2344600Y4908600D01*
X-2344600Y2406600D01*
X-2344600Y2406600D01*
G37*
G36*
X-8244600Y2406600D02*
G01*
X-9796600Y2406600D01*
X-9796600Y4908600D01*
X-8244600Y4908600D01*
X-8244600Y2406600D01*
X-8244600Y2406600D01*
G37*
G36*
X-28693157Y4247281D02*
G01*
X-28626973Y4240763D01*
X-28457134Y4189243D01*
X-28300609Y4105578D01*
X-28264871Y4076248D01*
X-28163414Y3992986D01*
X-28080152Y3891529D01*
X-28050822Y3855791D01*
X-27967157Y3699266D01*
X-27915637Y3529427D01*
X-27898241Y3352800D01*
X-27915637Y3176173D01*
X-27967157Y3006334D01*
X-28050822Y2849809D01*
X-28080152Y2814071D01*
X-28163414Y2712614D01*
X-28264871Y2629352D01*
X-28300609Y2600022D01*
X-28341577Y2578124D01*
X-28449607Y2520380D01*
X-28457134Y2516357D01*
X-28626973Y2464837D01*
X-28693157Y2458319D01*
X-28759340Y2451800D01*
X-28847860Y2451800D01*
X-28914043Y2458319D01*
X-28980227Y2464837D01*
X-29150066Y2516357D01*
X-29157592Y2520380D01*
X-29265623Y2578124D01*
X-29306591Y2600022D01*
X-29342329Y2629352D01*
X-29443786Y2712614D01*
X-29527048Y2814071D01*
X-29556378Y2849809D01*
X-29640043Y3006334D01*
X-29691563Y3176173D01*
X-29708959Y3352800D01*
X-29691563Y3529427D01*
X-29640043Y3699266D01*
X-29556378Y3855791D01*
X-29527048Y3891529D01*
X-29443786Y3992986D01*
X-29342329Y4076248D01*
X-29306591Y4105578D01*
X-29150066Y4189243D01*
X-28980227Y4240763D01*
X-28914043Y4247281D01*
X-28847860Y4253800D01*
X-28759340Y4253800D01*
X-28693157Y4247281D01*
X-28693157Y4247281D01*
G37*
G36*
X-31233157Y4247281D02*
G01*
X-31166973Y4240763D01*
X-30997134Y4189243D01*
X-30840609Y4105578D01*
X-30804871Y4076248D01*
X-30703414Y3992986D01*
X-30620152Y3891529D01*
X-30590822Y3855791D01*
X-30507157Y3699266D01*
X-30455637Y3529427D01*
X-30438241Y3352800D01*
X-30455637Y3176173D01*
X-30507157Y3006334D01*
X-30590822Y2849809D01*
X-30620152Y2814071D01*
X-30703414Y2712614D01*
X-30804871Y2629352D01*
X-30840609Y2600022D01*
X-30881577Y2578124D01*
X-30989607Y2520380D01*
X-30997134Y2516357D01*
X-31166973Y2464837D01*
X-31233157Y2458319D01*
X-31299340Y2451800D01*
X-31387860Y2451800D01*
X-31454043Y2458319D01*
X-31520227Y2464837D01*
X-31690066Y2516357D01*
X-31697592Y2520380D01*
X-31805623Y2578124D01*
X-31846591Y2600022D01*
X-31882329Y2629352D01*
X-31983786Y2712614D01*
X-32067048Y2814071D01*
X-32096378Y2849809D01*
X-32180043Y3006334D01*
X-32231563Y3176173D01*
X-32248959Y3352800D01*
X-32231563Y3529427D01*
X-32180043Y3699266D01*
X-32096378Y3855791D01*
X-32067048Y3891529D01*
X-31983786Y3992986D01*
X-31882329Y4076248D01*
X-31846591Y4105578D01*
X-31690066Y4189243D01*
X-31520227Y4240763D01*
X-31454043Y4247281D01*
X-31387860Y4253800D01*
X-31299340Y4253800D01*
X-31233157Y4247281D01*
X-31233157Y4247281D01*
G37*
G36*
X-14000272Y3243836D02*
G01*
X-13979191Y3237440D01*
X-13959755Y3227052D01*
X-13942724Y3213076D01*
X-13928748Y3196045D01*
X-13918360Y3176609D01*
X-13911964Y3155528D01*
X-13909200Y3127460D01*
X-13909200Y2663740D01*
X-13911964Y2635672D01*
X-13918360Y2614591D01*
X-13928748Y2595155D01*
X-13942724Y2578124D01*
X-13959755Y2564148D01*
X-13979191Y2553760D01*
X-14000272Y2547364D01*
X-14028340Y2544600D01*
X-15842060Y2544600D01*
X-15870128Y2547364D01*
X-15891209Y2553760D01*
X-15910645Y2564148D01*
X-15927676Y2578124D01*
X-15941652Y2595155D01*
X-15952040Y2614591D01*
X-15958436Y2635672D01*
X-15961200Y2663740D01*
X-15961200Y3127460D01*
X-15958436Y3155528D01*
X-15952040Y3176609D01*
X-15941652Y3196045D01*
X-15927676Y3213076D01*
X-15910645Y3227052D01*
X-15891209Y3237440D01*
X-15870128Y3243836D01*
X-15842060Y3246600D01*
X-14028340Y3246600D01*
X-14000272Y3243836D01*
X-14000272Y3243836D01*
G37*
G36*
X-18950272Y3243836D02*
G01*
X-18929191Y3237440D01*
X-18909755Y3227052D01*
X-18892724Y3213076D01*
X-18878748Y3196045D01*
X-18868360Y3176609D01*
X-18861964Y3155528D01*
X-18859200Y3127460D01*
X-18859200Y2663740D01*
X-18861964Y2635672D01*
X-18868360Y2614591D01*
X-18878748Y2595155D01*
X-18892724Y2578124D01*
X-18909755Y2564148D01*
X-18929191Y2553760D01*
X-18950272Y2547364D01*
X-18978340Y2544600D01*
X-20792060Y2544600D01*
X-20820128Y2547364D01*
X-20841209Y2553760D01*
X-20860645Y2564148D01*
X-20877676Y2578124D01*
X-20891652Y2595155D01*
X-20902040Y2614591D01*
X-20908436Y2635672D01*
X-20911200Y2663740D01*
X-20911200Y3127460D01*
X-20908436Y3155528D01*
X-20902040Y3176609D01*
X-20891652Y3196045D01*
X-20877676Y3213076D01*
X-20860645Y3227052D01*
X-20841209Y3237440D01*
X-20820128Y3243836D01*
X-20792060Y3246600D01*
X-18978340Y3246600D01*
X-18950272Y3243836D01*
X-18950272Y3243836D01*
G37*
G36*
X-40679109Y4636715D02*
G01*
X-40645131Y4626407D01*
X-40613810Y4609666D01*
X-40586361Y4587139D01*
X-40563834Y4559690D01*
X-40547093Y4528369D01*
X-40536785Y4494391D01*
X-40532700Y4452910D01*
X-40532700Y3776690D01*
X-40536785Y3735209D01*
X-40547093Y3701231D01*
X-40563834Y3669910D01*
X-40586361Y3642461D01*
X-40613810Y3619934D01*
X-40645131Y3603193D01*
X-40679109Y3592885D01*
X-40720590Y3588800D01*
X-41321810Y3588800D01*
X-41363291Y3592885D01*
X-41397269Y3603193D01*
X-41428590Y3619934D01*
X-41456039Y3642461D01*
X-41478566Y3669910D01*
X-41495307Y3701231D01*
X-41505615Y3735209D01*
X-41509700Y3776690D01*
X-41509700Y4452910D01*
X-41505615Y4494391D01*
X-41495307Y4528369D01*
X-41478566Y4559690D01*
X-41456039Y4587139D01*
X-41428590Y4609666D01*
X-41397269Y4626407D01*
X-41363291Y4636715D01*
X-41321810Y4640800D01*
X-40720590Y4640800D01*
X-40679109Y4636715D01*
X-40679109Y4636715D01*
G37*
G36*
X-39104109Y4636715D02*
G01*
X-39070131Y4626407D01*
X-39038810Y4609666D01*
X-39011361Y4587139D01*
X-38988834Y4559690D01*
X-38972093Y4528369D01*
X-38961785Y4494391D01*
X-38957700Y4452910D01*
X-38957700Y3776690D01*
X-38961785Y3735209D01*
X-38972093Y3701231D01*
X-38988834Y3669910D01*
X-39011361Y3642461D01*
X-39038810Y3619934D01*
X-39070131Y3603193D01*
X-39104109Y3592885D01*
X-39145590Y3588800D01*
X-39746810Y3588800D01*
X-39788291Y3592885D01*
X-39822269Y3603193D01*
X-39853590Y3619934D01*
X-39881039Y3642461D01*
X-39903566Y3669910D01*
X-39920307Y3701231D01*
X-39930615Y3735209D01*
X-39934700Y3776690D01*
X-39934700Y4452910D01*
X-39930615Y4494391D01*
X-39920307Y4528369D01*
X-39903566Y4559690D01*
X-39881039Y4587139D01*
X-39853590Y4609666D01*
X-39822269Y4626407D01*
X-39788291Y4636715D01*
X-39746810Y4640800D01*
X-39145590Y4640800D01*
X-39104109Y4636715D01*
X-39104109Y4636715D01*
G37*
G36*
X-43388187Y5567298D02*
G01*
X-43317079Y5560295D01*
X-43180228Y5518781D01*
X-43180225Y5518780D01*
X-43054106Y5451368D01*
X-42943557Y5360643D01*
X-42852832Y5250094D01*
X-42785420Y5123975D01*
X-42785419Y5123972D01*
X-42743905Y4987121D01*
X-42729888Y4844800D01*
X-42743905Y4702479D01*
X-42772060Y4609666D01*
X-42785420Y4565625D01*
X-42852832Y4439506D01*
X-42943557Y4328957D01*
X-43054106Y4238232D01*
X-43180225Y4170820D01*
X-43180228Y4170819D01*
X-43317079Y4129305D01*
X-43388187Y4122302D01*
X-43423740Y4118800D01*
X-43495060Y4118800D01*
X-43530613Y4122302D01*
X-43601721Y4129305D01*
X-43738572Y4170819D01*
X-43738575Y4170820D01*
X-43864694Y4238232D01*
X-43975243Y4328957D01*
X-44065968Y4439506D01*
X-44133380Y4565625D01*
X-44146740Y4609666D01*
X-44174895Y4702479D01*
X-44188912Y4844800D01*
X-44174895Y4987121D01*
X-44133381Y5123972D01*
X-44133380Y5123975D01*
X-44065968Y5250094D01*
X-43975243Y5360643D01*
X-43864694Y5451368D01*
X-43738575Y5518780D01*
X-43738572Y5518781D01*
X-43601721Y5560295D01*
X-43530613Y5567298D01*
X-43495060Y5570800D01*
X-43423740Y5570800D01*
X-43388187Y5567298D01*
X-43388187Y5567298D01*
G37*
G36*
X-28693157Y6787281D02*
G01*
X-28626973Y6780763D01*
X-28457134Y6729243D01*
X-28300609Y6645578D01*
X-28275411Y6624898D01*
X-28163414Y6532986D01*
X-28080152Y6431529D01*
X-28050822Y6395791D01*
X-27967157Y6239266D01*
X-27915637Y6069427D01*
X-27898241Y5892800D01*
X-27915637Y5716173D01*
X-27967157Y5546334D01*
X-28050822Y5389809D01*
X-28079365Y5355029D01*
X-28163414Y5252614D01*
X-28264871Y5169352D01*
X-28300609Y5140022D01*
X-28457134Y5056357D01*
X-28626973Y5004837D01*
X-28693158Y4998318D01*
X-28759340Y4991800D01*
X-28847860Y4991800D01*
X-28914042Y4998318D01*
X-28980227Y5004837D01*
X-29150066Y5056357D01*
X-29306591Y5140022D01*
X-29342329Y5169352D01*
X-29443786Y5252614D01*
X-29527835Y5355029D01*
X-29556378Y5389809D01*
X-29640043Y5546334D01*
X-29691563Y5716173D01*
X-29708959Y5892800D01*
X-29691563Y6069427D01*
X-29640043Y6239266D01*
X-29556378Y6395791D01*
X-29527048Y6431529D01*
X-29443786Y6532986D01*
X-29331789Y6624898D01*
X-29306591Y6645578D01*
X-29150066Y6729243D01*
X-28980227Y6780763D01*
X-28914043Y6787281D01*
X-28847860Y6793800D01*
X-28759340Y6793800D01*
X-28693157Y6787281D01*
X-28693157Y6787281D01*
G37*
G36*
X-31233157Y6787281D02*
G01*
X-31166973Y6780763D01*
X-30997134Y6729243D01*
X-30840609Y6645578D01*
X-30815411Y6624898D01*
X-30703414Y6532986D01*
X-30620152Y6431529D01*
X-30590822Y6395791D01*
X-30507157Y6239266D01*
X-30455637Y6069427D01*
X-30438241Y5892800D01*
X-30455637Y5716173D01*
X-30507157Y5546334D01*
X-30590822Y5389809D01*
X-30619365Y5355029D01*
X-30703414Y5252614D01*
X-30804871Y5169352D01*
X-30840609Y5140022D01*
X-30997134Y5056357D01*
X-31166973Y5004837D01*
X-31233158Y4998318D01*
X-31299340Y4991800D01*
X-31387860Y4991800D01*
X-31454042Y4998318D01*
X-31520227Y5004837D01*
X-31690066Y5056357D01*
X-31846591Y5140022D01*
X-31882329Y5169352D01*
X-31983786Y5252614D01*
X-32067835Y5355029D01*
X-32096378Y5389809D01*
X-32180043Y5546334D01*
X-32231563Y5716173D01*
X-32248959Y5892800D01*
X-32231563Y6069427D01*
X-32180043Y6239266D01*
X-32096378Y6395791D01*
X-32067048Y6431529D01*
X-31983786Y6532986D01*
X-31871789Y6624898D01*
X-31846591Y6645578D01*
X-31690066Y6729243D01*
X-31520227Y6780763D01*
X-31454043Y6787281D01*
X-31387860Y6793800D01*
X-31299340Y6793800D01*
X-31233157Y6787281D01*
X-31233157Y6787281D01*
G37*
G36*
X-21953445Y13195917D02*
G01*
X-21948771Y13194499D01*
X-21944470Y13192200D01*
X-21938098Y13186971D01*
X-21917724Y13173357D01*
X-21895085Y13163980D01*
X-21871051Y13159200D01*
X-21846547Y13159200D01*
X-21822514Y13163981D01*
X-21799875Y13173358D01*
X-21779502Y13186971D01*
X-21773130Y13192200D01*
X-21768829Y13194499D01*
X-21764155Y13195917D01*
X-21753159Y13197000D01*
X-21464441Y13197000D01*
X-21453445Y13195917D01*
X-21448771Y13194499D01*
X-21444470Y13192200D01*
X-21438098Y13186971D01*
X-21417724Y13173357D01*
X-21395085Y13163980D01*
X-21371051Y13159200D01*
X-21346547Y13159200D01*
X-21322514Y13163981D01*
X-21299875Y13173358D01*
X-21279502Y13186971D01*
X-21273130Y13192200D01*
X-21268829Y13194499D01*
X-21264155Y13195917D01*
X-21253159Y13197000D01*
X-20964441Y13197000D01*
X-20953445Y13195917D01*
X-20948771Y13194499D01*
X-20944470Y13192200D01*
X-20938098Y13186971D01*
X-20917724Y13173357D01*
X-20895085Y13163980D01*
X-20871051Y13159200D01*
X-20846547Y13159200D01*
X-20822514Y13163981D01*
X-20799875Y13173358D01*
X-20779502Y13186971D01*
X-20773130Y13192200D01*
X-20768829Y13194499D01*
X-20764155Y13195917D01*
X-20753159Y13197000D01*
X-20464441Y13197000D01*
X-20453445Y13195917D01*
X-20448771Y13194499D01*
X-20444470Y13192200D01*
X-20438098Y13186971D01*
X-20417724Y13173357D01*
X-20395085Y13163980D01*
X-20371051Y13159200D01*
X-20346547Y13159200D01*
X-20322514Y13163981D01*
X-20299875Y13173358D01*
X-20279502Y13186971D01*
X-20273130Y13192200D01*
X-20268829Y13194499D01*
X-20264155Y13195917D01*
X-20253159Y13197000D01*
X-19964441Y13197000D01*
X-19953445Y13195917D01*
X-19948771Y13194499D01*
X-19944470Y13192200D01*
X-19938098Y13186971D01*
X-19917724Y13173357D01*
X-19895085Y13163980D01*
X-19871051Y13159200D01*
X-19846547Y13159200D01*
X-19822514Y13163981D01*
X-19799875Y13173358D01*
X-19779502Y13186971D01*
X-19773130Y13192200D01*
X-19768829Y13194499D01*
X-19764155Y13195917D01*
X-19753159Y13197000D01*
X-19464441Y13197000D01*
X-19453445Y13195917D01*
X-19448771Y13194499D01*
X-19444470Y13192200D01*
X-19438098Y13186971D01*
X-19417724Y13173357D01*
X-19395085Y13163980D01*
X-19371051Y13159200D01*
X-19346547Y13159200D01*
X-19322514Y13163981D01*
X-19299875Y13173358D01*
X-19279502Y13186971D01*
X-19273130Y13192200D01*
X-19268829Y13194499D01*
X-19264155Y13195917D01*
X-19253159Y13197000D01*
X-18964441Y13197000D01*
X-18953445Y13195917D01*
X-18948771Y13194499D01*
X-18944470Y13192200D01*
X-18938098Y13186971D01*
X-18917724Y13173357D01*
X-18895085Y13163980D01*
X-18871051Y13159200D01*
X-18846547Y13159200D01*
X-18822514Y13163981D01*
X-18799875Y13173358D01*
X-18779502Y13186971D01*
X-18773130Y13192200D01*
X-18768829Y13194499D01*
X-18764155Y13195917D01*
X-18753159Y13197000D01*
X-18464441Y13197000D01*
X-18453445Y13195917D01*
X-18448771Y13194499D01*
X-18444470Y13192200D01*
X-18438098Y13186971D01*
X-18417724Y13173357D01*
X-18395085Y13163980D01*
X-18371051Y13159200D01*
X-18346547Y13159200D01*
X-18322514Y13163981D01*
X-18299875Y13173358D01*
X-18279502Y13186971D01*
X-18273130Y13192200D01*
X-18268829Y13194499D01*
X-18264155Y13195917D01*
X-18253159Y13197000D01*
X-17964441Y13197000D01*
X-17953445Y13195917D01*
X-17948771Y13194499D01*
X-17944470Y13192200D01*
X-17938098Y13186971D01*
X-17917724Y13173357D01*
X-17895085Y13163980D01*
X-17871051Y13159200D01*
X-17846547Y13159200D01*
X-17822514Y13163981D01*
X-17799875Y13173358D01*
X-17779502Y13186971D01*
X-17773130Y13192200D01*
X-17768829Y13194499D01*
X-17764155Y13195917D01*
X-17753159Y13197000D01*
X-17464441Y13197000D01*
X-17453445Y13195917D01*
X-17448771Y13194499D01*
X-17444470Y13192200D01*
X-17438098Y13186971D01*
X-17417724Y13173357D01*
X-17395085Y13163980D01*
X-17371051Y13159200D01*
X-17346547Y13159200D01*
X-17322514Y13163981D01*
X-17299875Y13173358D01*
X-17279502Y13186971D01*
X-17273130Y13192200D01*
X-17268829Y13194499D01*
X-17264155Y13195917D01*
X-17253159Y13197000D01*
X-16964441Y13197000D01*
X-16953445Y13195917D01*
X-16948771Y13194499D01*
X-16944469Y13192200D01*
X-16940696Y13189104D01*
X-16937600Y13185331D01*
X-16935301Y13181029D01*
X-16933883Y13176355D01*
X-16932800Y13165359D01*
X-16932800Y12071999D01*
X-16930398Y12047613D01*
X-16923285Y12024164D01*
X-16911734Y12002553D01*
X-16896189Y11983611D01*
X-16877247Y11968066D01*
X-16855636Y11956515D01*
X-16832187Y11949402D01*
X-16807801Y11947000D01*
X-15714441Y11947000D01*
X-15703445Y11945917D01*
X-15698771Y11944499D01*
X-15694469Y11942200D01*
X-15690696Y11939104D01*
X-15687600Y11935331D01*
X-15685301Y11931029D01*
X-15683883Y11926355D01*
X-15682800Y11915359D01*
X-15682800Y11626641D01*
X-15683883Y11615645D01*
X-15685301Y11610971D01*
X-15687600Y11606670D01*
X-15692829Y11600298D01*
X-15706443Y11579924D01*
X-15715820Y11557285D01*
X-15720600Y11533251D01*
X-15720600Y11508747D01*
X-15715819Y11484714D01*
X-15706442Y11462075D01*
X-15692829Y11441702D01*
X-15687600Y11435330D01*
X-15685301Y11431029D01*
X-15683883Y11426355D01*
X-15682800Y11415359D01*
X-15682800Y11126641D01*
X-15683883Y11115645D01*
X-15685301Y11110971D01*
X-15687600Y11106670D01*
X-15692829Y11100298D01*
X-15706443Y11079924D01*
X-15715820Y11057285D01*
X-15720600Y11033251D01*
X-15720600Y11008747D01*
X-15715819Y10984714D01*
X-15706442Y10962075D01*
X-15692829Y10941702D01*
X-15687600Y10935330D01*
X-15685301Y10931029D01*
X-15683883Y10926355D01*
X-15682800Y10915359D01*
X-15682800Y10626641D01*
X-15683883Y10615645D01*
X-15685301Y10610971D01*
X-15687600Y10606670D01*
X-15692829Y10600298D01*
X-15706443Y10579924D01*
X-15715820Y10557285D01*
X-15720600Y10533251D01*
X-15720600Y10508747D01*
X-15715819Y10484714D01*
X-15706442Y10462075D01*
X-15692829Y10441702D01*
X-15687600Y10435330D01*
X-15685301Y10431029D01*
X-15683883Y10426355D01*
X-15682800Y10415359D01*
X-15682800Y10126641D01*
X-15683883Y10115645D01*
X-15685301Y10110971D01*
X-15687600Y10106670D01*
X-15692829Y10100298D01*
X-15706443Y10079924D01*
X-15715820Y10057285D01*
X-15720600Y10033251D01*
X-15720600Y10008747D01*
X-15715819Y9984714D01*
X-15706442Y9962075D01*
X-15692829Y9941702D01*
X-15687600Y9935330D01*
X-15685301Y9931029D01*
X-15683883Y9926355D01*
X-15682800Y9915359D01*
X-15682800Y9626641D01*
X-15683883Y9615645D01*
X-15685301Y9610971D01*
X-15687600Y9606670D01*
X-15692829Y9600298D01*
X-15706443Y9579924D01*
X-15715820Y9557285D01*
X-15720600Y9533251D01*
X-15720600Y9508747D01*
X-15715819Y9484714D01*
X-15706442Y9462075D01*
X-15692829Y9441702D01*
X-15687600Y9435330D01*
X-15685301Y9431029D01*
X-15683883Y9426355D01*
X-15682800Y9415359D01*
X-15682800Y9126641D01*
X-15683883Y9115645D01*
X-15685301Y9110971D01*
X-15687600Y9106670D01*
X-15692829Y9100298D01*
X-15706443Y9079924D01*
X-15715820Y9057285D01*
X-15720600Y9033251D01*
X-15720600Y9008747D01*
X-15715819Y8984714D01*
X-15706442Y8962075D01*
X-15692829Y8941702D01*
X-15687600Y8935330D01*
X-15685301Y8931029D01*
X-15683883Y8926355D01*
X-15682800Y8915359D01*
X-15682800Y8626641D01*
X-15683883Y8615645D01*
X-15685301Y8610971D01*
X-15687600Y8606670D01*
X-15692829Y8600298D01*
X-15706443Y8579924D01*
X-15715820Y8557285D01*
X-15720600Y8533251D01*
X-15720600Y8508747D01*
X-15715819Y8484714D01*
X-15706442Y8462075D01*
X-15692829Y8441702D01*
X-15687600Y8435330D01*
X-15685301Y8431029D01*
X-15683883Y8426355D01*
X-15682800Y8415359D01*
X-15682800Y8126641D01*
X-15683883Y8115645D01*
X-15685301Y8110971D01*
X-15687600Y8106670D01*
X-15692829Y8100298D01*
X-15706443Y8079924D01*
X-15715820Y8057285D01*
X-15720600Y8033251D01*
X-15720600Y8008747D01*
X-15715819Y7984714D01*
X-15706442Y7962075D01*
X-15692829Y7941702D01*
X-15687600Y7935330D01*
X-15685301Y7931029D01*
X-15683883Y7926355D01*
X-15682800Y7915359D01*
X-15682800Y7626641D01*
X-15683883Y7615645D01*
X-15685301Y7610971D01*
X-15687600Y7606670D01*
X-15692829Y7600298D01*
X-15706443Y7579924D01*
X-15715820Y7557285D01*
X-15720600Y7533251D01*
X-15720600Y7508747D01*
X-15715819Y7484714D01*
X-15706442Y7462075D01*
X-15692829Y7441702D01*
X-15687600Y7435330D01*
X-15685301Y7431029D01*
X-15683883Y7426355D01*
X-15682800Y7415359D01*
X-15682800Y7126641D01*
X-15683883Y7115645D01*
X-15685301Y7110971D01*
X-15687600Y7106670D01*
X-15692829Y7100298D01*
X-15706443Y7079924D01*
X-15715820Y7057285D01*
X-15720600Y7033251D01*
X-15720600Y7008747D01*
X-15715819Y6984714D01*
X-15706442Y6962075D01*
X-15692829Y6941702D01*
X-15687600Y6935330D01*
X-15685301Y6931029D01*
X-15683883Y6926355D01*
X-15682800Y6915359D01*
X-15682800Y6626641D01*
X-15683883Y6615645D01*
X-15685301Y6610971D01*
X-15687600Y6606669D01*
X-15690696Y6602896D01*
X-15694469Y6599800D01*
X-15698771Y6597501D01*
X-15703445Y6596083D01*
X-15714441Y6595000D01*
X-16807801Y6595000D01*
X-16832187Y6592598D01*
X-16855636Y6585485D01*
X-16877247Y6573934D01*
X-16896189Y6558389D01*
X-16911734Y6539447D01*
X-16923285Y6517836D01*
X-16930398Y6494387D01*
X-16932800Y6470001D01*
X-16932800Y5376641D01*
X-16933883Y5365645D01*
X-16935301Y5360971D01*
X-16937600Y5356669D01*
X-16940696Y5352896D01*
X-16944469Y5349800D01*
X-16948771Y5347501D01*
X-16953445Y5346083D01*
X-16964441Y5345000D01*
X-17253159Y5345000D01*
X-17264155Y5346083D01*
X-17268829Y5347501D01*
X-17273130Y5349800D01*
X-17279502Y5355029D01*
X-17299876Y5368643D01*
X-17322515Y5378020D01*
X-17346549Y5382800D01*
X-17371053Y5382800D01*
X-17395086Y5378019D01*
X-17417725Y5368642D01*
X-17438098Y5355029D01*
X-17444470Y5349800D01*
X-17448771Y5347501D01*
X-17453445Y5346083D01*
X-17464441Y5345000D01*
X-17753159Y5345000D01*
X-17764155Y5346083D01*
X-17768829Y5347501D01*
X-17773130Y5349800D01*
X-17779502Y5355029D01*
X-17799876Y5368643D01*
X-17822515Y5378020D01*
X-17846549Y5382800D01*
X-17871053Y5382800D01*
X-17895086Y5378019D01*
X-17917725Y5368642D01*
X-17938098Y5355029D01*
X-17944470Y5349800D01*
X-17948771Y5347501D01*
X-17953445Y5346083D01*
X-17964441Y5345000D01*
X-18253159Y5345000D01*
X-18264155Y5346083D01*
X-18268829Y5347501D01*
X-18273130Y5349800D01*
X-18279502Y5355029D01*
X-18299876Y5368643D01*
X-18322515Y5378020D01*
X-18346549Y5382800D01*
X-18371053Y5382800D01*
X-18395086Y5378019D01*
X-18417725Y5368642D01*
X-18438098Y5355029D01*
X-18444470Y5349800D01*
X-18448771Y5347501D01*
X-18453445Y5346083D01*
X-18464441Y5345000D01*
X-18753159Y5345000D01*
X-18764155Y5346083D01*
X-18768829Y5347501D01*
X-18773130Y5349800D01*
X-18779502Y5355029D01*
X-18799876Y5368643D01*
X-18822515Y5378020D01*
X-18846549Y5382800D01*
X-18871053Y5382800D01*
X-18895086Y5378019D01*
X-18917725Y5368642D01*
X-18938098Y5355029D01*
X-18944470Y5349800D01*
X-18948771Y5347501D01*
X-18953445Y5346083D01*
X-18964441Y5345000D01*
X-19253159Y5345000D01*
X-19264155Y5346083D01*
X-19268829Y5347501D01*
X-19273130Y5349800D01*
X-19279502Y5355029D01*
X-19299876Y5368643D01*
X-19322515Y5378020D01*
X-19346549Y5382800D01*
X-19371053Y5382800D01*
X-19395086Y5378019D01*
X-19417725Y5368642D01*
X-19438098Y5355029D01*
X-19444470Y5349800D01*
X-19448771Y5347501D01*
X-19453445Y5346083D01*
X-19464441Y5345000D01*
X-19753159Y5345000D01*
X-19764155Y5346083D01*
X-19768829Y5347501D01*
X-19773130Y5349800D01*
X-19779502Y5355029D01*
X-19799876Y5368643D01*
X-19822515Y5378020D01*
X-19846549Y5382800D01*
X-19871053Y5382800D01*
X-19895086Y5378019D01*
X-19917725Y5368642D01*
X-19938098Y5355029D01*
X-19944470Y5349800D01*
X-19948771Y5347501D01*
X-19953445Y5346083D01*
X-19964441Y5345000D01*
X-20253159Y5345000D01*
X-20264155Y5346083D01*
X-20268829Y5347501D01*
X-20273130Y5349800D01*
X-20279502Y5355029D01*
X-20299876Y5368643D01*
X-20322515Y5378020D01*
X-20346549Y5382800D01*
X-20371053Y5382800D01*
X-20395086Y5378019D01*
X-20417725Y5368642D01*
X-20438098Y5355029D01*
X-20444470Y5349800D01*
X-20448771Y5347501D01*
X-20453445Y5346083D01*
X-20464441Y5345000D01*
X-20753159Y5345000D01*
X-20764155Y5346083D01*
X-20768829Y5347501D01*
X-20773130Y5349800D01*
X-20779502Y5355029D01*
X-20799876Y5368643D01*
X-20822515Y5378020D01*
X-20846549Y5382800D01*
X-20871053Y5382800D01*
X-20895086Y5378019D01*
X-20917725Y5368642D01*
X-20938098Y5355029D01*
X-20944470Y5349800D01*
X-20948771Y5347501D01*
X-20953445Y5346083D01*
X-20964441Y5345000D01*
X-21253159Y5345000D01*
X-21264155Y5346083D01*
X-21268829Y5347501D01*
X-21273130Y5349800D01*
X-21279502Y5355029D01*
X-21299876Y5368643D01*
X-21322515Y5378020D01*
X-21346549Y5382800D01*
X-21371053Y5382800D01*
X-21395086Y5378019D01*
X-21417725Y5368642D01*
X-21438098Y5355029D01*
X-21444470Y5349800D01*
X-21448771Y5347501D01*
X-21453445Y5346083D01*
X-21464441Y5345000D01*
X-21753159Y5345000D01*
X-21764155Y5346083D01*
X-21768829Y5347501D01*
X-21773130Y5349800D01*
X-21779502Y5355029D01*
X-21799876Y5368643D01*
X-21822515Y5378020D01*
X-21846549Y5382800D01*
X-21871053Y5382800D01*
X-21895086Y5378019D01*
X-21917725Y5368642D01*
X-21938098Y5355029D01*
X-21944470Y5349800D01*
X-21948771Y5347501D01*
X-21953445Y5346083D01*
X-21964441Y5345000D01*
X-22253159Y5345000D01*
X-22264155Y5346083D01*
X-22268829Y5347501D01*
X-22273131Y5349800D01*
X-22276904Y5352896D01*
X-22280000Y5356669D01*
X-22282299Y5360971D01*
X-22283717Y5365645D01*
X-22284800Y5376641D01*
X-22284800Y6470001D01*
X-22287202Y6494387D01*
X-22294315Y6517836D01*
X-22305866Y6539447D01*
X-22321411Y6558389D01*
X-22340353Y6573934D01*
X-22361964Y6585485D01*
X-22385413Y6592598D01*
X-22409799Y6595000D01*
X-23503159Y6595000D01*
X-23514155Y6596083D01*
X-23518829Y6597501D01*
X-23523131Y6599800D01*
X-23526904Y6602896D01*
X-23530000Y6606669D01*
X-23532299Y6610971D01*
X-23533717Y6615645D01*
X-23534800Y6626641D01*
X-23534800Y6915359D01*
X-23533717Y6926355D01*
X-23532299Y6931029D01*
X-23530000Y6935330D01*
X-23524771Y6941702D01*
X-23511157Y6962076D01*
X-23501780Y6984715D01*
X-23497000Y7008749D01*
X-23497000Y7033253D01*
X-23501781Y7057286D01*
X-23511158Y7079925D01*
X-23524771Y7100298D01*
X-23530000Y7106670D01*
X-23532299Y7110971D01*
X-23533717Y7115645D01*
X-23534800Y7126641D01*
X-23534800Y7415359D01*
X-23533717Y7426355D01*
X-23532299Y7431029D01*
X-23530000Y7435330D01*
X-23524771Y7441702D01*
X-23511157Y7462076D01*
X-23501780Y7484715D01*
X-23497000Y7508749D01*
X-23497000Y7533253D01*
X-23501781Y7557286D01*
X-23511158Y7579925D01*
X-23524771Y7600298D01*
X-23530000Y7606670D01*
X-23532299Y7610971D01*
X-23533717Y7615645D01*
X-23534800Y7626641D01*
X-23534800Y7915359D01*
X-23533717Y7926355D01*
X-23532299Y7931029D01*
X-23530000Y7935330D01*
X-23524771Y7941702D01*
X-23511157Y7962076D01*
X-23501780Y7984715D01*
X-23497000Y8008749D01*
X-23497000Y8033253D01*
X-23501781Y8057286D01*
X-23511158Y8079925D01*
X-23524771Y8100298D01*
X-23530000Y8106670D01*
X-23532299Y8110971D01*
X-23533717Y8115645D01*
X-23534800Y8126641D01*
X-23534800Y8415359D01*
X-23533717Y8426355D01*
X-23532299Y8431029D01*
X-23530000Y8435330D01*
X-23524771Y8441702D01*
X-23511157Y8462076D01*
X-23501780Y8484715D01*
X-23497000Y8508749D01*
X-23497000Y8533253D01*
X-23501781Y8557286D01*
X-23511158Y8579925D01*
X-23524771Y8600298D01*
X-23530000Y8606670D01*
X-23532299Y8610971D01*
X-23533717Y8615645D01*
X-23534800Y8626641D01*
X-23534800Y8915359D01*
X-23533717Y8926355D01*
X-23532299Y8931029D01*
X-23530000Y8935330D01*
X-23524771Y8941702D01*
X-23511157Y8962076D01*
X-23501780Y8984715D01*
X-23497000Y9008749D01*
X-23497000Y9033253D01*
X-23501781Y9057286D01*
X-23511158Y9079925D01*
X-23524771Y9100298D01*
X-23530000Y9106670D01*
X-23532299Y9110971D01*
X-23533717Y9115645D01*
X-23534800Y9126641D01*
X-23534800Y9415359D01*
X-23533717Y9426355D01*
X-23532299Y9431029D01*
X-23530000Y9435330D01*
X-23524771Y9441702D01*
X-23511157Y9462076D01*
X-23501780Y9484715D01*
X-23497000Y9508749D01*
X-23497000Y9533253D01*
X-23501781Y9557286D01*
X-23511158Y9579925D01*
X-23524771Y9600298D01*
X-23530000Y9606670D01*
X-23532299Y9610971D01*
X-23533717Y9615645D01*
X-23534800Y9626641D01*
X-23534800Y9915359D01*
X-23533717Y9926355D01*
X-23532299Y9931029D01*
X-23530000Y9935330D01*
X-23524771Y9941702D01*
X-23511157Y9962076D01*
X-23501780Y9984715D01*
X-23497000Y10008749D01*
X-23497000Y10033253D01*
X-23501781Y10057286D01*
X-23511158Y10079925D01*
X-23524771Y10100298D01*
X-23530000Y10106670D01*
X-23532299Y10110971D01*
X-23533717Y10115645D01*
X-23534800Y10126641D01*
X-23534800Y10415359D01*
X-23533717Y10426355D01*
X-23532299Y10431029D01*
X-23530000Y10435330D01*
X-23524771Y10441702D01*
X-23511157Y10462076D01*
X-23501780Y10484715D01*
X-23497000Y10508749D01*
X-23497000Y10533253D01*
X-23501781Y10557286D01*
X-23511158Y10579925D01*
X-23524771Y10600298D01*
X-23530000Y10606670D01*
X-23532299Y10610971D01*
X-23533717Y10615645D01*
X-23534800Y10626641D01*
X-23534800Y10915359D01*
X-23533717Y10926355D01*
X-23532299Y10931029D01*
X-23530000Y10935330D01*
X-23524771Y10941702D01*
X-23511157Y10962076D01*
X-23501780Y10984715D01*
X-23497000Y11008749D01*
X-23497000Y11033253D01*
X-23501781Y11057286D01*
X-23511158Y11079925D01*
X-23524771Y11100298D01*
X-23530000Y11106670D01*
X-23532299Y11110971D01*
X-23533717Y11115645D01*
X-23534800Y11126641D01*
X-23534800Y11415359D01*
X-23533717Y11426355D01*
X-23532299Y11431029D01*
X-23530000Y11435330D01*
X-23524771Y11441702D01*
X-23511157Y11462076D01*
X-23501780Y11484715D01*
X-23497000Y11508749D01*
X-23497000Y11533253D01*
X-23501781Y11557286D01*
X-23511158Y11579925D01*
X-23524771Y11600298D01*
X-23530000Y11606670D01*
X-23532299Y11610971D01*
X-23533717Y11615645D01*
X-23534800Y11626641D01*
X-23534800Y11915359D01*
X-23533717Y11926355D01*
X-23532299Y11931029D01*
X-23530000Y11935331D01*
X-23526904Y11939104D01*
X-23523131Y11942200D01*
X-23518829Y11944499D01*
X-23514155Y11945917D01*
X-23503159Y11947000D01*
X-22409799Y11947000D01*
X-22385413Y11949402D01*
X-22361964Y11956515D01*
X-22340353Y11968066D01*
X-22321411Y11983611D01*
X-22305866Y12002553D01*
X-22294315Y12024164D01*
X-22287202Y12047613D01*
X-22284800Y12071999D01*
X-22284800Y13165359D01*
X-22283717Y13176355D01*
X-22282299Y13181029D01*
X-22280000Y13185331D01*
X-22276904Y13189104D01*
X-22273131Y13192200D01*
X-22268829Y13194499D01*
X-22264155Y13195917D01*
X-22253159Y13197000D01*
X-21964441Y13197000D01*
X-21953445Y13195917D01*
X-21953445Y13195917D01*
G37*
G36*
X-29490809Y11863615D02*
G01*
X-29456831Y11853307D01*
X-29425510Y11836566D01*
X-29398061Y11814039D01*
X-29375534Y11786590D01*
X-29358793Y11755269D01*
X-29348485Y11721291D01*
X-29344400Y11679810D01*
X-29344400Y11078590D01*
X-29348485Y11037109D01*
X-29358793Y11003131D01*
X-29375534Y10971810D01*
X-29398061Y10944361D01*
X-29425510Y10921834D01*
X-29456831Y10905093D01*
X-29490809Y10894785D01*
X-29532290Y10890700D01*
X-30208510Y10890700D01*
X-30249991Y10894785D01*
X-30283969Y10905093D01*
X-30315290Y10921834D01*
X-30342739Y10944361D01*
X-30365266Y10971810D01*
X-30382007Y11003131D01*
X-30392315Y11037109D01*
X-30396400Y11078590D01*
X-30396400Y11679810D01*
X-30392315Y11721291D01*
X-30382007Y11755269D01*
X-30365266Y11786590D01*
X-30342739Y11814039D01*
X-30315290Y11836566D01*
X-30283969Y11853307D01*
X-30249991Y11863615D01*
X-30208510Y11867700D01*
X-29532290Y11867700D01*
X-29490809Y11863615D01*
X-29490809Y11863615D01*
G37*
G36*
X-9120009Y12396815D02*
G01*
X-9086031Y12386507D01*
X-9054710Y12369766D01*
X-9027261Y12347239D01*
X-9004734Y12319790D01*
X-8987993Y12288469D01*
X-8977685Y12254491D01*
X-8973600Y12213010D01*
X-8973600Y11611790D01*
X-8977685Y11570309D01*
X-8987993Y11536331D01*
X-9004734Y11505010D01*
X-9027261Y11477561D01*
X-9054710Y11455034D01*
X-9086031Y11438293D01*
X-9120009Y11427985D01*
X-9161490Y11423900D01*
X-9837710Y11423900D01*
X-9879191Y11427985D01*
X-9913169Y11438293D01*
X-9944490Y11455034D01*
X-9971939Y11477561D01*
X-9994466Y11505010D01*
X-10011207Y11536331D01*
X-10021515Y11570309D01*
X-10025600Y11611790D01*
X-10025600Y12213010D01*
X-10021515Y12254491D01*
X-10011207Y12288469D01*
X-9994466Y12319790D01*
X-9971939Y12347239D01*
X-9944490Y12369766D01*
X-9913169Y12386507D01*
X-9879191Y12396815D01*
X-9837710Y12400900D01*
X-9161490Y12400900D01*
X-9120009Y12396815D01*
X-9120009Y12396815D01*
G37*
G36*
X-10879209Y12455415D02*
G01*
X-10845231Y12445107D01*
X-10813910Y12428366D01*
X-10786461Y12405839D01*
X-10763934Y12378390D01*
X-10747193Y12347069D01*
X-10736885Y12313091D01*
X-10732800Y12271610D01*
X-10732800Y11670390D01*
X-10736885Y11628909D01*
X-10747193Y11594931D01*
X-10763934Y11563610D01*
X-10786461Y11536161D01*
X-10813910Y11513634D01*
X-10845231Y11496893D01*
X-10879209Y11486585D01*
X-10920690Y11482500D01*
X-11596910Y11482500D01*
X-11638391Y11486585D01*
X-11672369Y11496893D01*
X-11703690Y11513634D01*
X-11731139Y11536161D01*
X-11753666Y11563610D01*
X-11770407Y11594931D01*
X-11780715Y11628909D01*
X-11784800Y11670390D01*
X-11784800Y12271610D01*
X-11780715Y12313091D01*
X-11770407Y12347069D01*
X-11753666Y12378390D01*
X-11731139Y12405839D01*
X-11703690Y12428366D01*
X-11672369Y12445107D01*
X-11638391Y12455415D01*
X-11596910Y12459500D01*
X-10920690Y12459500D01*
X-10879209Y12455415D01*
X-10879209Y12455415D01*
G37*
G36*
X-29490809Y13438615D02*
G01*
X-29456831Y13428307D01*
X-29425510Y13411566D01*
X-29398061Y13389039D01*
X-29375534Y13361590D01*
X-29358793Y13330269D01*
X-29348485Y13296291D01*
X-29344400Y13254810D01*
X-29344400Y12653590D01*
X-29348485Y12612109D01*
X-29358793Y12578131D01*
X-29375534Y12546810D01*
X-29398061Y12519361D01*
X-29425510Y12496834D01*
X-29456831Y12480093D01*
X-29490809Y12469785D01*
X-29532290Y12465700D01*
X-30208510Y12465700D01*
X-30249991Y12469785D01*
X-30283969Y12480093D01*
X-30315290Y12496834D01*
X-30342739Y12519361D01*
X-30365266Y12546810D01*
X-30382007Y12578131D01*
X-30392315Y12612109D01*
X-30396400Y12653590D01*
X-30396400Y13254810D01*
X-30392315Y13296291D01*
X-30382007Y13330269D01*
X-30365266Y13361590D01*
X-30342739Y13389039D01*
X-30315290Y13411566D01*
X-30283969Y13428307D01*
X-30249991Y13438615D01*
X-30208510Y13442700D01*
X-29532290Y13442700D01*
X-29490809Y13438615D01*
X-29490809Y13438615D01*
G37*
G36*
X-9120009Y13971815D02*
G01*
X-9086031Y13961507D01*
X-9054710Y13944766D01*
X-9027261Y13922239D01*
X-9004734Y13894790D01*
X-8987993Y13863469D01*
X-8977685Y13829491D01*
X-8973600Y13788010D01*
X-8973600Y13186790D01*
X-8977685Y13145309D01*
X-8987993Y13111331D01*
X-9004734Y13080010D01*
X-9027261Y13052561D01*
X-9054710Y13030034D01*
X-9086031Y13013293D01*
X-9120009Y13002985D01*
X-9161490Y12998900D01*
X-9837710Y12998900D01*
X-9879191Y13002985D01*
X-9913169Y13013293D01*
X-9944490Y13030034D01*
X-9971939Y13052561D01*
X-9994466Y13080010D01*
X-10011207Y13111331D01*
X-10021515Y13145309D01*
X-10025600Y13186790D01*
X-10025600Y13788010D01*
X-10021515Y13829491D01*
X-10011207Y13863469D01*
X-9994466Y13894790D01*
X-9971939Y13922239D01*
X-9944490Y13944766D01*
X-9913169Y13961507D01*
X-9879191Y13971815D01*
X-9837710Y13975900D01*
X-9161490Y13975900D01*
X-9120009Y13971815D01*
X-9120009Y13971815D01*
G37*
G36*
X-10879209Y14030415D02*
G01*
X-10845231Y14020107D01*
X-10813910Y14003366D01*
X-10786461Y13980839D01*
X-10763934Y13953390D01*
X-10747193Y13922069D01*
X-10736885Y13888091D01*
X-10732800Y13846610D01*
X-10732800Y13245390D01*
X-10736885Y13203909D01*
X-10747193Y13169931D01*
X-10763934Y13138610D01*
X-10786461Y13111161D01*
X-10813910Y13088634D01*
X-10845231Y13071893D01*
X-10879209Y13061585D01*
X-10920690Y13057500D01*
X-11596910Y13057500D01*
X-11638391Y13061585D01*
X-11672369Y13071893D01*
X-11703690Y13088634D01*
X-11731139Y13111161D01*
X-11753666Y13138610D01*
X-11770407Y13169931D01*
X-11780715Y13203909D01*
X-11784800Y13245390D01*
X-11784800Y13846610D01*
X-11780715Y13888091D01*
X-11770407Y13922069D01*
X-11753666Y13953390D01*
X-11731139Y13980839D01*
X-11703690Y14003366D01*
X-11672369Y14020107D01*
X-11638391Y14030415D01*
X-11596910Y14034500D01*
X-10920690Y14034500D01*
X-10879209Y14030415D01*
X-10879209Y14030415D01*
G37*
G36*
X-24153000Y13671400D02*
G01*
X-25155000Y13671400D01*
X-25155000Y14573400D01*
X-24153000Y14573400D01*
X-24153000Y13671400D01*
X-24153000Y13671400D01*
G37*
G36*
X-26153000Y14621400D02*
G01*
X-27155000Y14621400D01*
X-27155000Y15523400D01*
X-26153000Y15523400D01*
X-26153000Y14621400D01*
X-26153000Y14621400D01*
G37*
G36*
X-9043809Y15724315D02*
G01*
X-9009831Y15714007D01*
X-8978510Y15697266D01*
X-8951061Y15674739D01*
X-8928534Y15647290D01*
X-8911793Y15615969D01*
X-8901485Y15581991D01*
X-8897400Y15540510D01*
X-8897400Y14939290D01*
X-8901485Y14897809D01*
X-8911793Y14863831D01*
X-8928534Y14832510D01*
X-8951061Y14805061D01*
X-8978510Y14782534D01*
X-9009831Y14765793D01*
X-9043809Y14755485D01*
X-9085290Y14751400D01*
X-9761510Y14751400D01*
X-9802991Y14755485D01*
X-9836969Y14765793D01*
X-9868290Y14782534D01*
X-9895739Y14805061D01*
X-9918266Y14832510D01*
X-9935007Y14863831D01*
X-9945315Y14897809D01*
X-9949400Y14939290D01*
X-9949400Y15540510D01*
X-9945315Y15581991D01*
X-9935007Y15615969D01*
X-9918266Y15647290D01*
X-9895739Y15674739D01*
X-9868290Y15697266D01*
X-9836969Y15714007D01*
X-9802991Y15724315D01*
X-9761510Y15728400D01*
X-9085290Y15728400D01*
X-9043809Y15724315D01*
X-9043809Y15724315D01*
G37*
G36*
X-10847209Y15724315D02*
G01*
X-10813231Y15714007D01*
X-10781910Y15697266D01*
X-10754461Y15674739D01*
X-10731934Y15647290D01*
X-10715193Y15615969D01*
X-10704885Y15581991D01*
X-10700800Y15540510D01*
X-10700800Y14939290D01*
X-10704885Y14897809D01*
X-10715193Y14863831D01*
X-10731934Y14832510D01*
X-10754461Y14805061D01*
X-10781910Y14782534D01*
X-10813231Y14765793D01*
X-10847209Y14755485D01*
X-10888690Y14751400D01*
X-11564910Y14751400D01*
X-11606391Y14755485D01*
X-11640369Y14765793D01*
X-11671690Y14782534D01*
X-11699139Y14805061D01*
X-11721666Y14832510D01*
X-11738407Y14863831D01*
X-11748715Y14897809D01*
X-11752800Y14939290D01*
X-11752800Y15540510D01*
X-11748715Y15581991D01*
X-11738407Y15615969D01*
X-11721666Y15647290D01*
X-11699139Y15674739D01*
X-11671690Y15697266D01*
X-11640369Y15714007D01*
X-11606391Y15724315D01*
X-11564910Y15728400D01*
X-10888690Y15728400D01*
X-10847209Y15724315D01*
X-10847209Y15724315D01*
G37*
G36*
X-24153000Y15571400D02*
G01*
X-25155000Y15571400D01*
X-25155000Y16473400D01*
X-24153000Y16473400D01*
X-24153000Y15571400D01*
X-24153000Y15571400D01*
G37*
G36*
X-9043809Y17299315D02*
G01*
X-9009831Y17289007D01*
X-8978510Y17272266D01*
X-8951061Y17249739D01*
X-8928534Y17222290D01*
X-8911793Y17190969D01*
X-8901485Y17156991D01*
X-8897400Y17115510D01*
X-8897400Y16514290D01*
X-8901485Y16472809D01*
X-8911793Y16438831D01*
X-8928534Y16407510D01*
X-8951061Y16380061D01*
X-8978510Y16357534D01*
X-9009831Y16340793D01*
X-9043809Y16330485D01*
X-9085290Y16326400D01*
X-9761510Y16326400D01*
X-9802991Y16330485D01*
X-9836969Y16340793D01*
X-9868290Y16357534D01*
X-9895739Y16380061D01*
X-9918266Y16407510D01*
X-9935007Y16438831D01*
X-9945315Y16472809D01*
X-9949400Y16514290D01*
X-9949400Y17115510D01*
X-9945315Y17156991D01*
X-9935007Y17190969D01*
X-9918266Y17222290D01*
X-9895739Y17249739D01*
X-9868290Y17272266D01*
X-9836969Y17289007D01*
X-9802991Y17299315D01*
X-9761510Y17303400D01*
X-9085290Y17303400D01*
X-9043809Y17299315D01*
X-9043809Y17299315D01*
G37*
G36*
X-10847209Y17299315D02*
G01*
X-10813231Y17289007D01*
X-10781910Y17272266D01*
X-10754461Y17249739D01*
X-10731934Y17222290D01*
X-10715193Y17190969D01*
X-10704885Y17156991D01*
X-10700800Y17115510D01*
X-10700800Y16514290D01*
X-10704885Y16472809D01*
X-10715193Y16438831D01*
X-10731934Y16407510D01*
X-10754461Y16380061D01*
X-10781910Y16357534D01*
X-10813231Y16340793D01*
X-10847209Y16330485D01*
X-10888690Y16326400D01*
X-11564910Y16326400D01*
X-11606391Y16330485D01*
X-11640369Y16340793D01*
X-11671690Y16357534D01*
X-11699139Y16380061D01*
X-11721666Y16407510D01*
X-11738407Y16438831D01*
X-11748715Y16472809D01*
X-11752800Y16514290D01*
X-11752800Y17115510D01*
X-11748715Y17156991D01*
X-11738407Y17190969D01*
X-11721666Y17222290D01*
X-11699139Y17249739D01*
X-11671690Y17272266D01*
X-11640369Y17289007D01*
X-11606391Y17299315D01*
X-11564910Y17303400D01*
X-10888690Y17303400D01*
X-10847209Y17299315D01*
X-10847209Y17299315D01*
G37*
G36*
X-23090009Y18289715D02*
G01*
X-23056031Y18279407D01*
X-23024710Y18262666D01*
X-22997261Y18240139D01*
X-22974734Y18212690D01*
X-22957993Y18181369D01*
X-22947685Y18147391D01*
X-22943600Y18105910D01*
X-22943600Y17504690D01*
X-22947685Y17463209D01*
X-22957993Y17429231D01*
X-22974734Y17397910D01*
X-22997261Y17370461D01*
X-23024710Y17347934D01*
X-23056031Y17331193D01*
X-23090009Y17320885D01*
X-23131490Y17316800D01*
X-23807710Y17316800D01*
X-23849191Y17320885D01*
X-23883169Y17331193D01*
X-23914490Y17347934D01*
X-23941939Y17370461D01*
X-23964466Y17397910D01*
X-23981207Y17429231D01*
X-23991515Y17463209D01*
X-23995600Y17504690D01*
X-23995600Y18105910D01*
X-23991515Y18147391D01*
X-23981207Y18181369D01*
X-23964466Y18212690D01*
X-23941939Y18240139D01*
X-23914490Y18262666D01*
X-23883169Y18279407D01*
X-23849191Y18289715D01*
X-23807710Y18293800D01*
X-23131490Y18293800D01*
X-23090009Y18289715D01*
X-23090009Y18289715D01*
G37*
G36*
X-23090009Y19864715D02*
G01*
X-23056031Y19854407D01*
X-23024710Y19837666D01*
X-22997261Y19815139D01*
X-22974734Y19787690D01*
X-22957993Y19756369D01*
X-22947685Y19722391D01*
X-22943600Y19680910D01*
X-22943600Y19079690D01*
X-22947685Y19038209D01*
X-22957993Y19004231D01*
X-22974734Y18972910D01*
X-22997261Y18945461D01*
X-23024710Y18922934D01*
X-23056031Y18906193D01*
X-23090009Y18895885D01*
X-23131490Y18891800D01*
X-23807710Y18891800D01*
X-23849191Y18895885D01*
X-23883169Y18906193D01*
X-23914490Y18922934D01*
X-23941939Y18945461D01*
X-23964466Y18972910D01*
X-23981207Y19004231D01*
X-23991515Y19038209D01*
X-23995600Y19079690D01*
X-23995600Y19680910D01*
X-23991515Y19722391D01*
X-23981207Y19756369D01*
X-23964466Y19787690D01*
X-23941939Y19815139D01*
X-23914490Y19837666D01*
X-23883169Y19854407D01*
X-23849191Y19864715D01*
X-23807710Y19868800D01*
X-23131490Y19868800D01*
X-23090009Y19864715D01*
X-23090009Y19864715D01*
G37*
G36*
X-29343400Y23947200D02*
G01*
X-31045400Y23947200D01*
X-31045400Y24649200D01*
X-29343400Y24649200D01*
X-29343400Y23947200D01*
X-29343400Y23947200D01*
G37*
G36*
X-31743400Y23947200D02*
G01*
X-33445400Y23947200D01*
X-33445400Y24649200D01*
X-31743400Y24649200D01*
X-31743400Y23947200D01*
X-31743400Y23947200D01*
G37*
G36*
X-29243400Y25047200D02*
G01*
X-30945400Y25047200D01*
X-30945400Y25549200D01*
X-29243400Y25549200D01*
X-29243400Y25047200D01*
X-29243400Y25047200D01*
G37*
G36*
X-31743400Y25547200D02*
G01*
X-33445400Y25547200D01*
X-33445400Y26049200D01*
X-31743400Y26049200D01*
X-31743400Y25547200D01*
X-31743400Y25547200D01*
G37*
G36*
X-29243400Y26047200D02*
G01*
X-30945400Y26047200D01*
X-30945400Y26549200D01*
X-29243400Y26549200D01*
X-29243400Y26047200D01*
X-29243400Y26047200D01*
G37*
G36*
X-31743400Y26547200D02*
G01*
X-33445400Y26547200D01*
X-33445400Y27049200D01*
X-31743400Y27049200D01*
X-31743400Y26547200D01*
X-31743400Y26547200D01*
G37*
G36*
X-29243400Y27047200D02*
G01*
X-30945400Y27047200D01*
X-30945400Y27549200D01*
X-29243400Y27549200D01*
X-29243400Y27047200D01*
X-29243400Y27047200D01*
G37*
G36*
X-31743400Y27547200D02*
G01*
X-33445400Y27547200D01*
X-33445400Y28049200D01*
X-31743400Y28049200D01*
X-31743400Y27547200D01*
X-31743400Y27547200D01*
G37*
G36*
X-29243400Y28047200D02*
G01*
X-30945400Y28047200D01*
X-30945400Y28549200D01*
X-29243400Y28549200D01*
X-29243400Y28047200D01*
X-29243400Y28047200D01*
G37*
G36*
X-31743400Y28547200D02*
G01*
X-33445400Y28547200D01*
X-33445400Y29049200D01*
X-31743400Y29049200D01*
X-31743400Y28547200D01*
X-31743400Y28547200D01*
G37*
G36*
X-29243400Y29047200D02*
G01*
X-30945400Y29047200D01*
X-30945400Y29549200D01*
X-29243400Y29549200D01*
X-29243400Y29047200D01*
X-29243400Y29047200D01*
G37*
G36*
X-31743400Y29547200D02*
G01*
X-33445400Y29547200D01*
X-33445400Y30049200D01*
X-31743400Y30049200D01*
X-31743400Y29547200D01*
X-31743400Y29547200D01*
G37*
G36*
X-29243400Y30047200D02*
G01*
X-30945400Y30047200D01*
X-30945400Y30549200D01*
X-29243400Y30549200D01*
X-29243400Y30047200D01*
X-29243400Y30047200D01*
G37*
G36*
X-31743400Y30547200D02*
G01*
X-33445400Y30547200D01*
X-33445400Y31049200D01*
X-31743400Y31049200D01*
X-31743400Y30547200D01*
X-31743400Y30547200D01*
G37*
G36*
X-29243400Y31047200D02*
G01*
X-30945400Y31047200D01*
X-30945400Y31549200D01*
X-29243400Y31549200D01*
X-29243400Y31047200D01*
X-29243400Y31047200D01*
G37*
G36*
X-31743400Y31547200D02*
G01*
X-33445400Y31547200D01*
X-33445400Y32049200D01*
X-31743400Y32049200D01*
X-31743400Y31547200D01*
X-31743400Y31547200D01*
G37*
G36*
X-29243400Y32047200D02*
G01*
X-30945400Y32047200D01*
X-30945400Y32549200D01*
X-29243400Y32549200D01*
X-29243400Y32047200D01*
X-29243400Y32047200D01*
G37*
G36*
X-31743400Y32547200D02*
G01*
X-33445400Y32547200D01*
X-33445400Y33049200D01*
X-31743400Y33049200D01*
X-31743400Y32547200D01*
X-31743400Y32547200D01*
G37*
G36*
X-29243400Y33047200D02*
G01*
X-30945400Y33047200D01*
X-30945400Y33549200D01*
X-29243400Y33549200D01*
X-29243400Y33047200D01*
X-29243400Y33047200D01*
G37*
G36*
X-31743400Y33547200D02*
G01*
X-33445400Y33547200D01*
X-33445400Y34049200D01*
X-31743400Y34049200D01*
X-31743400Y33547200D01*
X-31743400Y33547200D01*
G37*
G36*
X-29243400Y34047200D02*
G01*
X-30945400Y34047200D01*
X-30945400Y34549200D01*
X-29243400Y34549200D01*
X-29243400Y34047200D01*
X-29243400Y34047200D01*
G37*
G36*
X-31743400Y34547200D02*
G01*
X-33445400Y34547200D01*
X-33445400Y35049200D01*
X-31743400Y35049200D01*
X-31743400Y34547200D01*
X-31743400Y34547200D01*
G37*
G36*
X-31743400Y35447200D02*
G01*
X-33445400Y35447200D01*
X-33445400Y36149200D01*
X-31743400Y36149200D01*
X-31743400Y35447200D01*
X-31743400Y35447200D01*
G37*
G36*
X-29343400Y35447200D02*
G01*
X-31045400Y35447200D01*
X-31045400Y36149200D01*
X-29343400Y36149200D01*
X-29343400Y35447200D01*
X-29343400Y35447200D01*
G37*
G36*
X-38087652Y41142880D02*
G01*
X-38087650Y41142879D01*
X-38087649Y41142879D01*
X-37946426Y41084383D01*
X-37946423Y41084381D01*
X-37819331Y40999461D01*
X-37711239Y40891369D01*
X-37654625Y40806640D01*
X-37626317Y40764274D01*
X-37605483Y40713975D01*
X-37593932Y40692364D01*
X-37578386Y40673422D01*
X-37559444Y40657877D01*
X-37537834Y40646326D01*
X-37514385Y40639213D01*
X-37489999Y40636811D01*
X-37465613Y40639213D01*
X-37442164Y40646326D01*
X-37420553Y40657877D01*
X-37401611Y40673423D01*
X-37386066Y40692365D01*
X-37374515Y40713975D01*
X-37367402Y40737424D01*
X-37365000Y40761810D01*
X-37365000Y41122700D01*
X-34263000Y41122700D01*
X-34263000Y40761810D01*
X-34260598Y40737424D01*
X-34253485Y40713975D01*
X-34241934Y40692364D01*
X-34226389Y40673422D01*
X-34207447Y40657877D01*
X-34185836Y40646326D01*
X-34162387Y40639213D01*
X-34138001Y40636811D01*
X-34113615Y40639213D01*
X-34090166Y40646326D01*
X-34068555Y40657877D01*
X-34049613Y40673422D01*
X-34034068Y40692364D01*
X-34022517Y40713975D01*
X-34001683Y40764274D01*
X-33973375Y40806640D01*
X-33916761Y40891369D01*
X-33808669Y40999461D01*
X-33681577Y41084381D01*
X-33681574Y41084383D01*
X-33540351Y41142879D01*
X-33540350Y41142879D01*
X-33540348Y41142880D01*
X-33390431Y41172700D01*
X-33237569Y41172700D01*
X-33087652Y41142880D01*
X-33087650Y41142879D01*
X-33087649Y41142879D01*
X-32946426Y41084383D01*
X-32946423Y41084381D01*
X-32819331Y40999461D01*
X-32711239Y40891369D01*
X-32626319Y40764277D01*
X-32626317Y40764274D01*
X-32567821Y40623051D01*
X-32538000Y40473129D01*
X-32538000Y40320271D01*
X-32567821Y40170349D01*
X-32626317Y40029126D01*
X-32626318Y40029125D01*
X-32626319Y40029123D01*
X-32711239Y39902031D01*
X-32819331Y39793939D01*
X-32946423Y39709019D01*
X-32946426Y39709017D01*
X-33087649Y39650521D01*
X-33087650Y39650521D01*
X-33087652Y39650520D01*
X-33237569Y39620700D01*
X-33390431Y39620700D01*
X-33540348Y39650520D01*
X-33540350Y39650521D01*
X-33540351Y39650521D01*
X-33681574Y39709017D01*
X-33681577Y39709019D01*
X-33808669Y39793939D01*
X-33916761Y39902031D01*
X-34001682Y40029125D01*
X-34001683Y40029126D01*
X-34022519Y40079428D01*
X-34034068Y40101036D01*
X-34049614Y40119978D01*
X-34068556Y40135523D01*
X-34090166Y40147074D01*
X-34113615Y40154187D01*
X-34138001Y40156589D01*
X-34162387Y40154187D01*
X-34185836Y40147074D01*
X-34207447Y40135523D01*
X-34226389Y40119977D01*
X-34241934Y40101035D01*
X-34253485Y40079425D01*
X-34260598Y40055976D01*
X-34263000Y40031590D01*
X-34263000Y39670700D01*
X-37365000Y39670700D01*
X-37365000Y40031590D01*
X-37367402Y40055976D01*
X-37374515Y40079425D01*
X-37386066Y40101036D01*
X-37401611Y40119978D01*
X-37420553Y40135523D01*
X-37442164Y40147074D01*
X-37465613Y40154187D01*
X-37489999Y40156589D01*
X-37514385Y40154187D01*
X-37537834Y40147074D01*
X-37559445Y40135523D01*
X-37578387Y40119978D01*
X-37593932Y40101036D01*
X-37605481Y40079428D01*
X-37626317Y40029126D01*
X-37626318Y40029125D01*
X-37711239Y39902031D01*
X-37819331Y39793939D01*
X-37946423Y39709019D01*
X-37946426Y39709017D01*
X-38087649Y39650521D01*
X-38087650Y39650521D01*
X-38087652Y39650520D01*
X-38237569Y39620700D01*
X-38390431Y39620700D01*
X-38540348Y39650520D01*
X-38540350Y39650521D01*
X-38540351Y39650521D01*
X-38681574Y39709017D01*
X-38681577Y39709019D01*
X-38808669Y39793939D01*
X-38916761Y39902031D01*
X-39001681Y40029123D01*
X-39001682Y40029125D01*
X-39001683Y40029126D01*
X-39060179Y40170349D01*
X-39090000Y40320271D01*
X-39090000Y40473129D01*
X-39060179Y40623051D01*
X-39001683Y40764274D01*
X-39001681Y40764277D01*
X-38916761Y40891369D01*
X-38808669Y40999461D01*
X-38681577Y41084381D01*
X-38681574Y41084383D01*
X-38540351Y41142879D01*
X-38540350Y41142879D01*
X-38540348Y41142880D01*
X-38390431Y41172700D01*
X-38237569Y41172700D01*
X-38087652Y41142880D01*
X-38087652Y41142880D01*
G37*
G36*
X-39288138Y44098302D02*
G01*
X-39275886Y44097700D01*
X-38063000Y44097700D01*
X-38063000Y42095700D01*
X-39275886Y42095700D01*
X-39288138Y42095098D01*
X-39314000Y42092551D01*
X-39339862Y42095098D01*
X-39352114Y42095700D01*
X-39425406Y42095700D01*
X-39442164Y42104657D01*
X-39453701Y42108785D01*
X-39538693Y42134568D01*
X-39564336Y42142346D01*
X-39677425Y42202794D01*
X-39776553Y42284146D01*
X-39857906Y42383276D01*
X-39918354Y42496365D01*
X-39928040Y42528297D01*
X-39955580Y42619083D01*
X-39965000Y42714728D01*
X-39965000Y43478673D01*
X-39955580Y43574318D01*
X-39918355Y43697032D01*
X-39857904Y43810126D01*
X-39776553Y43909254D01*
X-39677424Y43990606D01*
X-39564334Y44051054D01*
X-39564331Y44051055D01*
X-39453710Y44084612D01*
X-39431075Y44093988D01*
X-39425519Y44097700D01*
X-39352114Y44097700D01*
X-39339862Y44098302D01*
X-39314000Y44100849D01*
X-39288138Y44098302D01*
X-39288138Y44098302D01*
G37*
G36*
X-32288138Y44098302D02*
G01*
X-32275886Y44097700D01*
X-32202594Y44097700D01*
X-32185836Y44088743D01*
X-32174293Y44084613D01*
X-32063669Y44051055D01*
X-32063666Y44051054D01*
X-31950576Y43990606D01*
X-31851446Y43909253D01*
X-31770094Y43810125D01*
X-31709646Y43697036D01*
X-31699960Y43665104D01*
X-31672420Y43574318D01*
X-31663000Y43478673D01*
X-31663000Y42714727D01*
X-31672420Y42619082D01*
X-31699960Y42528296D01*
X-31709646Y42496364D01*
X-31770094Y42383275D01*
X-31851446Y42284146D01*
X-31950575Y42202794D01*
X-32063664Y42142346D01*
X-32089307Y42134568D01*
X-32174292Y42108787D01*
X-32196925Y42099413D01*
X-32202482Y42095700D01*
X-32275886Y42095700D01*
X-32288138Y42095098D01*
X-32314000Y42092551D01*
X-32339862Y42095098D01*
X-32352114Y42095700D01*
X-33565000Y42095700D01*
X-33565000Y44097700D01*
X-32352114Y44097700D01*
X-32339862Y44098302D01*
X-32314000Y44100849D01*
X-32288138Y44098302D01*
X-32288138Y44098302D01*
G37*
G36*
X-34013000Y42095700D02*
G01*
X-35615000Y42095700D01*
X-35615000Y44097700D01*
X-34013000Y44097700D01*
X-34013000Y42095700D01*
X-34013000Y42095700D01*
G37*
G36*
X-36013000Y42095700D02*
G01*
X-37615000Y42095700D01*
X-37615000Y44097700D01*
X-36013000Y44097700D01*
X-36013000Y42095700D01*
X-36013000Y42095700D01*
G37*
M02*
