M48
; DRILL file {KiCad 5.1.2-f72e74a~84~ubuntu18.04.1} date Thu 18 Jul 2019 11:25:40 AM EDT
; FORMAT={-:-/ absolute / inch / decimal}
; #@! TF.CreationDate,2019-07-18T11:25:40-04:00
; #@! TF.GenerationSoftware,Kicad,Pcbnew,5.1.2-f72e74a~84~ubuntu18.04.1
; #@! TF.FileFunction,Plated,1,2,PTH
FMAT,2
INCH
T1C0.0157
T2C0.0236
T3C0.0315
T4C0.0335
T5C0.0394
%
G90
G05
T1
X-1.878Y-1.432
X-1.844Y-0.041
X-1.844Y-0.791
X-1.699Y-0.569
X-1.6142Y-1.0935
X-1.61Y-1.382
X-1.592Y-1.182
X-1.517Y-0.791
X-1.485Y0.163
X-1.479Y-0.025
X-1.457Y1.03
X-1.456Y0.975
X-1.418Y0.118
X-1.3891Y0.8912
X-1.388Y-0.155
X-1.364Y0.98
X-1.357Y0.914
X-1.308Y0.281
X-1.274Y-0.067
X-1.2362Y0.5922
X-1.211Y-0.052
X-1.162Y-0.041
X-1.129Y0.731
X-1.112Y0.594
X-1.112Y0.4195
X-1.11Y1.278
X-1.103Y-1.624
X-1.084Y0.683
X-1.06Y0.851
X-1.0522Y-0.1082
X-1.051Y-0.291
X-1.049Y-0.193
X-1.017Y1.192
X-0.974Y0.218
X-0.9706Y0.4881
X-0.9612Y0.8088
X-0.94Y-0.073
X-0.93Y0.11
X-0.9061Y0.1708
X-0.89Y0.595
X-0.854Y1.193
X-0.821Y0.626
X-0.799Y0.866
X-0.768Y-0.2483
X-0.766Y-0.36
X-0.7636Y-0.1662
X-0.754Y0.174
X-0.711Y0.812
X-0.7021Y0.622
X-0.6859Y0.1612
X-0.651Y-0.102
X-0.643Y0.1612
X-0.6246Y-0.1322
X-0.602Y0.183
X-0.5875Y0.3035
X-0.5818Y-0.172
X-0.5711Y-1.8853
X-0.565Y0.73
X-0.565Y0.495
X-0.5609Y-1.8378
X-0.5544Y-1.921
X-0.5537Y-1.7699
X-0.5374Y0.3935
X-0.534Y-1.704
X-0.526Y0.994
X-0.525Y0.447
X-0.513Y0.658
X-0.5091Y-0.2138
X-0.509Y0.505
X-0.502Y0.3152
X-0.496Y-1.666
X-0.438Y-0.144
X-0.432Y0.165
X-0.385Y-1.751
X-0.355Y0.03
X-0.324Y0.297
X-0.302Y0.394
X-0.269Y-0.091
X-0.2159Y0.1584
X-0.167Y0.421
X-0.128Y-0.089
X-0.123Y0.046
T3
X-1.88Y-1.065
X-1.8013Y-1.065
X-1.878Y-1.334
X-1.7993Y-1.334
X-1.88Y-1.198
X-1.8013Y-1.198
X-1.711Y0.1907
X-1.711Y0.112
T4
X-1.5084Y1.5904
X-1.3116Y1.5904
T5
X-1.234Y0.232
X-1.234Y0.132
X-1.234Y0.032
X-1.134Y0.232
X-1.134Y0.132
X-1.134Y0.032
T2
G00X-1.5478Y1.6829
M15
G01X-1.5478Y1.7105
M16
G05
G00X-1.2722Y1.7105
M15
G01X-1.2722Y1.6829
M16
G05
T0
M30
