G04 #@! TF.GenerationSoftware,KiCad,Pcbnew,5.1.2-f72e74a~84~ubuntu18.04.1*
G04 #@! TF.CreationDate,2019-07-18T11:25:25-04:00*
G04 #@! TF.ProjectId,Joe,4a6f652e-6b69-4636-9164-5f7063625858,rev?*
G04 #@! TF.SameCoordinates,Original*
G04 #@! TF.FileFunction,Soldermask,Bot*
G04 #@! TF.FilePolarity,Negative*
%FSLAX46Y46*%
G04 Gerber Fmt 4.6, Leading zero omitted, Abs format (unit mm)*
G04 Created by KiCad (PCBNEW 5.1.2-f72e74a~84~ubuntu18.04.1) date 2019-07-18 11:25:25*
%MOMM*%
%LPD*%
G04 APERTURE LIST*
%ADD10C,0.100000*%
G04 APERTURE END LIST*
D10*
G36*
X-8345400Y-49201817D02*
G01*
X-8345400Y-50082600D01*
X-10247400Y-50082600D01*
X-10247400Y-49180600D01*
X-8343311Y-49180600D01*
X-8345400Y-49201817D01*
X-8345400Y-49201817D01*
G37*
G36*
X-7694017Y-48644089D02*
G01*
X-7694014Y-48644090D01*
X-7694015Y-48644090D01*
X-7630142Y-48670546D01*
X-7572652Y-48708960D01*
X-7523760Y-48757852D01*
X-7485346Y-48815342D01*
X-7463776Y-48867418D01*
X-7458889Y-48879217D01*
X-7445400Y-48947030D01*
X-7445400Y-49016170D01*
X-7458889Y-49083983D01*
X-7458890Y-49083985D01*
X-7485346Y-49147858D01*
X-7523760Y-49205348D01*
X-7572652Y-49254240D01*
X-7630142Y-49292654D01*
X-7682218Y-49314224D01*
X-7694017Y-49319111D01*
X-7761830Y-49332600D01*
X-7830970Y-49332600D01*
X-7898783Y-49319111D01*
X-7910582Y-49314224D01*
X-7962658Y-49292654D01*
X-8020148Y-49254240D01*
X-8069040Y-49205348D01*
X-8111136Y-49142348D01*
X-8116470Y-49132369D01*
X-8132015Y-49113427D01*
X-8150060Y-49098620D01*
X-8144408Y-49079987D01*
X-8142006Y-49055601D01*
X-8144408Y-49031216D01*
X-8147400Y-49016173D01*
X-8147400Y-48947030D01*
X-8133911Y-48879217D01*
X-8129024Y-48867418D01*
X-8107454Y-48815342D01*
X-8069040Y-48757852D01*
X-8020148Y-48708960D01*
X-7962658Y-48670546D01*
X-7898785Y-48644090D01*
X-7898786Y-48644090D01*
X-7898783Y-48644089D01*
X-7830970Y-48630600D01*
X-7761830Y-48630600D01*
X-7694017Y-48644089D01*
X-7694017Y-48644089D01*
G37*
G36*
X-10645400Y-48122600D02*
G01*
X-11947400Y-48122600D01*
X-11947400Y-43240600D01*
X-10645400Y-43240600D01*
X-10645400Y-48122600D01*
X-10645400Y-48122600D01*
G37*
G36*
X-6645400Y-48122600D02*
G01*
X-7947400Y-48122600D01*
X-7947400Y-43240600D01*
X-6645400Y-43240600D01*
X-6645400Y-48122600D01*
X-6645400Y-48122600D01*
G37*
G36*
X-7694017Y-42044089D02*
G01*
X-7694014Y-42044090D01*
X-7694015Y-42044090D01*
X-7630142Y-42070546D01*
X-7572652Y-42108960D01*
X-7523760Y-42157852D01*
X-7485346Y-42215342D01*
X-7471086Y-42249771D01*
X-7458889Y-42279217D01*
X-7445400Y-42347030D01*
X-7445400Y-42416170D01*
X-7458889Y-42483983D01*
X-7458890Y-42483985D01*
X-7485346Y-42547858D01*
X-7523760Y-42605348D01*
X-7572652Y-42654240D01*
X-7630142Y-42692654D01*
X-7682218Y-42714224D01*
X-7694017Y-42719111D01*
X-7761830Y-42732600D01*
X-7830970Y-42732600D01*
X-7898783Y-42719111D01*
X-7910582Y-42714224D01*
X-7962658Y-42692654D01*
X-8020148Y-42654240D01*
X-8069040Y-42605348D01*
X-8107454Y-42547858D01*
X-8133910Y-42483985D01*
X-8133911Y-42483983D01*
X-8147400Y-42416170D01*
X-8147400Y-42347027D01*
X-8144408Y-42331984D01*
X-8142006Y-42307598D01*
X-8144408Y-42283212D01*
X-8150059Y-42264581D01*
X-8132013Y-42249771D01*
X-8116468Y-42230829D01*
X-8111133Y-42220849D01*
X-8107453Y-42215342D01*
X-8107452Y-42215339D01*
X-8069039Y-42157851D01*
X-8020149Y-42108961D01*
X-7962661Y-42070548D01*
X-7962658Y-42070546D01*
X-7898785Y-42044090D01*
X-7898786Y-42044090D01*
X-7898783Y-42044089D01*
X-7830970Y-42030600D01*
X-7761830Y-42030600D01*
X-7694017Y-42044089D01*
X-7694017Y-42044089D01*
G37*
G36*
X-8345400Y-42161383D02*
G01*
X-8343310Y-42182600D01*
X-10247400Y-42182600D01*
X-10247400Y-41280600D01*
X-8345400Y-41280600D01*
X-8345400Y-42161383D01*
X-8345400Y-42161383D01*
G37*
G36*
X-45629987Y-33161102D02*
G01*
X-45558879Y-33168105D01*
X-45422028Y-33209619D01*
X-45422025Y-33209620D01*
X-45295906Y-33277032D01*
X-45185357Y-33367757D01*
X-45094632Y-33478306D01*
X-45027220Y-33604425D01*
X-45027219Y-33604428D01*
X-44985705Y-33741279D01*
X-44971688Y-33883600D01*
X-44985705Y-34025921D01*
X-45027219Y-34162772D01*
X-45027220Y-34162775D01*
X-45094632Y-34288894D01*
X-45185357Y-34399443D01*
X-45295906Y-34490168D01*
X-45422025Y-34557580D01*
X-45422028Y-34557581D01*
X-45558879Y-34599095D01*
X-45629987Y-34606098D01*
X-45665540Y-34609600D01*
X-45736860Y-34609600D01*
X-45772413Y-34606098D01*
X-45843521Y-34599095D01*
X-45980372Y-34557581D01*
X-45980375Y-34557580D01*
X-46106494Y-34490168D01*
X-46217043Y-34399443D01*
X-46307768Y-34288894D01*
X-46375180Y-34162775D01*
X-46375181Y-34162772D01*
X-46416695Y-34025921D01*
X-46430712Y-33883600D01*
X-46416695Y-33741279D01*
X-46375181Y-33604428D01*
X-46375180Y-33604425D01*
X-46307768Y-33478306D01*
X-46217043Y-33367757D01*
X-46106494Y-33277032D01*
X-45980375Y-33209620D01*
X-45980372Y-33209619D01*
X-45843521Y-33168105D01*
X-45772413Y-33161102D01*
X-45736860Y-33157600D01*
X-45665540Y-33157600D01*
X-45629987Y-33161102D01*
X-45629987Y-33161102D01*
G37*
G36*
X-46975200Y-34609600D02*
G01*
X-48427200Y-34609600D01*
X-48427200Y-33157600D01*
X-46975200Y-33157600D01*
X-46975200Y-34609600D01*
X-46975200Y-34609600D01*
G37*
G36*
X-45680787Y-29706702D02*
G01*
X-45609679Y-29713705D01*
X-45472828Y-29755219D01*
X-45472825Y-29755220D01*
X-45346706Y-29822632D01*
X-45236157Y-29913357D01*
X-45145432Y-30023906D01*
X-45078020Y-30150025D01*
X-45078019Y-30150028D01*
X-45036505Y-30286879D01*
X-45022488Y-30429200D01*
X-45036505Y-30571521D01*
X-45078019Y-30708372D01*
X-45078020Y-30708375D01*
X-45145432Y-30834494D01*
X-45236157Y-30945043D01*
X-45346706Y-31035768D01*
X-45472825Y-31103180D01*
X-45472828Y-31103181D01*
X-45609679Y-31144695D01*
X-45680787Y-31151698D01*
X-45716340Y-31155200D01*
X-45787660Y-31155200D01*
X-45823213Y-31151698D01*
X-45894321Y-31144695D01*
X-46031172Y-31103181D01*
X-46031175Y-31103180D01*
X-46157294Y-31035768D01*
X-46267843Y-30945043D01*
X-46358568Y-30834494D01*
X-46425980Y-30708375D01*
X-46425981Y-30708372D01*
X-46467495Y-30571521D01*
X-46481512Y-30429200D01*
X-46467495Y-30286879D01*
X-46425981Y-30150028D01*
X-46425980Y-30150025D01*
X-46358568Y-30023906D01*
X-46267843Y-29913357D01*
X-46157294Y-29822632D01*
X-46031175Y-29755220D01*
X-46031172Y-29755219D01*
X-45894321Y-29713705D01*
X-45823213Y-29706702D01*
X-45787660Y-29703200D01*
X-45716340Y-29703200D01*
X-45680787Y-29706702D01*
X-45680787Y-29706702D01*
G37*
G36*
X-47026000Y-31155200D02*
G01*
X-48478000Y-31155200D01*
X-48478000Y-29703200D01*
X-47026000Y-29703200D01*
X-47026000Y-31155200D01*
X-47026000Y-31155200D01*
G37*
G36*
X-47026000Y-27777000D02*
G01*
X-48478000Y-27777000D01*
X-48478000Y-26325000D01*
X-47026000Y-26325000D01*
X-47026000Y-27777000D01*
X-47026000Y-27777000D01*
G37*
G36*
X-45680787Y-26328502D02*
G01*
X-45609679Y-26335505D01*
X-45472828Y-26377019D01*
X-45472825Y-26377020D01*
X-45346706Y-26444432D01*
X-45236157Y-26535157D01*
X-45145432Y-26645706D01*
X-45078020Y-26771825D01*
X-45078019Y-26771828D01*
X-45036505Y-26908679D01*
X-45022488Y-27051000D01*
X-45036505Y-27193321D01*
X-45078019Y-27330172D01*
X-45078020Y-27330175D01*
X-45145432Y-27456294D01*
X-45236157Y-27566843D01*
X-45346706Y-27657568D01*
X-45472825Y-27724980D01*
X-45472828Y-27724981D01*
X-45609679Y-27766495D01*
X-45680787Y-27773498D01*
X-45716340Y-27777000D01*
X-45787660Y-27777000D01*
X-45823213Y-27773498D01*
X-45894321Y-27766495D01*
X-46031172Y-27724981D01*
X-46031175Y-27724980D01*
X-46157294Y-27657568D01*
X-46267843Y-27566843D01*
X-46358568Y-27456294D01*
X-46425980Y-27330175D01*
X-46425981Y-27330172D01*
X-46467495Y-27193321D01*
X-46481512Y-27051000D01*
X-46467495Y-26908679D01*
X-46425981Y-26771828D01*
X-46425980Y-26771825D01*
X-46358568Y-26645706D01*
X-46267843Y-26535157D01*
X-46157294Y-26444432D01*
X-46031175Y-26377020D01*
X-46031172Y-26377019D01*
X-45894321Y-26335505D01*
X-45823213Y-26328502D01*
X-45787660Y-26325000D01*
X-45716340Y-26325000D01*
X-45680787Y-26328502D01*
X-45680787Y-26328502D01*
G37*
G36*
X-27902600Y-88200D02*
G01*
X-29704600Y-88200D01*
X-29704600Y1713800D01*
X-27902600Y1713800D01*
X-27902600Y-88200D01*
X-27902600Y-88200D01*
G37*
G36*
X-31233157Y1707281D02*
G01*
X-31166973Y1700763D01*
X-30997134Y1649243D01*
X-30840609Y1565578D01*
X-30804871Y1536248D01*
X-30703414Y1452986D01*
X-30620152Y1351529D01*
X-30590822Y1315791D01*
X-30507157Y1159266D01*
X-30455637Y989427D01*
X-30438241Y812800D01*
X-30455637Y636173D01*
X-30507157Y466334D01*
X-30590822Y309809D01*
X-30620152Y274071D01*
X-30703414Y172614D01*
X-30804871Y89352D01*
X-30840609Y60022D01*
X-30997134Y-23643D01*
X-31166973Y-75163D01*
X-31233157Y-81681D01*
X-31299340Y-88200D01*
X-31387860Y-88200D01*
X-31454043Y-81681D01*
X-31520227Y-75163D01*
X-31690066Y-23643D01*
X-31846591Y60022D01*
X-31882329Y89352D01*
X-31983786Y172614D01*
X-32067048Y274071D01*
X-32096378Y309809D01*
X-32180043Y466334D01*
X-32231563Y636173D01*
X-32248959Y812800D01*
X-32231563Y989427D01*
X-32180043Y1159266D01*
X-32096378Y1315791D01*
X-32067048Y1351529D01*
X-31983786Y1452986D01*
X-31882329Y1536248D01*
X-31846591Y1565578D01*
X-31690066Y1649243D01*
X-31520227Y1700763D01*
X-31454042Y1707282D01*
X-31387860Y1713800D01*
X-31299340Y1713800D01*
X-31233157Y1707281D01*
X-31233157Y1707281D01*
G37*
G36*
X-42733400Y2118800D02*
G01*
X-44185400Y2118800D01*
X-44185400Y3570800D01*
X-42733400Y3570800D01*
X-42733400Y2118800D01*
X-42733400Y2118800D01*
G37*
G36*
X-28693157Y4247281D02*
G01*
X-28626973Y4240763D01*
X-28457134Y4189243D01*
X-28300609Y4105578D01*
X-28264871Y4076248D01*
X-28163414Y3992986D01*
X-28080152Y3891529D01*
X-28050822Y3855791D01*
X-27967157Y3699266D01*
X-27915637Y3529427D01*
X-27898241Y3352800D01*
X-27915637Y3176173D01*
X-27967157Y3006334D01*
X-28050822Y2849809D01*
X-28080152Y2814071D01*
X-28163414Y2712614D01*
X-28264871Y2629352D01*
X-28300609Y2600022D01*
X-28457134Y2516357D01*
X-28626973Y2464837D01*
X-28693157Y2458319D01*
X-28759340Y2451800D01*
X-28847860Y2451800D01*
X-28914043Y2458319D01*
X-28980227Y2464837D01*
X-29150066Y2516357D01*
X-29306591Y2600022D01*
X-29342329Y2629352D01*
X-29443786Y2712614D01*
X-29527048Y2814071D01*
X-29556378Y2849809D01*
X-29640043Y3006334D01*
X-29691563Y3176173D01*
X-29708959Y3352800D01*
X-29691563Y3529427D01*
X-29640043Y3699266D01*
X-29556378Y3855791D01*
X-29527048Y3891529D01*
X-29443786Y3992986D01*
X-29342329Y4076248D01*
X-29306591Y4105578D01*
X-29150066Y4189243D01*
X-28980227Y4240763D01*
X-28914043Y4247281D01*
X-28847860Y4253800D01*
X-28759340Y4253800D01*
X-28693157Y4247281D01*
X-28693157Y4247281D01*
G37*
G36*
X-31233157Y4247281D02*
G01*
X-31166973Y4240763D01*
X-30997134Y4189243D01*
X-30840609Y4105578D01*
X-30804871Y4076248D01*
X-30703414Y3992986D01*
X-30620152Y3891529D01*
X-30590822Y3855791D01*
X-30507157Y3699266D01*
X-30455637Y3529427D01*
X-30438241Y3352800D01*
X-30455637Y3176173D01*
X-30507157Y3006334D01*
X-30590822Y2849809D01*
X-30620152Y2814071D01*
X-30703414Y2712614D01*
X-30804871Y2629352D01*
X-30840609Y2600022D01*
X-30997134Y2516357D01*
X-31166973Y2464837D01*
X-31233157Y2458319D01*
X-31299340Y2451800D01*
X-31387860Y2451800D01*
X-31454043Y2458319D01*
X-31520227Y2464837D01*
X-31690066Y2516357D01*
X-31846591Y2600022D01*
X-31882329Y2629352D01*
X-31983786Y2712614D01*
X-32067048Y2814071D01*
X-32096378Y2849809D01*
X-32180043Y3006334D01*
X-32231563Y3176173D01*
X-32248959Y3352800D01*
X-32231563Y3529427D01*
X-32180043Y3699266D01*
X-32096378Y3855791D01*
X-32067048Y3891529D01*
X-31983786Y3992986D01*
X-31882329Y4076248D01*
X-31846591Y4105578D01*
X-31690066Y4189243D01*
X-31520227Y4240763D01*
X-31454043Y4247281D01*
X-31387860Y4253800D01*
X-31299340Y4253800D01*
X-31233157Y4247281D01*
X-31233157Y4247281D01*
G37*
G36*
X-43388187Y5567298D02*
G01*
X-43317079Y5560295D01*
X-43180228Y5518781D01*
X-43180225Y5518780D01*
X-43054106Y5451368D01*
X-42943557Y5360643D01*
X-42852832Y5250094D01*
X-42785420Y5123975D01*
X-42785419Y5123972D01*
X-42743905Y4987121D01*
X-42729888Y4844800D01*
X-42743905Y4702479D01*
X-42785419Y4565628D01*
X-42785420Y4565625D01*
X-42852832Y4439506D01*
X-42943557Y4328957D01*
X-43054106Y4238232D01*
X-43180225Y4170820D01*
X-43180228Y4170819D01*
X-43317079Y4129305D01*
X-43388187Y4122302D01*
X-43423740Y4118800D01*
X-43495060Y4118800D01*
X-43530613Y4122302D01*
X-43601721Y4129305D01*
X-43738572Y4170819D01*
X-43738575Y4170820D01*
X-43864694Y4238232D01*
X-43975243Y4328957D01*
X-44065968Y4439506D01*
X-44133380Y4565625D01*
X-44133381Y4565628D01*
X-44174895Y4702479D01*
X-44188912Y4844800D01*
X-44174895Y4987121D01*
X-44133381Y5123972D01*
X-44133380Y5123975D01*
X-44065968Y5250094D01*
X-43975243Y5360643D01*
X-43864694Y5451368D01*
X-43738575Y5518780D01*
X-43738572Y5518781D01*
X-43601721Y5560295D01*
X-43530613Y5567298D01*
X-43495060Y5570800D01*
X-43423740Y5570800D01*
X-43388187Y5567298D01*
X-43388187Y5567298D01*
G37*
G36*
X-28693157Y6787281D02*
G01*
X-28626973Y6780763D01*
X-28457134Y6729243D01*
X-28300609Y6645578D01*
X-28264871Y6616248D01*
X-28163414Y6532986D01*
X-28080152Y6431529D01*
X-28050822Y6395791D01*
X-27967157Y6239266D01*
X-27915637Y6069427D01*
X-27898241Y5892800D01*
X-27915637Y5716173D01*
X-27967157Y5546334D01*
X-28050822Y5389809D01*
X-28074758Y5360643D01*
X-28163414Y5252614D01*
X-28264871Y5169352D01*
X-28300609Y5140022D01*
X-28457134Y5056357D01*
X-28626973Y5004837D01*
X-28693158Y4998318D01*
X-28759340Y4991800D01*
X-28847860Y4991800D01*
X-28914042Y4998318D01*
X-28980227Y5004837D01*
X-29150066Y5056357D01*
X-29306591Y5140022D01*
X-29342329Y5169352D01*
X-29443786Y5252614D01*
X-29532442Y5360643D01*
X-29556378Y5389809D01*
X-29640043Y5546334D01*
X-29691563Y5716173D01*
X-29708959Y5892800D01*
X-29691563Y6069427D01*
X-29640043Y6239266D01*
X-29556378Y6395791D01*
X-29527048Y6431529D01*
X-29443786Y6532986D01*
X-29342329Y6616248D01*
X-29306591Y6645578D01*
X-29150066Y6729243D01*
X-28980227Y6780763D01*
X-28914043Y6787281D01*
X-28847860Y6793800D01*
X-28759340Y6793800D01*
X-28693157Y6787281D01*
X-28693157Y6787281D01*
G37*
G36*
X-31233157Y6787281D02*
G01*
X-31166973Y6780763D01*
X-30997134Y6729243D01*
X-30840609Y6645578D01*
X-30804871Y6616248D01*
X-30703414Y6532986D01*
X-30620152Y6431529D01*
X-30590822Y6395791D01*
X-30507157Y6239266D01*
X-30455637Y6069427D01*
X-30438241Y5892800D01*
X-30455637Y5716173D01*
X-30507157Y5546334D01*
X-30590822Y5389809D01*
X-30614758Y5360643D01*
X-30703414Y5252614D01*
X-30804871Y5169352D01*
X-30840609Y5140022D01*
X-30997134Y5056357D01*
X-31166973Y5004837D01*
X-31233158Y4998318D01*
X-31299340Y4991800D01*
X-31387860Y4991800D01*
X-31454042Y4998318D01*
X-31520227Y5004837D01*
X-31690066Y5056357D01*
X-31846591Y5140022D01*
X-31882329Y5169352D01*
X-31983786Y5252614D01*
X-32072442Y5360643D01*
X-32096378Y5389809D01*
X-32180043Y5546334D01*
X-32231563Y5716173D01*
X-32248959Y5892800D01*
X-32231563Y6069427D01*
X-32180043Y6239266D01*
X-32096378Y6395791D01*
X-32067048Y6431529D01*
X-31983786Y6532986D01*
X-31882329Y6616248D01*
X-31846591Y6645578D01*
X-31690066Y6729243D01*
X-31520227Y6780763D01*
X-31454043Y6787281D01*
X-31387860Y6793800D01*
X-31299340Y6793800D01*
X-31233157Y6787281D01*
X-31233157Y6787281D01*
G37*
G36*
X-38087652Y41142880D02*
G01*
X-38087650Y41142879D01*
X-38087649Y41142879D01*
X-37946426Y41084383D01*
X-37946423Y41084381D01*
X-37819331Y40999461D01*
X-37711239Y40891369D01*
X-37626319Y40764277D01*
X-37626317Y40764274D01*
X-37567821Y40623051D01*
X-37538000Y40473129D01*
X-37538000Y40320271D01*
X-37567821Y40170349D01*
X-37626317Y40029126D01*
X-37626319Y40029123D01*
X-37711239Y39902031D01*
X-37819331Y39793939D01*
X-37946423Y39709019D01*
X-37946426Y39709017D01*
X-38087649Y39650521D01*
X-38087650Y39650521D01*
X-38087652Y39650520D01*
X-38237569Y39620700D01*
X-38390431Y39620700D01*
X-38540348Y39650520D01*
X-38540350Y39650521D01*
X-38540351Y39650521D01*
X-38681574Y39709017D01*
X-38681577Y39709019D01*
X-38808669Y39793939D01*
X-38916761Y39902031D01*
X-39001681Y40029123D01*
X-39001683Y40029126D01*
X-39060179Y40170349D01*
X-39090000Y40320271D01*
X-39090000Y40473129D01*
X-39060179Y40623051D01*
X-39001683Y40764274D01*
X-39001681Y40764277D01*
X-38916761Y40891369D01*
X-38808669Y40999461D01*
X-38681577Y41084381D01*
X-38681574Y41084383D01*
X-38540351Y41142879D01*
X-38540350Y41142879D01*
X-38540348Y41142880D01*
X-38390431Y41172700D01*
X-38237569Y41172700D01*
X-38087652Y41142880D01*
X-38087652Y41142880D01*
G37*
G36*
X-33087652Y41142880D02*
G01*
X-33087650Y41142879D01*
X-33087649Y41142879D01*
X-32946426Y41084383D01*
X-32946423Y41084381D01*
X-32819331Y40999461D01*
X-32711239Y40891369D01*
X-32626319Y40764277D01*
X-32626317Y40764274D01*
X-32567821Y40623051D01*
X-32538000Y40473129D01*
X-32538000Y40320271D01*
X-32567821Y40170349D01*
X-32626317Y40029126D01*
X-32626319Y40029123D01*
X-32711239Y39902031D01*
X-32819331Y39793939D01*
X-32946423Y39709019D01*
X-32946426Y39709017D01*
X-33087649Y39650521D01*
X-33087650Y39650521D01*
X-33087652Y39650520D01*
X-33237569Y39620700D01*
X-33390431Y39620700D01*
X-33540348Y39650520D01*
X-33540350Y39650521D01*
X-33540351Y39650521D01*
X-33681574Y39709017D01*
X-33681577Y39709019D01*
X-33808669Y39793939D01*
X-33916761Y39902031D01*
X-34001681Y40029123D01*
X-34001683Y40029126D01*
X-34060179Y40170349D01*
X-34090000Y40320271D01*
X-34090000Y40473129D01*
X-34060179Y40623051D01*
X-34001683Y40764274D01*
X-34001681Y40764277D01*
X-33916761Y40891369D01*
X-33808669Y40999461D01*
X-33681577Y41084381D01*
X-33681574Y41084383D01*
X-33540351Y41142879D01*
X-33540350Y41142879D01*
X-33540348Y41142880D01*
X-33390431Y41172700D01*
X-33237569Y41172700D01*
X-33087652Y41142880D01*
X-33087652Y41142880D01*
G37*
G36*
X-32186383Y44088280D02*
G01*
X-32095597Y44060740D01*
X-32063665Y44051054D01*
X-31950576Y43990606D01*
X-31851446Y43909253D01*
X-31770094Y43810125D01*
X-31709646Y43697036D01*
X-31699960Y43665104D01*
X-31672420Y43574318D01*
X-31663000Y43478673D01*
X-31663000Y42714727D01*
X-31672420Y42619082D01*
X-31699960Y42528296D01*
X-31709646Y42496364D01*
X-31770094Y42383275D01*
X-31851446Y42284146D01*
X-31950575Y42202794D01*
X-32063664Y42142346D01*
X-32095596Y42132660D01*
X-32186382Y42105120D01*
X-32314000Y42092551D01*
X-32441617Y42105120D01*
X-32532403Y42132660D01*
X-32564335Y42142346D01*
X-32677424Y42202794D01*
X-32776553Y42284146D01*
X-32857905Y42383275D01*
X-32918352Y42496363D01*
X-32918355Y42496368D01*
X-32955580Y42619082D01*
X-32965000Y42714727D01*
X-32965000Y43478672D01*
X-32955580Y43574317D01*
X-32918355Y43697031D01*
X-32918354Y43697035D01*
X-32857906Y43810124D01*
X-32776553Y43909254D01*
X-32677425Y43990606D01*
X-32564336Y44051054D01*
X-32532404Y44060740D01*
X-32441618Y44088280D01*
X-32314000Y44100849D01*
X-32186383Y44088280D01*
X-32186383Y44088280D01*
G37*
G36*
X-39186382Y44088280D02*
G01*
X-39095596Y44060740D01*
X-39063664Y44051054D01*
X-38950575Y43990606D01*
X-38851446Y43909254D01*
X-38770094Y43810125D01*
X-38709646Y43697036D01*
X-38699960Y43665104D01*
X-38672420Y43574318D01*
X-38663000Y43478673D01*
X-38663000Y42714727D01*
X-38672420Y42619082D01*
X-38699960Y42528296D01*
X-38709646Y42496364D01*
X-38770094Y42383275D01*
X-38851446Y42284147D01*
X-38950576Y42202794D01*
X-39063665Y42142346D01*
X-39095597Y42132660D01*
X-39186383Y42105120D01*
X-39314000Y42092551D01*
X-39441618Y42105120D01*
X-39532404Y42132660D01*
X-39564336Y42142346D01*
X-39677425Y42202794D01*
X-39776553Y42284146D01*
X-39857906Y42383276D01*
X-39918354Y42496365D01*
X-39928040Y42528297D01*
X-39955580Y42619083D01*
X-39965000Y42714728D01*
X-39965000Y43478673D01*
X-39955580Y43574318D01*
X-39918355Y43697032D01*
X-39893392Y43743734D01*
X-39857905Y43810125D01*
X-39776553Y43909254D01*
X-39677424Y43990606D01*
X-39564335Y44051054D01*
X-39532403Y44060740D01*
X-39441617Y44088280D01*
X-39314000Y44100849D01*
X-39186382Y44088280D01*
X-39186382Y44088280D01*
G37*
M02*
